solid OpenSCAD_Model
  facet normal -0.994522 -0.104528 -0
    outer loop
      vertex 14.5799 0 78.9154
      vertex 14.2613 3.03133 40
      vertex 14.5799 0 40
    endloop
  endfacet
  facet normal -0.994522 -0.104528 0
    outer loop
      vertex 14.2613 3.03133 40
      vertex 14.5799 0 78.9154
      vertex 14.2613 3.03133 79.0008
    endloop
  endfacet
  facet normal 0 -1 0
    outer loop
      vertex 1 14.5 40
      vertex 1.52401 14.5 80.6062
      vertex 1 14.5 80.7466
    endloop
  endfacet
  facet normal 0 -1 -0
    outer loop
      vertex 1.52401 14.5 80.6062
      vertex 1 14.5 40
      vertex 1.52401 14.5 40
    endloop
  endfacet
  facet normal -0.587785 -0.809017 0
    outer loop
      vertex 7.28993 12.6265 40
      vertex 9.75584 10.835 80.208
      vertex 7.28993 12.6265 80.8688
    endloop
  endfacet
  facet normal -0.587785 -0.809017 -0
    outer loop
      vertex 9.75584 10.835 80.208
      vertex 7.28993 12.6265 40
      vertex 9.75584 10.835 40
    endloop
  endfacet
  facet normal -0.866025 -0.5 -0
    outer loop
      vertex 13.3194 5.93017 79.2532
      vertex 11.7954 8.56983 40
      vertex 13.3194 5.93017 40
    endloop
  endfacet
  facet normal -0.866025 -0.5 0
    outer loop
      vertex 11.7954 8.56983 40
      vertex 13.3194 5.93017 79.2532
      vertex 11.7954 8.56983 79.6615
    endloop
  endfacet
  facet normal -0.951056 -0.309017 -0
    outer loop
      vertex 14.2613 3.03133 79.0008
      vertex 13.3194 5.93017 40
      vertex 14.2613 3.03133 40
    endloop
  endfacet
  facet normal -0.951056 -0.309017 0
    outer loop
      vertex 13.3194 5.93017 40
      vertex 14.2613 3.03133 79.0008
      vertex 13.3194 5.93017 79.2532
    endloop
  endfacet
  facet normal -0.743145 -0.669131 -0
    outer loop
      vertex 11.7954 8.56983 79.6615
      vertex 9.75584 10.835 40
      vertex 11.7954 8.56983 40
    endloop
  endfacet
  facet normal -0.743145 -0.669131 0
    outer loop
      vertex 9.75584 10.835 40
      vertex 11.7954 8.56983 79.6615
      vertex 9.75584 10.835 80.208
    endloop
  endfacet
  facet normal -0.207912 -0.978148 0
    outer loop
      vertex 1.52401 14.5 40
      vertex 4.50543 13.8663 80.4634
      vertex 1.52401 14.5 80.6062
    endloop
  endfacet
  facet normal -0.207912 -0.978148 -0
    outer loop
      vertex 4.50543 13.8663 80.4634
      vertex 1.52401 14.5 40
      vertex 4.50543 13.8663 40
    endloop
  endfacet
  facet normal -0.406737 -0.913545 3.12886e-06
    outer loop
      vertex 4.50543 13.8663 80.4634
      vertex 7.28993 12.6265 80.8688
      vertex 7.0036 12.754 80.9455
    endloop
  endfacet
  facet normal -0.406737 -0.913545 0
    outer loop
      vertex 7.28993 12.6265 40
      vertex 4.50543 13.8663 80.4634
      vertex 4.50543 13.8663 40
    endloop
  endfacet
  facet normal -0.406737 -0.913545 0
    outer loop
      vertex 4.50543 13.8663 80.4634
      vertex 7.28993 12.6265 40
      vertex 7.28993 12.6265 80.8688
    endloop
  endfacet
  facet normal -0.994522 0.104528 0
    outer loop
      vertex 14.2613 -3.03133 40
      vertex 14.5799 0 78.9154
      vertex 14.5799 0 40
    endloop
  endfacet
  facet normal -0.994522 0.104528 0
    outer loop
      vertex 14.5799 0 78.9154
      vertex 14.2613 -3.03133 40
      vertex 14.2613 -3.03133 79.0008
    endloop
  endfacet
  facet normal -0.743145 0.669131 0
    outer loop
      vertex 9.75584 -10.835 40
      vertex 11.7954 -8.56983 79.6615
      vertex 11.7954 -8.56983 40
    endloop
  endfacet
  facet normal -0.743145 0.669131 0
    outer loop
      vertex 11.7954 -8.56983 79.6615
      vertex 9.75584 -10.835 40
      vertex 9.75584 -10.835 80.208
    endloop
  endfacet
  facet normal -0.951056 0.309017 0
    outer loop
      vertex 13.3194 -5.93017 40
      vertex 14.2613 -3.03133 79.0008
      vertex 14.2613 -3.03133 40
    endloop
  endfacet
  facet normal -0.951056 0.309017 0
    outer loop
      vertex 14.2613 -3.03133 79.0008
      vertex 13.3194 -5.93017 40
      vertex 13.3194 -5.93017 79.2532
    endloop
  endfacet
  facet normal -0.866025 0.5 0
    outer loop
      vertex 11.7954 -8.56983 40
      vertex 13.3194 -5.93017 79.2532
      vertex 13.3194 -5.93017 40
    endloop
  endfacet
  facet normal -0.866025 0.5 0
    outer loop
      vertex 13.3194 -5.93017 79.2532
      vertex 11.7954 -8.56983 40
      vertex 11.7954 -8.56983 79.6615
    endloop
  endfacet
  facet normal -0.207912 0.978148 0
    outer loop
      vertex 1.52401 -14.5 40
      vertex 4.50543 -13.8663 80.4634
      vertex 4.50543 -13.8663 40
    endloop
  endfacet
  facet normal -0.207912 0.978148 0
    outer loop
      vertex 4.50543 -13.8663 80.4634
      vertex 1.52401 -14.5 40
      vertex 1.52401 -14.5 80.6062
    endloop
  endfacet
  facet normal -0.587785 0.809017 0
    outer loop
      vertex 7.28993 -12.6265 40
      vertex 9.75584 -10.835 80.208
      vertex 9.75584 -10.835 40
    endloop
  endfacet
  facet normal -0.587785 0.809017 0
    outer loop
      vertex 9.75584 -10.835 80.208
      vertex 7.28993 -12.6265 40
      vertex 7.28993 -12.6265 80.8688
    endloop
  endfacet
  facet normal 0 1 0
    outer loop
      vertex 1 -14.5 40
      vertex 1.52401 -14.5 80.6062
      vertex 1.52401 -14.5 40
    endloop
  endfacet
  facet normal 0 1 0
    outer loop
      vertex 1.52401 -14.5 80.6062
      vertex 1 -14.5 40
      vertex 1 -14.5 80.7466
    endloop
  endfacet
  facet normal -0.406737 0.913545 3.12886e-06
    outer loop
      vertex 7.28993 -12.6265 80.8688
      vertex 4.50543 -13.8663 80.4634
      vertex 7.0036 -12.754 80.9455
    endloop
  endfacet
  facet normal -0.406737 0.913545 0
    outer loop
      vertex 7.28993 -12.6265 40
      vertex 4.50543 -13.8663 80.4634
      vertex 7.28993 -12.6265 80.8688
    endloop
  endfacet
  facet normal -0.406737 0.913545 0
    outer loop
      vertex 4.50543 -13.8663 80.4634
      vertex 7.28993 -12.6265 40
      vertex 4.50543 -13.8663 40
    endloop
  endfacet
  facet normal 0.497261 -0.104529 -0.861281
    outer loop
      vertex 75.6594 0 62.5492
      vertex 37.3171 3.39717 40
      vertex 76.1472 3.39717 62.4185
    endloop
  endfacet
  facet normal 0.497261 -0.104528 -0.861281
    outer loop
      vertex 37.3171 3.39717 40
      vertex 75.6594 0 62.5492
      vertex 36.603 0 40
    endloop
  endfacet
  facet normal 0.293893 -0.809017 -0.509037
    outer loop
      vertex 52.9425 14.1504 40
      vertex 80 12.1426 58.8127
      vertex 47.4155 12.1426 40
    endloop
  endfacet
  facet normal 0.293893 -0.809017 -0.509037
    outer loop
      vertex 80 12.1426 58.8127
      vertex 52.9425 14.1504 40
      vertex 80 14.1504 55.6216
    endloop
  endfacet
  facet normal 0 -1 0
    outer loop
      vertex 72.6979 16.25 40
      vertex 80 16.25 48.1602
      vertex 65.8661 16.25 40
    endloop
  endfacet
  facet normal 0 -1 -0
    outer loop
      vertex 80 16.25 48.1602
      vertex 72.6979 16.25 40
      vertex 80 16.25 44.2159
    endloop
  endfacet
  facet normal 0.371578 0.669129 -0.64358
    outer loop
      vertex 80 -12.1426 58.8127
      vertex 79.9222 -9.60412 61.407
      vertex 80 -9.66739 61.3862
    endloop
  endfacet
  facet normal 0.371572 0.669131 -0.643582
    outer loop
      vertex 47.4155 -12.1426 40
      vertex 79.9222 -9.60412 61.407
      vertex 80 -12.1426 58.8127
    endloop
  endfacet
  facet normal 0.371572 0.669131 -0.643582
    outer loop
      vertex 79.9222 -9.60412 61.407
      vertex 47.4155 -12.1426 40
      vertex 42.8442 -9.60412 40
    endloop
  endfacet
  facet normal -0.103955 0.978148 0.180057
    outer loop
      vertex 79.3804 -15.5398 40
      vertex 80 -15.9681 42.6847
      vertex 80 -15.5398 40.3577
    endloop
  endfacet
  facet normal -0.103956 0.978148 0.180057
    outer loop
      vertex 80 -15.9681 42.6847
      vertex 79.3804 -15.5398 40
      vertex 75.5244 -15.9496 40
    endloop
  endfacet
  facet normal 0.203368 -0.913545 -0.352244
    outer loop
      vertex 59.1837 15.5398 40
      vertex 80 14.1504 55.6216
      vertex 52.9425 14.1504 40
    endloop
  endfacet
  facet normal 0.203368 -0.913546 -0.352244
    outer loop
      vertex 80 14.1504 55.6216
      vertex 59.1837 15.5398 40
      vertex 80 15.5398 52.0183
    endloop
  endfacet
  facet normal 0.103956 -0.978148 -0.180057
    outer loop
      vertex 65.8661 16.25 40
      vertex 80 15.5398 52.0183
      vertex 59.1837 15.5398 40
    endloop
  endfacet
  facet normal 0.103956 -0.978148 -0.180057
    outer loop
      vertex 80 15.5398 52.0183
      vertex 65.8661 16.25 40
      vertex 80 16.25 48.1602
    endloop
  endfacet
  facet normal -0.103956 -0.978148 0.180057
    outer loop
      vertex 79.3804 15.5398 40
      vertex 80 15.9681 42.6847
      vertex 75.5244 15.9496 40
    endloop
  endfacet
  facet normal -0.103955 -0.978148 0.180057
    outer loop
      vertex 80 15.9681 42.6847
      vertex 79.3804 15.5398 40
      vertex 80 15.5398 40.3577
    endloop
  endfacet
  facet normal -0.203367 -0.913545 0.352245
    outer loop
      vertex 80 15.4019 40
      vertex 80 15.5398 40.3577
      vertex 79.3804 15.5398 40
    endloop
  endfacet
  facet normal 0.433013 -0.5 -0.75
    outer loop
      vertex 77.5891 6.64588 62.0322
      vertex 42.8442 9.60412 40
      vertex 79.9222 9.60412 61.407
    endloop
  endfacet
  facet normal 0.433013 -0.5 -0.75
    outer loop
      vertex 42.8442 9.60412 40
      vertex 77.5891 6.64588 62.0322
      vertex 39.4283 6.64588 40
    endloop
  endfacet
  facet normal 0 1 0
    outer loop
      vertex 72.6979 -16.25 40
      vertex 80 -16.25 48.1602
      vertex 80 -16.25 44.2159
    endloop
  endfacet
  facet normal 0 1 0
    outer loop
      vertex 80 -16.25 48.1602
      vertex 72.6979 -16.25 40
      vertex 65.8661 -16.25 40
    endloop
  endfacet
  facet normal 0.371578 -0.669129 -0.64358
    outer loop
      vertex 79.9222 9.60412 61.407
      vertex 80 12.1426 58.8127
      vertex 80 9.66739 61.3862
    endloop
  endfacet
  facet normal 0.371572 -0.669131 -0.643582
    outer loop
      vertex 47.4155 12.1426 40
      vertex 79.9222 9.60412 61.407
      vertex 42.8442 9.60412 40
    endloop
  endfacet
  facet normal 0.371572 -0.669131 -0.643582
    outer loop
      vertex 79.9222 9.60412 61.407
      vertex 47.4155 12.1426 40
      vertex 80 12.1426 58.8127
    endloop
  endfacet
  facet normal 0.475528 -0.309017 -0.823639
    outer loop
      vertex 76.1472 3.39717 62.4185
      vertex 39.4283 6.64588 40
      vertex 77.5891 6.64588 62.0322
    endloop
  endfacet
  facet normal 0.475528 -0.309017 -0.823639
    outer loop
      vertex 39.4283 6.64588 40
      vertex 76.1472 3.39717 62.4185
      vertex 37.3171 3.39717 40
    endloop
  endfacet
  facet normal -0.103956 0.978148 0.180057
    outer loop
      vertex 75.5244 -15.9496 40
      vertex 80 -16.25 44.2159
      vertex 80 -15.9681 42.6847
    endloop
  endfacet
  facet normal -0.103956 0.978148 0.180057
    outer loop
      vertex 80 -16.25 44.2159
      vertex 75.5244 -15.9496 40
      vertex 72.6979 -16.25 40
    endloop
  endfacet
  facet normal 0.433013 0.5 -0.75
    outer loop
      vertex 42.8442 -9.60412 40
      vertex 77.5891 -6.64588 62.0322
      vertex 79.9222 -9.60412 61.407
    endloop
  endfacet
  facet normal 0.433013 0.5 -0.75
    outer loop
      vertex 77.5891 -6.64588 62.0322
      vertex 42.8442 -9.60412 40
      vertex 39.4283 -6.64588 40
    endloop
  endfacet
  facet normal 0.293893 0.809017 -0.509037
    outer loop
      vertex 52.9425 -14.1504 40
      vertex 80 -12.1426 58.8127
      vertex 80 -14.1504 55.6216
    endloop
  endfacet
  facet normal 0.293893 0.809017 -0.509037
    outer loop
      vertex 80 -12.1426 58.8127
      vertex 52.9425 -14.1504 40
      vertex 47.4155 -12.1426 40
    endloop
  endfacet
  facet normal -0.103956 -0.978148 0.180057
    outer loop
      vertex 75.5244 15.9496 40
      vertex 80 16.25 44.2159
      vertex 72.6979 16.25 40
    endloop
  endfacet
  facet normal -0.103956 -0.978148 0.180057
    outer loop
      vertex 80 16.25 44.2159
      vertex 75.5244 15.9496 40
      vertex 80 15.9681 42.6847
    endloop
  endfacet
  facet normal 0.497261 0.104529 -0.861281
    outer loop
      vertex 37.3171 -3.39717 40
      vertex 75.6594 0 62.5492
      vertex 76.1472 -3.39717 62.4185
    endloop
  endfacet
  facet normal 0.497261 0.104528 -0.861281
    outer loop
      vertex 75.6594 0 62.5492
      vertex 37.3171 -3.39717 40
      vertex 36.603 0 40
    endloop
  endfacet
  facet normal 0.203368 0.913546 -0.352244
    outer loop
      vertex 59.1837 -15.5398 40
      vertex 80 -14.1504 55.6216
      vertex 80 -15.5398 52.0183
    endloop
  endfacet
  facet normal 0.203368 0.913545 -0.352244
    outer loop
      vertex 80 -14.1504 55.6216
      vertex 59.1837 -15.5398 40
      vertex 52.9425 -14.1504 40
    endloop
  endfacet
  facet normal 0.475528 0.309017 -0.823639
    outer loop
      vertex 39.4283 -6.64588 40
      vertex 76.1472 -3.39717 62.4185
      vertex 77.5891 -6.64588 62.0322
    endloop
  endfacet
  facet normal 0.475528 0.309017 -0.823639
    outer loop
      vertex 76.1472 -3.39717 62.4185
      vertex 39.4283 -6.64588 40
      vertex 37.3171 -3.39717 40
    endloop
  endfacet
  facet normal -0.203367 0.913545 0.352245
    outer loop
      vertex 80 -15.5398 40.3577
      vertex 80 -15.4019 40
      vertex 79.3804 -15.5398 40
    endloop
  endfacet
  facet normal 0.103956 0.978148 -0.180057
    outer loop
      vertex 65.8661 -16.25 40
      vertex 80 -15.5398 52.0183
      vertex 80 -16.25 48.1602
    endloop
  endfacet
  facet normal 0.103956 0.978148 -0.180057
    outer loop
      vertex 80 -15.5398 52.0183
      vertex 65.8661 -16.25 40
      vertex 59.1837 -15.5398 40
    endloop
  endfacet
  facet normal -0.497261 -0.104527 0.861281
    outer loop
      vertex 69.7751 2.9268 64.1259
      vertex 38.3277 0 45.6145
      vertex 70.1953 0 64.0133
    endloop
  endfacet
  facet normal -0.497261 -0.104529 0.861281
    outer loop
      vertex 38.3277 0 45.6145
      vertex 69.7751 2.9268 64.1259
      vertex 38.1739 2.9268 45.8809
    endloop
  endfacet
  facet normal 0.497261 -0.104528 -0.861281
    outer loop
      vertex 31.7359 0 74.3185
      vertex 24.4044 2.9268 69.7304
      vertex 32.1561 2.9268 74.2059
    endloop
  endfacet
  facet normal 0.497261 -0.104528 -0.861281
    outer loop
      vertex 24.4044 2.9268 69.7304
      vertex 31.7359 0 74.3185
      vertex 24.2506 0 69.9968
    endloop
  endfacet
  facet normal 0 -1 0
    outer loop
      vertex 32.0248 14 56.5314
      vertex 47.4296 14 68.8235
      vertex 30.5534 14 59.08
    endloop
  endfacet
  facet normal 0 -1 -0
    outer loop
      vertex 47.4296 14 68.8235
      vertex 32.0248 14 56.5314
      vertex 51.4496 14 67.7463
    endloop
  endfacet
  facet normal -0.371572 -0.669131 0.643582
    outer loop
      vertex 36.9834 8.27432 47.9428
      vertex 63.8328 10.4613 65.7181
      vertex 35.9988 10.4613 49.6482
    endloop
  endfacet
  facet normal -0.371573 -0.66913 0.643583
    outer loop
      vertex 63.8328 10.4613 65.7181
      vertex 36.9834 8.27432 47.9428
      vertex 66.5228 8.27432 64.9974
    endloop
  endfacet
  facet normal -0.475528 -0.309018 0.823639
    outer loop
      vertex 68.5328 5.72568 64.4588
      vertex 38.1739 2.9268 45.8809
      vertex 69.7751 2.9268 64.1259
    endloop
  endfacet
  facet normal -0.475528 -0.309017 0.823639
    outer loop
      vertex 38.1739 2.9268 45.8809
      vertex 68.5328 5.72568 64.4588
      vertex 37.7192 5.72568 46.6685
    endloop
  endfacet
  facet normal 0.293893 -0.809017 -0.509037
    outer loop
      vertex 27.7698 12.1911 63.9012
      vertex 38.0984 10.4613 72.6137
      vertex 26.5794 10.4613 65.9631
    endloop
  endfacet
  facet normal 0.293893 -0.809017 -0.509037
    outer loop
      vertex 38.0984 10.4613 72.6137
      vertex 27.7698 12.1911 63.9012
      vertex 41.3508 12.1911 71.7422
    endloop
  endfacet
  facet normal 0.203368 -0.913546 -0.352244
    outer loop
      vertex 41.3508 12.1911 71.7422
      vertex 44.2467 13.3881 70.3098
      vertex 43.0778 12.754 71.2794
    endloop
  endfacet
  facet normal 0.203368 -0.913545 -0.352244
    outer loop
      vertex 29.1141 13.3881 61.5729
      vertex 41.3508 12.1911 71.7422
      vertex 27.7698 12.1911 63.9012
    endloop
  endfacet
  facet normal 0.203368 -0.913546 -0.352244
    outer loop
      vertex 41.3508 12.1911 71.7422
      vertex 29.1141 13.3881 61.5729
      vertex 44.2467 13.3881 70.3098
    endloop
  endfacet
  facet normal -0.433013 0.499999 0.75
    outer loop
      vertex 37.7192 -5.72568 46.6685
      vertex 66.5228 -8.27432 64.9974
      vertex 68.5328 -5.72568 64.4588
    endloop
  endfacet
  facet normal -0.433013 0.5 0.75
    outer loop
      vertex 66.5228 -8.27432 64.9974
      vertex 37.7192 -5.72568 46.6685
      vertex 36.9834 -8.27432 47.9428
    endloop
  endfacet
  facet normal -0.433013 -0.499999 0.75
    outer loop
      vertex 66.5228 8.27432 64.9974
      vertex 37.7192 5.72568 46.6685
      vertex 68.5328 5.72568 64.4588
    endloop
  endfacet
  facet normal -0.433013 -0.5 0.75
    outer loop
      vertex 37.7192 5.72568 46.6685
      vertex 66.5228 8.27432 64.9974
      vertex 36.9834 8.27432 47.9428
    endloop
  endfacet
  facet normal -0.203369 -0.913546 0.352242
    outer loop
      vertex 56.1313 13.3881 67.1253
      vertex 60.5805 12.1911 66.5896
      vertex 58.8534 12.754 67.0524
    endloop
  endfacet
  facet normal -0.203368 -0.913545 0.352244
    outer loop
      vertex 34.8084 12.1911 51.7101
      vertex 56.1313 13.3881 67.1253
      vertex 33.4641 13.3881 54.0384
    endloop
  endfacet
  facet normal -0.203368 -0.913545 0.352244
    outer loop
      vertex 56.1313 13.3881 67.1253
      vertex 34.8084 12.1911 51.7101
      vertex 60.5805 12.1911 66.5896
    endloop
  endfacet
  facet normal -0.103956 -0.978148 0.180057
    outer loop
      vertex 33.4641 13.3881 54.0384
      vertex 51.4496 14 67.7463
      vertex 32.0248 14 56.5314
    endloop
  endfacet
  facet normal -0.103956 -0.978148 0.180057
    outer loop
      vertex 51.4496 14 67.7463
      vertex 33.4641 13.3881 54.0384
      vertex 56.1313 13.3881 67.1253
    endloop
  endfacet
  facet normal -0.293893 -0.809017 0.509037
    outer loop
      vertex 35.9988 10.4613 49.6482
      vertex 60.5805 12.1911 66.5896
      vertex 34.8084 12.1911 51.7101
    endloop
  endfacet
  facet normal -0.293893 -0.809017 0.509037
    outer loop
      vertex 60.5805 12.1911 66.5896
      vertex 35.9988 10.4613 49.6482
      vertex 63.8328 10.4613 65.7181
    endloop
  endfacet
  facet normal 0.433013 -0.499999 -0.75
    outer loop
      vertex 33.3984 5.72568 73.873
      vertex 25.5948 8.27432 67.6685
      vertex 35.4085 8.27432 73.3344
    endloop
  endfacet
  facet normal 0.433012 -0.5 -0.75
    outer loop
      vertex 25.5948 8.27432 67.6685
      vertex 33.3984 5.72568 73.873
      vertex 24.8591 5.72568 68.9428
    endloop
  endfacet
  facet normal 0.371572 -0.669131 -0.643582
    outer loop
      vertex 26.5794 10.4613 65.9631
      vertex 35.4085 8.27432 73.3344
      vertex 25.5948 8.27432 67.6685
    endloop
  endfacet
  facet normal 0.371573 -0.66913 -0.643582
    outer loop
      vertex 35.4085 8.27432 73.3344
      vertex 26.5794 10.4613 65.9631
      vertex 38.0984 10.4613 72.6137
    endloop
  endfacet
  facet normal 0.475528 -0.309018 -0.823639
    outer loop
      vertex 32.1561 2.9268 74.2059
      vertex 24.8591 5.72568 68.9428
      vertex 33.3984 5.72568 73.873
    endloop
  endfacet
  facet normal 0.475528 -0.309017 -0.823639
    outer loop
      vertex 24.8591 5.72568 68.9428
      vertex 32.1561 2.9268 74.2059
      vertex 24.4044 2.9268 69.7304
    endloop
  endfacet
  facet normal 0.103956 -0.978148 -0.180057
    outer loop
      vertex 30.5534 14 59.08
      vertex 44.2467 13.3881 70.3098
      vertex 29.1141 13.3881 61.5729
    endloop
  endfacet
  facet normal 0.103956 -0.978148 -0.180057
    outer loop
      vertex 44.2467 13.3881 70.3098
      vertex 30.5534 14 59.08
      vertex 47.4296 14 68.8235
    endloop
  endfacet
  facet normal -0.497261 0.104527 0.861281
    outer loop
      vertex 38.3277 0 45.6145
      vertex 69.7751 -2.9268 64.1259
      vertex 70.1953 0 64.0133
    endloop
  endfacet
  facet normal -0.497261 0.104529 0.861281
    outer loop
      vertex 69.7751 -2.9268 64.1259
      vertex 38.3277 0 45.6145
      vertex 38.1739 -2.9268 45.8809
    endloop
  endfacet
  facet normal 0.103956 0.978148 -0.180057
    outer loop
      vertex 30.5534 -14 59.08
      vertex 44.2467 -13.3881 70.3098
      vertex 47.4296 -14 68.8235
    endloop
  endfacet
  facet normal 0.103956 0.978148 -0.180057
    outer loop
      vertex 44.2467 -13.3881 70.3098
      vertex 30.5534 -14 59.08
      vertex 29.1141 -13.3881 61.5729
    endloop
  endfacet
  facet normal -0.293893 0.809017 0.509037
    outer loop
      vertex 35.9988 -10.4613 49.6482
      vertex 60.5805 -12.1911 66.5896
      vertex 63.8328 -10.4613 65.7181
    endloop
  endfacet
  facet normal -0.293893 0.809017 0.509037
    outer loop
      vertex 60.5805 -12.1911 66.5896
      vertex 35.9988 -10.4613 49.6482
      vertex 34.8084 -12.1911 51.7101
    endloop
  endfacet
  facet normal -0.371573 0.66913 0.643583
    outer loop
      vertex 36.9834 -8.27432 47.9428
      vertex 63.8328 -10.4613 65.7181
      vertex 66.5228 -8.27432 64.9974
    endloop
  endfacet
  facet normal -0.371572 0.669131 0.643582
    outer loop
      vertex 63.8328 -10.4613 65.7181
      vertex 36.9834 -8.27432 47.9428
      vertex 35.9988 -10.4613 49.6482
    endloop
  endfacet
  facet normal -0.475528 0.309018 0.823639
    outer loop
      vertex 38.1739 -2.9268 45.8809
      vertex 68.5328 -5.72568 64.4588
      vertex 69.7751 -2.9268 64.1259
    endloop
  endfacet
  facet normal -0.475528 0.309017 0.823639
    outer loop
      vertex 68.5328 -5.72568 64.4588
      vertex 38.1739 -2.9268 45.8809
      vertex 37.7192 -5.72568 46.6685
    endloop
  endfacet
  facet normal 0.433013 0.499999 -0.75
    outer loop
      vertex 25.5948 -8.27432 67.6685
      vertex 33.3984 -5.72568 73.873
      vertex 35.4085 -8.27432 73.3344
    endloop
  endfacet
  facet normal 0.433012 0.5 -0.75
    outer loop
      vertex 33.3984 -5.72568 73.873
      vertex 25.5948 -8.27432 67.6685
      vertex 24.8591 -5.72568 68.9428
    endloop
  endfacet
  facet normal 0.497261 0.104528 -0.861281
    outer loop
      vertex 24.4044 -2.9268 69.7304
      vertex 31.7359 0 74.3185
      vertex 32.1561 -2.9268 74.2059
    endloop
  endfacet
  facet normal 0.497261 0.104528 -0.861281
    outer loop
      vertex 31.7359 0 74.3185
      vertex 24.4044 -2.9268 69.7304
      vertex 24.2506 0 69.9968
    endloop
  endfacet
  facet normal 0.475528 0.309018 -0.823639
    outer loop
      vertex 24.8591 -5.72568 68.9428
      vertex 32.1561 -2.9268 74.2059
      vertex 33.3984 -5.72568 73.873
    endloop
  endfacet
  facet normal 0.475528 0.309017 -0.823639
    outer loop
      vertex 32.1561 -2.9268 74.2059
      vertex 24.8591 -5.72568 68.9428
      vertex 24.4044 -2.9268 69.7304
    endloop
  endfacet
  facet normal -0.103956 0.978148 0.180057
    outer loop
      vertex 33.4641 -13.3881 54.0384
      vertex 51.4496 -14 67.7463
      vertex 56.1313 -13.3881 67.1253
    endloop
  endfacet
  facet normal -0.103956 0.978148 0.180057
    outer loop
      vertex 51.4496 -14 67.7463
      vertex 33.4641 -13.3881 54.0384
      vertex 32.0248 -14 56.5314
    endloop
  endfacet
  facet normal 0 1 0
    outer loop
      vertex 32.0248 -14 56.5314
      vertex 47.4296 -14 68.8235
      vertex 51.4496 -14 67.7463
    endloop
  endfacet
  facet normal 0 1 0
    outer loop
      vertex 47.4296 -14 68.8235
      vertex 32.0248 -14 56.5314
      vertex 30.5534 -14 59.08
    endloop
  endfacet
  facet normal 0.293893 0.809017 -0.509037
    outer loop
      vertex 27.7698 -12.1911 63.9012
      vertex 38.0984 -10.4613 72.6137
      vertex 41.3508 -12.1911 71.7422
    endloop
  endfacet
  facet normal 0.293893 0.809017 -0.509037
    outer loop
      vertex 38.0984 -10.4613 72.6137
      vertex 27.7698 -12.1911 63.9012
      vertex 26.5794 -10.4613 65.9631
    endloop
  endfacet
  facet normal 0.203368 0.913546 -0.352244
    outer loop
      vertex 44.2467 -13.3881 70.3098
      vertex 41.3508 -12.1911 71.7422
      vertex 43.0778 -12.754 71.2794
    endloop
  endfacet
  facet normal 0.203368 0.913546 -0.352244
    outer loop
      vertex 29.1141 -13.3881 61.5729
      vertex 41.3508 -12.1911 71.7422
      vertex 44.2467 -13.3881 70.3098
    endloop
  endfacet
  facet normal 0.203368 0.913545 -0.352244
    outer loop
      vertex 41.3508 -12.1911 71.7422
      vertex 29.1141 -13.3881 61.5729
      vertex 27.7698 -12.1911 63.9012
    endloop
  endfacet
  facet normal 0.371573 0.66913 -0.643582
    outer loop
      vertex 26.5794 -10.4613 65.9631
      vertex 35.4085 -8.27432 73.3344
      vertex 38.0984 -10.4613 72.6137
    endloop
  endfacet
  facet normal 0.371572 0.669131 -0.643582
    outer loop
      vertex 35.4085 -8.27432 73.3344
      vertex 26.5794 -10.4613 65.9631
      vertex 25.5948 -8.27432 67.6685
    endloop
  endfacet
  facet normal 0.866025 -8.09498e-07 0.5
    outer loop
      vertex 30.7102 11.0164 58.8084
      vertex 30.5534 14 59.08
      vertex 29.1141 13.3881 61.5729
    endloop
  endfacet
  facet normal 0.866026 -7.30895e-07 0.499999
    outer loop
      vertex 30.5534 14 59.08
      vertex 30.7102 11.0164 58.8084
      vertex 32.0248 14 56.5314
    endloop
  endfacet
  facet normal 0.866025 1.18238e-07 0.5
    outer loop
      vertex 29.5776 10.535 60.7701
      vertex 29.1141 13.3881 61.5729
      vertex 27.7698 12.1911 63.9012
    endloop
  endfacet
  facet normal 0.866025 2.0299e-07 0.5
    outer loop
      vertex 31.868 11.0164 56.8029
      vertex 32.0248 14 56.5314
      vertex 30.7102 11.0164 58.8084
    endloop
  endfacet
  facet normal 0.866026 1.16064e-07 0.5
    outer loop
      vertex 32.0248 14 56.5314
      vertex 31.868 11.0164 56.8029
      vertex 33.4641 13.3881 54.0384
    endloop
  endfacet
  facet normal 0.866026 5.26221e-07 0.499999
    outer loop
      vertex 29.1141 13.3881 61.5729
      vertex 29.5776 10.535 60.7701
      vertex 30.7102 11.0164 58.8084
    endloop
  endfacet
  facet normal 0.866025 -7.4809e-08 0.5
    outer loop
      vertex 28.5198 9.59306 62.6022
      vertex 27.7698 12.1911 63.9012
      vertex 26.5794 10.4613 65.9631
    endloop
  endfacet
  facet normal 0.866025 -2.92613e-07 0.5
    outer loop
      vertex 27.7698 12.1911 63.9012
      vertex 28.5198 9.59306 62.6022
      vertex 29.5776 10.535 60.7701
    endloop
  endfacet
  facet normal 0.866025 6.50492e-07 0.5
    outer loop
      vertex 27.5831 8.2319 64.2247
      vertex 26.5794 10.4613 65.9631
      vertex 25.5948 8.27432 67.6685
    endloop
  endfacet
  facet normal 0.866025 9.69491e-07 0.5
    outer loop
      vertex 26.5794 10.4613 65.9631
      vertex 27.5831 8.2319 64.2247
      vertex 28.5198 9.59306 62.6022
    endloop
  endfacet
  facet normal 0.866025 -1.09282e-06 0.5
    outer loop
      vertex 25.5948 8.27432 67.6685
      vertex 26.8083 6.51097 65.5666
      vertex 27.5831 8.2319 64.2247
    endloop
  endfacet
  facet normal 0.866026 1.03367e-07 0.5
    outer loop
      vertex 24.8591 5.72568 68.9428
      vertex 26.8083 6.51097 65.5666
      vertex 25.5948 8.27432 67.6685
    endloop
  endfacet
  facet normal 0.866026 1.04073e-06 0.5
    outer loop
      vertex 24.8591 5.72568 68.9428
      vertex 26.2294 4.50547 66.5694
      vertex 26.8083 6.51097 65.5666
    endloop
  endfacet
  facet normal 0.866025 1.15467e-07 0.5
    outer loop
      vertex 24.4044 2.9268 69.7304
      vertex 26.2294 4.50547 66.5694
      vertex 24.8591 5.72568 68.9428
    endloop
  endfacet
  facet normal 0.866026 -5.72859e-07 0.5
    outer loop
      vertex 24.4044 2.9268 69.7304
      vertex 25.8716 2.30306 67.1891
      vertex 26.2294 4.50547 66.5694
    endloop
  endfacet
  facet normal 0.866026 -2.21109e-07 0.5
    outer loop
      vertex 24.2506 0 69.9968
      vertex 25.8716 2.30306 67.1891
      vertex 24.4044 2.9268 69.7304
    endloop
  endfacet
  facet normal 0.866025 3.02528e-07 0.5
    outer loop
      vertex 24.2506 0 69.9968
      vertex 25.7506 0 67.3987
      vertex 25.8716 2.30306 67.1891
    endloop
  endfacet
  facet normal 0.866025 -3.02528e-07 0.5
    outer loop
      vertex 24.2506 0 69.9968
      vertex 25.8716 -2.30306 67.1891
      vertex 25.7506 0 67.3987
    endloop
  endfacet
  facet normal 0.866026 2.21109e-07 0.5
    outer loop
      vertex 24.4044 -2.9268 69.7304
      vertex 25.8716 -2.30306 67.1891
      vertex 24.2506 0 69.9968
    endloop
  endfacet
  facet normal 0.866026 5.72859e-07 0.5
    outer loop
      vertex 24.4044 -2.9268 69.7304
      vertex 26.2294 -4.50547 66.5694
      vertex 25.8716 -2.30306 67.1891
    endloop
  endfacet
  facet normal 0.866025 -1.15467e-07 0.5
    outer loop
      vertex 24.8591 -5.72568 68.9428
      vertex 26.2294 -4.50547 66.5694
      vertex 24.4044 -2.9268 69.7304
    endloop
  endfacet
  facet normal 0.866026 -1.04073e-06 0.5
    outer loop
      vertex 24.8591 -5.72568 68.9428
      vertex 26.8083 -6.51097 65.5666
      vertex 26.2294 -4.50547 66.5694
    endloop
  endfacet
  facet normal 0.866026 -1.03367e-07 0.5
    outer loop
      vertex 25.5948 -8.27432 67.6685
      vertex 26.8083 -6.51097 65.5666
      vertex 24.8591 -5.72568 68.9428
    endloop
  endfacet
  facet normal 0.866025 1.09282e-06 0.5
    outer loop
      vertex 26.8083 -6.51097 65.5666
      vertex 25.5948 -8.27432 67.6685
      vertex 27.5831 -8.2319 64.2247
    endloop
  endfacet
  facet normal 0.866025 -6.50492e-07 0.5
    outer loop
      vertex 26.5794 -10.4613 65.9631
      vertex 27.5831 -8.2319 64.2247
      vertex 25.5948 -8.27432 67.6685
    endloop
  endfacet
  facet normal 0.866025 -9.69491e-07 0.5
    outer loop
      vertex 27.5831 -8.2319 64.2247
      vertex 26.5794 -10.4613 65.9631
      vertex 28.5198 -9.59306 62.6022
    endloop
  endfacet
  facet normal 0.866025 7.4809e-08 0.5
    outer loop
      vertex 27.7698 -12.1911 63.9012
      vertex 28.5198 -9.59306 62.6022
      vertex 26.5794 -10.4613 65.9631
    endloop
  endfacet
  facet normal 0.866025 2.92613e-07 0.5
    outer loop
      vertex 28.5198 -9.59306 62.6022
      vertex 27.7698 -12.1911 63.9012
      vertex 29.5776 -10.535 60.7701
    endloop
  endfacet
  facet normal 0.866026 -5.26221e-07 0.499999
    outer loop
      vertex 29.5776 -10.535 60.7701
      vertex 29.1141 -13.3881 61.5729
      vertex 30.7102 -11.0164 58.8084
    endloop
  endfacet
  facet normal 0.866025 -1.18238e-07 0.5
    outer loop
      vertex 29.1141 -13.3881 61.5729
      vertex 29.5776 -10.535 60.7701
      vertex 27.7698 -12.1911 63.9012
    endloop
  endfacet
  facet normal 0.866026 2.36952e-07 0.5
    outer loop
      vertex 33.0006 10.535 54.8413
      vertex 33.4641 13.3881 54.0384
      vertex 31.868 11.0164 56.8029
    endloop
  endfacet
  facet normal 0.866025 3.87534e-07 0.5
    outer loop
      vertex 33.4641 13.3881 54.0384
      vertex 33.0006 10.535 54.8413
      vertex 34.8084 12.1911 51.7101
    endloop
  endfacet
  facet normal 0.866025 -6.5999e-08 0.5
    outer loop
      vertex 34.0584 9.59306 53.0091
      vertex 34.8084 12.1911 51.7101
      vertex 33.0006 10.535 54.8413
    endloop
  endfacet
  facet normal 0.866025 3.56997e-07 0.500001
    outer loop
      vertex 34.8084 12.1911 51.7101
      vertex 34.0584 9.59306 53.0091
      vertex 35.9988 10.4613 49.6482
    endloop
  endfacet
  facet normal 0.866025 5.81779e-07 0.500001
    outer loop
      vertex 34.9951 8.2319 51.3867
      vertex 35.9988 10.4613 49.6482
      vertex 34.0584 9.59306 53.0091
    endloop
  endfacet
  facet normal 0.866026 -6.00367e-07 0.499999
    outer loop
      vertex 35.9988 10.4613 49.6482
      vertex 34.9951 8.2319 51.3867
      vertex 36.9834 8.27432 47.9428
    endloop
  endfacet
  facet normal 0.866026 -3.04508e-07 0.499999
    outer loop
      vertex 35.7699 6.51097 50.0447
      vertex 36.9834 8.27432 47.9428
      vertex 34.9951 8.2319 51.3867
    endloop
  endfacet
  facet normal 0.866026 -1.46191e-07 0.5
    outer loop
      vertex 35.7699 6.51097 50.0447
      vertex 37.7192 5.72568 46.6685
      vertex 36.9834 8.27432 47.9428
    endloop
  endfacet
  facet normal 0.866026 1.06889e-06 0.499999
    outer loop
      vertex 36.3488 4.50547 49.042
      vertex 37.7192 5.72568 46.6685
      vertex 35.7699 6.51097 50.0447
    endloop
  endfacet
  facet normal 0.866026 1.36409e-06 0.499999
    outer loop
      vertex 36.3488 4.50547 49.042
      vertex 38.1739 2.9268 45.8809
      vertex 37.7192 5.72568 46.6685
    endloop
  endfacet
  facet normal 0.866025 4.37862e-07 0.5
    outer loop
      vertex 36.7066 2.30306 48.4222
      vertex 38.1739 2.9268 45.8809
      vertex 36.3488 4.50547 49.042
    endloop
  endfacet
  facet normal 0.866025 -1.01975e-06 0.5
    outer loop
      vertex 38.3277 0 45.6145
      vertex 36.7066 2.30306 48.4222
      vertex 36.8277 0 48.2126
    endloop
  endfacet
  facet normal 0.866026 -4.25287e-07 0.5
    outer loop
      vertex 36.7066 2.30306 48.4222
      vertex 38.3277 0 45.6145
      vertex 38.1739 2.9268 45.8809
    endloop
  endfacet
  facet normal 0.866025 1.01975e-06 0.5
    outer loop
      vertex 36.7066 -2.30306 48.4222
      vertex 38.3277 0 45.6145
      vertex 36.8277 0 48.2126
    endloop
  endfacet
  facet normal 0.866026 4.25287e-07 0.5
    outer loop
      vertex 36.7066 -2.30306 48.4222
      vertex 38.1739 -2.9268 45.8809
      vertex 38.3277 0 45.6145
    endloop
  endfacet
  facet normal 0.866025 -4.37862e-07 0.5
    outer loop
      vertex 36.3488 -4.50547 49.042
      vertex 38.1739 -2.9268 45.8809
      vertex 36.7066 -2.30306 48.4222
    endloop
  endfacet
  facet normal 0.866026 -1.36409e-06 0.499999
    outer loop
      vertex 36.3488 -4.50547 49.042
      vertex 37.7192 -5.72568 46.6685
      vertex 38.1739 -2.9268 45.8809
    endloop
  endfacet
  facet normal 0.866026 -1.06889e-06 0.499999
    outer loop
      vertex 35.7699 -6.51097 50.0447
      vertex 37.7192 -5.72568 46.6685
      vertex 36.3488 -4.50547 49.042
    endloop
  endfacet
  facet normal 0.866026 3.04508e-07 0.499999
    outer loop
      vertex 36.9834 -8.27432 47.9428
      vertex 35.7699 -6.51097 50.0447
      vertex 34.9951 -8.2319 51.3867
    endloop
  endfacet
  facet normal 0.866026 1.46191e-07 0.5
    outer loop
      vertex 35.7699 -6.51097 50.0447
      vertex 36.9834 -8.27432 47.9428
      vertex 37.7192 -5.72568 46.6685
    endloop
  endfacet
  facet normal 0.866025 -5.81779e-07 0.500001
    outer loop
      vertex 35.9988 -10.4613 49.6482
      vertex 34.9951 -8.2319 51.3867
      vertex 34.0584 -9.59306 53.0091
    endloop
  endfacet
  facet normal 0.866026 6.00367e-07 0.499999
    outer loop
      vertex 34.9951 -8.2319 51.3867
      vertex 35.9988 -10.4613 49.6482
      vertex 36.9834 -8.27432 47.9428
    endloop
  endfacet
  facet normal 0.866025 6.5999e-08 0.5
    outer loop
      vertex 34.8084 -12.1911 51.7101
      vertex 34.0584 -9.59306 53.0091
      vertex 33.0006 -10.535 54.8413
    endloop
  endfacet
  facet normal 0.866026 -2.36952e-07 0.5
    outer loop
      vertex 33.4641 -13.3881 54.0384
      vertex 33.0006 -10.535 54.8413
      vertex 31.868 -11.0164 56.8029
    endloop
  endfacet
  facet normal 0.866025 8.09498e-07 0.5
    outer loop
      vertex 30.5534 -14 59.08
      vertex 30.7102 -11.0164 58.8084
      vertex 29.1141 -13.3881 61.5729
    endloop
  endfacet
  facet normal 0.866025 -3.56997e-07 0.500001
    outer loop
      vertex 34.0584 -9.59306 53.0091
      vertex 34.8084 -12.1911 51.7101
      vertex 35.9988 -10.4613 49.6482
    endloop
  endfacet
  facet normal 0.866025 8.42275e-07 0.5
    outer loop
      vertex 30.7102 -11.0164 58.8084
      vertex 30.5534 -14 59.08
      vertex 31.868 -11.0164 56.8029
    endloop
  endfacet
  facet normal 0.866025 -3.87534e-07 0.5
    outer loop
      vertex 33.0006 -10.535 54.8413
      vertex 33.4641 -13.3881 54.0384
      vertex 34.8084 -12.1911 51.7101
    endloop
  endfacet
  facet normal 0.866026 -9.16109e-08 0.499999
    outer loop
      vertex 32.0248 -14 56.5314
      vertex 31.868 -11.0164 56.8029
      vertex 30.5534 -14 59.08
    endloop
  endfacet
  facet normal 0.866026 -1.16064e-07 0.5
    outer loop
      vertex 31.868 -11.0164 56.8029
      vertex 32.0248 -14 56.5314
      vertex 33.4641 -13.3881 54.0384
    endloop
  endfacet
  facet normal -0.203369 0.913546 0.352242
    outer loop
      vertex 60.5805 -12.1911 66.5896
      vertex 56.1313 -13.3881 67.1253
      vertex 58.8534 -12.754 67.0524
    endloop
  endfacet
  facet normal -0.203368 0.913545 0.352244
    outer loop
      vertex 34.8084 -12.1911 51.7101
      vertex 56.1313 -13.3881 67.1253
      vertex 60.5805 -12.1911 66.5896
    endloop
  endfacet
  facet normal -0.203368 0.913545 0.352244
    outer loop
      vertex 56.1313 -13.3881 67.1253
      vertex 34.8084 -12.1911 51.7101
      vertex 33.4641 -13.3881 54.0384
    endloop
  endfacet
  facet normal 0.475528 -0.309017 -0.823639
    outer loop
      vertex 20 4.50547 62.9728
      vertex 25.8716 2.30306 67.1891
      vertex 20 2.30306 63.7991
    endloop
  endfacet
  facet normal 0.475529 -0.309015 -0.82364
    outer loop
      vertex 25.8716 2.30306 67.1891
      vertex 20 4.50547 62.9728
      vertex 26.2294 4.50547 66.5694
    endloop
  endfacet
  facet normal -0.433013 -0.5 0.75
    outer loop
      vertex 35.7699 6.51097 50.0447
      vertex 27.602 4.50547 43.992
      vertex 36.3488 4.50547 49.042
    endloop
  endfacet
  facet normal -0.433013 -0.5 0.75
    outer loop
      vertex 27.602 4.50547 43.992
      vertex 35.7699 6.51097 50.0447
      vertex 27.023 6.51097 44.9947
    endloop
  endfacet
  facet normal -0.475528 -0.309017 0.823639
    outer loop
      vertex 36.3488 4.50547 49.042
      vertex 27.9598 2.30306 43.3722
      vertex 36.7066 2.30306 48.4222
    endloop
  endfacet
  facet normal -0.475528 -0.309017 0.823639
    outer loop
      vertex 27.9598 2.30306 43.3722
      vertex 36.3488 4.50547 49.042
      vertex 27.602 4.50547 43.992
    endloop
  endfacet
  facet normal -0.103956 -0.978148 0.180057
    outer loop
      vertex 23.1212 11.0164 51.7529
      vertex 33.0006 10.535 54.8413
      vertex 31.868 11.0164 56.8029
    endloop
  endfacet
  facet normal -0.103956 -0.978148 0.180057
    outer loop
      vertex 33.0006 10.535 54.8413
      vertex 23.1212 11.0164 51.7529
      vertex 24.2538 10.535 49.7913
    endloop
  endfacet
  facet normal -0.203368 -0.913545 0.352244
    outer loop
      vertex 24.2538 10.535 49.7913
      vertex 34.0584 9.59306 53.0091
      vertex 33.0006 10.535 54.8413
    endloop
  endfacet
  facet normal -0.203368 -0.913545 0.352244
    outer loop
      vertex 34.0584 9.59306 53.0091
      vertex 24.2538 10.535 49.7913
      vertex 25.3115 9.59306 47.9591
    endloop
  endfacet
  facet normal 0.203368 -0.913545 -0.352244
    outer loop
      vertex 20 9.59306 57.6833
      vertex 29.5776 10.535 60.7701
      vertex 28.5198 9.59306 62.6022
    endloop
  endfacet
  facet normal 0.203369 -0.913545 -0.352244
    outer loop
      vertex 20.8307 10.535 55.7201
      vertex 20 9.59306 57.6833
      vertex 20 9.79522 57.159
    endloop
  endfacet
  facet normal 0.203368 -0.913545 -0.352244
    outer loop
      vertex 20 9.59306 57.6833
      vertex 20.8307 10.535 55.7201
      vertex 29.5776 10.535 60.7701
    endloop
  endfacet
  facet normal 0.433013 -0.5 -0.75
    outer loop
      vertex 20 6.51097 61.6358
      vertex 26.2294 4.50547 66.5694
      vertex 20 4.50547 62.9728
    endloop
  endfacet
  facet normal 0.433012 -0.500002 -0.749999
    outer loop
      vertex 26.2294 4.50547 66.5694
      vertex 20 6.51097 61.6358
      vertex 26.8083 6.51097 65.5666
    endloop
  endfacet
  facet normal -0.497261 0.104529 0.861281
    outer loop
      vertex 28.0808 0 43.1626
      vertex 36.7066 -2.30306 48.4222
      vertex 36.8277 0 48.2126
    endloop
  endfacet
  facet normal -0.497261 0.104529 0.861281
    outer loop
      vertex 36.7066 -2.30306 48.4222
      vertex 28.0808 0 43.1626
      vertex 27.9598 -2.30306 43.3722
    endloop
  endfacet
  facet normal -0.371572 -0.669131 0.643582
    outer loop
      vertex 26.2483 8.2319 46.3367
      vertex 35.7699 6.51097 50.0447
      vertex 34.9951 8.2319 51.3867
    endloop
  endfacet
  facet normal -0.371572 -0.66913 0.643582
    outer loop
      vertex 35.7699 6.51097 50.0447
      vertex 26.2483 8.2319 46.3367
      vertex 27.023 6.51097 44.9947
    endloop
  endfacet
  facet normal 0 -1 0
    outer loop
      vertex 21.9633 11.0164 53.7584
      vertex 31.868 11.0164 56.8029
      vertex 30.7102 11.0164 58.8084
    endloop
  endfacet
  facet normal 0 -1 0
    outer loop
      vertex 31.868 11.0164 56.8029
      vertex 21.9633 11.0164 53.7584
      vertex 23.1212 11.0164 51.7529
    endloop
  endfacet
  facet normal -0.293893 -0.809017 0.509037
    outer loop
      vertex 25.3115 9.59306 47.9591
      vertex 34.9951 8.2319 51.3867
      vertex 34.0584 9.59306 53.0091
    endloop
  endfacet
  facet normal -0.293893 -0.809017 0.509037
    outer loop
      vertex 34.9951 8.2319 51.3867
      vertex 25.3115 9.59306 47.9591
      vertex 26.2483 8.2319 46.3367
    endloop
  endfacet
  facet normal 0.497261 -0.104528 -0.861281
    outer loop
      vertex 20 2.30306 63.7991
      vertex 25.7506 0 67.3987
      vertex 20 0 64.0787
    endloop
  endfacet
  facet normal 0.497261 -0.104529 -0.861281
    outer loop
      vertex 25.7506 0 67.3987
      vertex 20 2.30306 63.7991
      vertex 25.8716 2.30306 67.1891
    endloop
  endfacet
  facet normal 0.293893 -0.809017 -0.509037
    outer loop
      vertex 20 8.2319 59.8466
      vertex 28.5198 9.59306 62.6022
      vertex 27.5831 8.2319 64.2247
    endloop
  endfacet
  facet normal 0.293893 -0.809017 -0.509037
    outer loop
      vertex 28.5198 9.59306 62.6022
      vertex 20 8.2319 59.8466
      vertex 20 9.59306 57.6833
    endloop
  endfacet
  facet normal 0.103956 -0.978148 -0.180057
    outer loop
      vertex 20.8307 10.535 55.7201
      vertex 30.7102 11.0164 58.8084
      vertex 29.5776 10.535 60.7701
    endloop
  endfacet
  facet normal 0.103956 -0.978148 -0.180057
    outer loop
      vertex 30.7102 11.0164 58.8084
      vertex 20.8307 10.535 55.7201
      vertex 21.9633 11.0164 53.7584
    endloop
  endfacet
  facet normal 0.371573 -0.66913 -0.643583
    outer loop
      vertex 20 6.51097 61.6358
      vertex 27.5831 8.2319 64.2247
      vertex 26.8083 6.51097 65.5666
    endloop
  endfacet
  facet normal 0.371572 -0.669131 -0.643582
    outer loop
      vertex 27.5831 8.2319 64.2247
      vertex 20 6.51097 61.6358
      vertex 20 8.2319 59.8466
    endloop
  endfacet
  facet normal -0.497261 -0.104529 0.861281
    outer loop
      vertex 36.7066 2.30306 48.4222
      vertex 28.0808 0 43.1626
      vertex 36.8277 0 48.2126
    endloop
  endfacet
  facet normal -0.497261 -0.104529 0.861281
    outer loop
      vertex 28.0808 0 43.1626
      vertex 36.7066 2.30306 48.4222
      vertex 27.9598 2.30306 43.3722
    endloop
  endfacet
  facet normal -0.293893 0.809017 0.509037
    outer loop
      vertex 34.9951 -8.2319 51.3867
      vertex 25.3115 -9.59306 47.9591
      vertex 34.0584 -9.59306 53.0091
    endloop
  endfacet
  facet normal -0.293893 0.809017 0.509037
    outer loop
      vertex 25.3115 -9.59306 47.9591
      vertex 34.9951 -8.2319 51.3867
      vertex 26.2483 -8.2319 46.3367
    endloop
  endfacet
  facet normal -0.475528 0.309017 0.823639
    outer loop
      vertex 27.9598 -2.30306 43.3722
      vertex 36.3488 -4.50547 49.042
      vertex 36.7066 -2.30306 48.4222
    endloop
  endfacet
  facet normal -0.475528 0.309017 0.823639
    outer loop
      vertex 36.3488 -4.50547 49.042
      vertex 27.9598 -2.30306 43.3722
      vertex 27.602 -4.50547 43.992
    endloop
  endfacet
  facet normal 0.103956 0.978148 -0.180057
    outer loop
      vertex 30.7102 -11.0164 58.8084
      vertex 20.8307 -10.535 55.7201
      vertex 29.5776 -10.535 60.7701
    endloop
  endfacet
  facet normal 0.103956 0.978148 -0.180057
    outer loop
      vertex 20.8307 -10.535 55.7201
      vertex 30.7102 -11.0164 58.8084
      vertex 21.9633 -11.0164 53.7584
    endloop
  endfacet
  facet normal 0.497261 0.104529 -0.861281
    outer loop
      vertex 20 -2.30306 63.7991
      vertex 25.7506 0 67.3987
      vertex 25.8716 -2.30306 67.1891
    endloop
  endfacet
  facet normal 0.497261 0.104528 -0.861281
    outer loop
      vertex 25.7506 0 67.3987
      vertex 20 -2.30306 63.7991
      vertex 20 0 64.0787
    endloop
  endfacet
  facet normal 0.433012 0.500002 -0.749999
    outer loop
      vertex 20 -6.51097 61.6358
      vertex 26.2294 -4.50547 66.5694
      vertex 26.8083 -6.51097 65.5666
    endloop
  endfacet
  facet normal 0.433013 0.5 -0.75
    outer loop
      vertex 26.2294 -4.50547 66.5694
      vertex 20 -6.51097 61.6358
      vertex 20 -4.50547 62.9728
    endloop
  endfacet
  facet normal -0.103956 0.978148 0.180057
    outer loop
      vertex 33.0006 -10.535 54.8413
      vertex 23.1212 -11.0164 51.7529
      vertex 31.868 -11.0164 56.8029
    endloop
  endfacet
  facet normal -0.103956 0.978148 0.180057
    outer loop
      vertex 23.1212 -11.0164 51.7529
      vertex 33.0006 -10.535 54.8413
      vertex 24.2538 -10.535 49.7913
    endloop
  endfacet
  facet normal -0.203368 0.913545 0.352244
    outer loop
      vertex 34.0584 -9.59306 53.0091
      vertex 24.2538 -10.535 49.7913
      vertex 33.0006 -10.535 54.8413
    endloop
  endfacet
  facet normal -0.203368 0.913545 0.352244
    outer loop
      vertex 24.2538 -10.535 49.7913
      vertex 34.0584 -9.59306 53.0091
      vertex 25.3115 -9.59306 47.9591
    endloop
  endfacet
  facet normal -0.371572 0.669131 0.643582
    outer loop
      vertex 35.7699 -6.51097 50.0447
      vertex 26.2483 -8.2319 46.3367
      vertex 34.9951 -8.2319 51.3867
    endloop
  endfacet
  facet normal -0.371572 0.66913 0.643582
    outer loop
      vertex 26.2483 -8.2319 46.3367
      vertex 35.7699 -6.51097 50.0447
      vertex 27.023 -6.51097 44.9947
    endloop
  endfacet
  facet normal -0.433013 0.5 0.75
    outer loop
      vertex 27.602 -4.50547 43.992
      vertex 35.7699 -6.51097 50.0447
      vertex 36.3488 -4.50547 49.042
    endloop
  endfacet
  facet normal -0.433013 0.5 0.75
    outer loop
      vertex 35.7699 -6.51097 50.0447
      vertex 27.602 -4.50547 43.992
      vertex 27.023 -6.51097 44.9947
    endloop
  endfacet
  facet normal 0 1 0
    outer loop
      vertex 31.868 -11.0164 56.8029
      vertex 21.9633 -11.0164 53.7584
      vertex 30.7102 -11.0164 58.8084
    endloop
  endfacet
  facet normal -0 1 0
    outer loop
      vertex 21.9633 -11.0164 53.7584
      vertex 31.868 -11.0164 56.8029
      vertex 23.1212 -11.0164 51.7529
    endloop
  endfacet
  facet normal 0.293893 0.809017 -0.509037
    outer loop
      vertex 28.5198 -9.59306 62.6022
      vertex 20 -8.2319 59.8466
      vertex 27.5831 -8.2319 64.2247
    endloop
  endfacet
  facet normal 0.293893 0.809017 -0.509037
    outer loop
      vertex 20 -8.2319 59.8466
      vertex 28.5198 -9.59306 62.6022
      vertex 20 -9.59306 57.6833
    endloop
  endfacet
  facet normal 0.866026 -2.92588e-06 0.499999
    outer loop
      vertex 20 9.79522 57.159
      vertex 21.9633 11.0164 53.7584
      vertex 20.8307 10.535 55.7201
    endloop
  endfacet
  facet normal 0.866025 1.28231e-06 0.5
    outer loop
      vertex 21.9633 11.0164 53.7584
      vertex 20 9.79522 57.159
      vertex 23.1212 11.0164 51.7529
    endloop
  endfacet
  facet normal 0.866026 -2.85464e-06 0.5
    outer loop
      vertex 23.1212 11.0164 51.7529
      vertex 20 9.79522 57.159
      vertex 24.2538 10.535 49.7913
    endloop
  endfacet
  facet normal 0.866025 1.56147e-06 0.5
    outer loop
      vertex 20 9.79522 57.159
      vertex 25.3115 9.59306 47.9591
      vertex 24.2538 10.535 49.7913
    endloop
  endfacet
  facet normal 0.866025 -1.10252e-06 0.5
    outer loop
      vertex 20 9.79522 57.159
      vertex 26.2483 8.2319 46.3367
      vertex 25.3115 9.59306 47.9591
    endloop
  endfacet
  facet normal 0.866025 4.02777e-07 0.5
    outer loop
      vertex 20 9.79522 57.159
      vertex 27.023 6.51097 44.9947
      vertex 26.2483 8.2319 46.3367
    endloop
  endfacet
  facet normal 0.866026 7.88978e-07 0.5
    outer loop
      vertex 20 9.79522 57.159
      vertex 27.602 4.50547 43.992
      vertex 27.023 6.51097 44.9947
    endloop
  endfacet
  facet normal 0.866025 -4.35189e-07 0.5
    outer loop
      vertex 20 9.79522 57.159
      vertex 27.9598 2.30306 43.3722
      vertex 27.602 4.50547 43.992
    endloop
  endfacet
  facet normal 0.866025 -3.11092e-07 0.5
    outer loop
      vertex 20 9.79522 57.159
      vertex 28.0808 0 43.1626
      vertex 27.9598 2.30306 43.3722
    endloop
  endfacet
  facet normal 0.866025 -0 0.5
    outer loop
      vertex 20 -9.79522 57.159
      vertex 28.0808 0 43.1626
      vertex 20 9.79522 57.159
    endloop
  endfacet
  facet normal 0.866025 3.11092e-07 0.5
    outer loop
      vertex 28.0808 0 43.1626
      vertex 20 -9.79522 57.159
      vertex 27.9598 -2.30306 43.3722
    endloop
  endfacet
  facet normal 0.866025 4.35189e-07 0.5
    outer loop
      vertex 27.9598 -2.30306 43.3722
      vertex 20 -9.79522 57.159
      vertex 27.602 -4.50547 43.992
    endloop
  endfacet
  facet normal 0.866026 -7.88978e-07 0.5
    outer loop
      vertex 27.602 -4.50547 43.992
      vertex 20 -9.79522 57.159
      vertex 27.023 -6.51097 44.9947
    endloop
  endfacet
  facet normal 0.866025 -4.02777e-07 0.5
    outer loop
      vertex 27.023 -6.51097 44.9947
      vertex 20 -9.79522 57.159
      vertex 26.2483 -8.2319 46.3367
    endloop
  endfacet
  facet normal 0.866025 1.10252e-06 0.5
    outer loop
      vertex 26.2483 -8.2319 46.3367
      vertex 20 -9.79522 57.159
      vertex 25.3115 -9.59306 47.9591
    endloop
  endfacet
  facet normal 0.866026 2.92588e-06 0.499999
    outer loop
      vertex 21.9633 -11.0164 53.7584
      vertex 20 -9.79522 57.159
      vertex 20.8307 -10.535 55.7201
    endloop
  endfacet
  facet normal 0.866025 -1.56147e-06 0.5
    outer loop
      vertex 20 -9.79522 57.159
      vertex 24.2538 -10.535 49.7913
      vertex 25.3115 -9.59306 47.9591
    endloop
  endfacet
  facet normal 0.866026 7.24368e-07 0.5
    outer loop
      vertex 20 -9.79522 57.159
      vertex 21.9633 -11.0164 53.7584
      vertex 24.2538 -10.535 49.7913
    endloop
  endfacet
  facet normal 0.866025 6.66222e-06 0.5
    outer loop
      vertex 24.2538 -10.535 49.7913
      vertex 21.9633 -11.0164 53.7584
      vertex 23.1212 -11.0164 51.7529
    endloop
  endfacet
  facet normal 0.475529 0.309015 -0.82364
    outer loop
      vertex 20 -4.50547 62.9728
      vertex 25.8716 -2.30306 67.1891
      vertex 26.2294 -4.50547 66.5694
    endloop
  endfacet
  facet normal 0.475528 0.309017 -0.823639
    outer loop
      vertex 25.8716 -2.30306 67.1891
      vertex 20 -4.50547 62.9728
      vertex 20 -2.30306 63.7991
    endloop
  endfacet
  facet normal 0.371573 0.66913 -0.643583
    outer loop
      vertex 27.5831 -8.2319 64.2247
      vertex 20 -6.51097 61.6358
      vertex 26.8083 -6.51097 65.5666
    endloop
  endfacet
  facet normal 0.371572 0.669131 -0.643582
    outer loop
      vertex 20 -6.51097 61.6358
      vertex 27.5831 -8.2319 64.2247
      vertex 20 -8.2319 59.8466
    endloop
  endfacet
  facet normal 0.203368 0.913545 -0.352244
    outer loop
      vertex 29.5776 -10.535 60.7701
      vertex 20 -9.59306 57.6833
      vertex 28.5198 -9.59306 62.6022
    endloop
  endfacet
  facet normal 0.203368 0.913545 -0.352244
    outer loop
      vertex 20.8307 -10.535 55.7201
      vertex 20 -9.59306 57.6833
      vertex 29.5776 -10.535 60.7701
    endloop
  endfacet
  facet normal 0.203369 0.913545 -0.352244
    outer loop
      vertex 20 -9.59306 57.6833
      vertex 20.8307 -10.535 55.7201
      vertex 20 -9.79522 57.159
    endloop
  endfacet
  facet normal 0.258819 3.99056e-08 0.965926
    outer loop
      vertex 14.2613 3.03133 79.0008
      vertex 32.1561 2.9268 74.2059
      vertex 19.4196 12.754 77.6186
    endloop
  endfacet
  facet normal 0.258819 4.32201e-07 0.965926
    outer loop
      vertex 33.3984 5.72568 73.873
      vertex 19.4196 12.754 77.6186
      vertex 32.1561 2.9268 74.2059
    endloop
  endfacet
  facet normal 0.258819 -4.50181e-07 0.965926
    outer loop
      vertex 35.4085 8.27432 73.3344
      vertex 19.4196 12.754 77.6186
      vertex 33.3984 5.72568 73.873
    endloop
  endfacet
  facet normal 0.258819 -1.74817e-06 0.965926
    outer loop
      vertex 38.0984 10.4613 72.6137
      vertex 19.4196 12.754 77.6186
      vertex 35.4085 8.27432 73.3344
    endloop
  endfacet
  facet normal 0.258819 5.15905e-07 0.965926
    outer loop
      vertex 41.3508 12.1911 71.7422
      vertex 19.4196 12.754 77.6186
      vertex 38.0984 10.4613 72.6137
    endloop
  endfacet
  facet normal 0.258819 4.6084e-06 0.965926
    outer loop
      vertex 19.4196 12.754 77.6186
      vertex 41.3508 12.1911 71.7422
      vertex 43.0778 12.754 71.2794
    endloop
  endfacet
  facet normal 0.258819 -4.5102e-07 0.965926
    outer loop
      vertex 32.1561 2.9268 74.2059
      vertex 14.2613 3.03133 79.0008
      vertex 31.7359 0 74.3185
    endloop
  endfacet
  facet normal 0.258819 -9.90266e-07 0.965926
    outer loop
      vertex 14.5799 0 78.9154
      vertex 31.7359 0 74.3185
      vertex 14.2613 3.03133 79.0008
    endloop
  endfacet
  facet normal 0.258819 -4.6084e-06 0.965926
    outer loop
      vertex 41.3508 -12.1911 71.7422
      vertex 19.4196 -12.754 77.6186
      vertex 43.0778 -12.754 71.2794
    endloop
  endfacet
  facet normal 0.258819 -5.15905e-07 0.965926
    outer loop
      vertex 38.0984 -10.4613 72.6137
      vertex 19.4196 -12.754 77.6186
      vertex 41.3508 -12.1911 71.7422
    endloop
  endfacet
  facet normal 0.258819 1.74817e-06 0.965926
    outer loop
      vertex 35.4085 -8.27432 73.3344
      vertex 19.4196 -12.754 77.6186
      vertex 38.0984 -10.4613 72.6137
    endloop
  endfacet
  facet normal 0.258819 4.50181e-07 0.965926
    outer loop
      vertex 33.3984 -5.72568 73.873
      vertex 19.4196 -12.754 77.6186
      vertex 35.4085 -8.27432 73.3344
    endloop
  endfacet
  facet normal 0.258819 9.90266e-07 0.965926
    outer loop
      vertex 14.2613 -3.03133 79.0008
      vertex 31.7359 0 74.3185
      vertex 14.5799 0 78.9154
    endloop
  endfacet
  facet normal 0.258819 -3.99056e-08 0.965926
    outer loop
      vertex 19.4196 -12.754 77.6186
      vertex 32.1561 -2.9268 74.2059
      vertex 14.2613 -3.03133 79.0008
    endloop
  endfacet
  facet normal 0.258819 4.5102e-07 0.965926
    outer loop
      vertex 31.7359 0 74.3185
      vertex 14.2613 -3.03133 79.0008
      vertex 32.1561 -2.9268 74.2059
    endloop
  endfacet
  facet normal 0.25882 -2.2135e-07 0.965926
    outer loop
      vertex 19.4196 12.754 77.6186
      vertex 13.3194 5.93017 79.2532
      vertex 14.2613 3.03133 79.0008
    endloop
  endfacet
  facet normal 0.258819 5.07668e-07 0.965926
    outer loop
      vertex 19.4196 12.754 77.6186
      vertex 11.7954 8.56983 79.6615
      vertex 13.3194 5.93017 79.2532
    endloop
  endfacet
  facet normal 0.258819 1.02557e-06 0.965926
    outer loop
      vertex 19.4196 12.754 77.6186
      vertex 9.75584 10.835 80.208
      vertex 11.7954 8.56983 79.6615
    endloop
  endfacet
  facet normal 0.258819 -1.17636e-07 0.965926
    outer loop
      vertex 19.4196 12.754 77.6186
      vertex 7.28993 12.6265 80.8688
      vertex 9.75584 10.835 80.208
    endloop
  endfacet
  facet normal 0.258819 -3.62907e-05 0.965926
    outer loop
      vertex 7.28993 12.6265 80.8688
      vertex 19.4196 12.754 77.6186
      vertex 7.0036 12.754 80.9455
    endloop
  endfacet
  facet normal 0.258819 -4.32201e-07 0.965926
    outer loop
      vertex 32.1561 -2.9268 74.2059
      vertex 19.4196 -12.754 77.6186
      vertex 33.3984 -5.72568 73.873
    endloop
  endfacet
  facet normal 0.25882 2.2135e-07 0.965926
    outer loop
      vertex 13.3194 -5.93017 79.2532
      vertex 19.4196 -12.754 77.6186
      vertex 14.2613 -3.03133 79.0008
    endloop
  endfacet
  facet normal 0.258819 -5.07668e-07 0.965926
    outer loop
      vertex 11.7954 -8.56983 79.6615
      vertex 19.4196 -12.754 77.6186
      vertex 13.3194 -5.93017 79.2532
    endloop
  endfacet
  facet normal 0.258819 -1.02557e-06 0.965926
    outer loop
      vertex 9.75584 -10.835 80.208
      vertex 19.4196 -12.754 77.6186
      vertex 11.7954 -8.56983 79.6615
    endloop
  endfacet
  facet normal 0.258819 1.17636e-07 0.965926
    outer loop
      vertex 7.28993 -12.6265 80.8688
      vertex 19.4196 -12.754 77.6186
      vertex 9.75584 -10.835 80.208
    endloop
  endfacet
  facet normal 0.258819 3.62907e-05 0.965926
    outer loop
      vertex 19.4196 -12.754 77.6186
      vertex 7.28993 -12.6265 80.8688
      vertex 7.0036 -12.754 80.9455
    endloop
  endfacet
  facet normal 0.258812 0 0.965928
    outer loop
      vertex 80 12.754 61.3862
      vertex 79.9222 9.60412 61.407
      vertex 80 9.66739 61.3862
    endloop
  endfacet
  facet normal 0.25882 -2.24311e-07 0.965925
    outer loop
      vertex 80 12.754 61.3862
      vertex 77.5891 6.64588 62.0322
      vertex 79.9222 9.60412 61.407
    endloop
  endfacet
  facet normal 0.258819 2.99599e-07 0.965926
    outer loop
      vertex 66.5228 8.27432 64.9974
      vertex 77.5891 6.64588 62.0322
      vertex 80 12.754 61.3862
    endloop
  endfacet
  facet normal 0.258819 -5.41885e-07 0.965926
    outer loop
      vertex 69.7751 2.9268 64.1259
      vertex 75.6594 0 62.5492
      vertex 76.1472 3.39717 62.4185
    endloop
  endfacet
  facet normal 0.258819 -2.63717e-07 0.965926
    outer loop
      vertex 77.5891 6.64588 62.0322
      vertex 68.5328 5.72568 64.4588
      vertex 76.1472 3.39717 62.4185
    endloop
  endfacet
  facet normal 0.258819 3.04657e-07 0.965926
    outer loop
      vertex 75.6594 0 62.5492
      vertex 69.7751 2.9268 64.1259
      vertex 70.1953 0 64.0133
    endloop
  endfacet
  facet normal 0.258819 -1.02275e-06 0.965926
    outer loop
      vertex 76.1472 3.39717 62.4185
      vertex 68.5328 5.72568 64.4588
      vertex 69.7751 2.9268 64.1259
    endloop
  endfacet
  facet normal 0.258819 4.99444e-07 0.965926
    outer loop
      vertex 77.5891 6.64588 62.0322
      vertex 66.5228 8.27432 64.9974
      vertex 68.5328 5.72568 64.4588
    endloop
  endfacet
  facet normal 0.258819 1.67417e-06 0.965926
    outer loop
      vertex 80 12.754 61.3862
      vertex 63.8328 10.4613 65.7181
      vertex 66.5228 8.27432 64.9974
    endloop
  endfacet
  facet normal 0.258819 -5.56715e-07 0.965926
    outer loop
      vertex 80 12.754 61.3862
      vertex 60.5805 12.1911 66.5896
      vertex 63.8328 10.4613 65.7181
    endloop
  endfacet
  facet normal 0.258819 -4.63462e-06 0.965926
    outer loop
      vertex 60.5805 12.1911 66.5896
      vertex 80 12.754 61.3862
      vertex 58.8534 12.754 67.0524
    endloop
  endfacet
  facet normal 0.258812 0 0.965928
    outer loop
      vertex 79.9222 -9.60412 61.407
      vertex 80 -12.754 61.3862
      vertex 80 -9.66739 61.3862
    endloop
  endfacet
  facet normal 0.25882 2.24311e-07 0.965925
    outer loop
      vertex 77.5891 -6.64588 62.0322
      vertex 80 -12.754 61.3862
      vertex 79.9222 -9.60412 61.407
    endloop
  endfacet
  facet normal 0.258819 2.63717e-07 0.965926
    outer loop
      vertex 68.5328 -5.72568 64.4588
      vertex 77.5891 -6.64588 62.0322
      vertex 76.1472 -3.39717 62.4185
    endloop
  endfacet
  facet normal 0.258819 -3.04657e-07 0.965926
    outer loop
      vertex 69.7751 -2.9268 64.1259
      vertex 75.6594 0 62.5492
      vertex 70.1953 0 64.0133
    endloop
  endfacet
  facet normal 0.258819 5.41885e-07 0.965926
    outer loop
      vertex 75.6594 0 62.5492
      vertex 69.7751 -2.9268 64.1259
      vertex 76.1472 -3.39717 62.4185
    endloop
  endfacet
  facet normal 0.258819 1.02275e-06 0.965926
    outer loop
      vertex 68.5328 -5.72568 64.4588
      vertex 76.1472 -3.39717 62.4185
      vertex 69.7751 -2.9268 64.1259
    endloop
  endfacet
  facet normal 0.258819 -4.99444e-07 0.965926
    outer loop
      vertex 66.5228 -8.27432 64.9974
      vertex 77.5891 -6.64588 62.0322
      vertex 68.5328 -5.72568 64.4588
    endloop
  endfacet
  facet normal 0.258819 -2.99599e-07 0.965926
    outer loop
      vertex 77.5891 -6.64588 62.0322
      vertex 66.5228 -8.27432 64.9974
      vertex 80 -12.754 61.3862
    endloop
  endfacet
  facet normal 0.258819 -1.67417e-06 0.965926
    outer loop
      vertex 63.8328 -10.4613 65.7181
      vertex 80 -12.754 61.3862
      vertex 66.5228 -8.27432 64.9974
    endloop
  endfacet
  facet normal 0.258819 5.56715e-07 0.965926
    outer loop
      vertex 60.5805 -12.1911 66.5896
      vertex 80 -12.754 61.3862
      vertex 63.8328 -10.4613 65.7181
    endloop
  endfacet
  facet normal 0.258819 4.63462e-06 0.965926
    outer loop
      vertex 80 -12.754 61.3862
      vertex 60.5805 -12.1911 66.5896
      vertex 58.8534 -12.754 67.0524
    endloop
  endfacet
  facet normal 0 1 -0
    outer loop
      vertex 80 20.3395 40
      vertex 79.6281 20.3395 53.6327
      vertex 80 20.3395 53.5331
    endloop
  endfacet
  facet normal 0 1 0
    outer loop
      vertex 79.6281 20.3395 53.6327
      vertex 20 20.3395 50
      vertex 20 20.3395 69.61
    endloop
  endfacet
  facet normal 0 1 0
    outer loop
      vertex 1 20.3395 40
      vertex 20 20.3395 50
      vertex 80 20.3395 40
    endloop
  endfacet
  facet normal 0 1 0
    outer loop
      vertex 79.6281 20.3395 53.6327
      vertex 80 20.3395 40
      vertex 20 20.3395 50
    endloop
  endfacet
  facet normal 0 1 -0
    outer loop
      vertex 15 20.3395 70
      vertex 1 20.3395 74.7011
      vertex 18.5446 20.3395 70
    endloop
  endfacet
  facet normal 0 1 -0
    outer loop
      vertex 15 20.3395 50
      vertex 1 20.3395 74.7011
      vertex 15 20.3395 70
    endloop
  endfacet
  facet normal 0 1 0
    outer loop
      vertex 15 20.3395 50
      vertex 1 20.3395 40
      vertex 1 20.3395 74.7011
    endloop
  endfacet
  facet normal 0 1 0
    outer loop
      vertex 20 20.3395 50
      vertex 1 20.3395 40
      vertex 15 20.3395 50
    endloop
  endfacet
  facet normal 0 -1 0
    outer loop
      vertex 1 -20.3395 74.7011
      vertex 15 -20.3395 50
      vertex 15 -20.3395 70
    endloop
  endfacet
  facet normal 0 -1 -0
    outer loop
      vertex 15 -20.3395 50
      vertex 1 -20.3395 40
      vertex 20 -20.3395 50
    endloop
  endfacet
  facet normal 0 -1 0
    outer loop
      vertex 1 -20.3395 40
      vertex 15 -20.3395 50
      vertex 1 -20.3395 74.7011
    endloop
  endfacet
  facet normal 0 -1 0
    outer loop
      vertex 1 -20.3395 74.7011
      vertex 15 -20.3395 70
      vertex 18.5446 -20.3395 70
    endloop
  endfacet
  facet normal 0 -1 0
    outer loop
      vertex 20 -20.3395 50
      vertex 79.6281 -20.3395 53.6327
      vertex 20 -20.3395 69.61
    endloop
  endfacet
  facet normal 0 -1 0
    outer loop
      vertex 80 -20.3395 40
      vertex 79.6281 -20.3395 53.6327
      vertex 20 -20.3395 50
    endloop
  endfacet
  facet normal 0 -1 0
    outer loop
      vertex 80 -20.3395 40
      vertex 20 -20.3395 50
      vertex 1 -20.3395 40
    endloop
  endfacet
  facet normal 0 -1 0
    outer loop
      vertex 79.6281 -20.3395 53.6327
      vertex 80 -20.3395 40
      vertex 80 -20.3395 53.5331
    endloop
  endfacet
  facet normal -1 0 0
    outer loop
      vertex 1 14.5 40
      vertex 1 20.3395 74.7011
      vertex 1 20.3395 40
    endloop
  endfacet
  facet normal -1 -0 0
    outer loop
      vertex 1 20.3395 74.7011
      vertex 1 14.5 40
      vertex 1 14.5 80.7466
    endloop
  endfacet
  facet normal -1 0 0
    outer loop
      vertex 1 -20.3395 74.7011
      vertex 1 -14.5 40
      vertex 1 -20.3395 40
    endloop
  endfacet
  facet normal -1 0 0
    outer loop
      vertex 1 -14.5 40
      vertex 1 -20.3395 74.7011
      vertex 1 -14.5 80.7466
    endloop
  endfacet
  facet normal 0 0 -1
    outer loop
      vertex 80 -20.3395 40
      vertex 79.3804 -15.5398 40
      vertex 80 -15.4019 40
    endloop
  endfacet
  facet normal 0 0 -1
    outer loop
      vertex 80 -20.3395 40
      vertex 75.5244 -15.9496 40
      vertex 79.3804 -15.5398 40
    endloop
  endfacet
  facet normal 0 0 -1
    outer loop
      vertex 80 -20.3395 40
      vertex 72.6979 -16.25 40
      vertex 75.5244 -15.9496 40
    endloop
  endfacet
  facet normal 0 0 -1
    outer loop
      vertex 80 -20.3395 40
      vertex 65.8661 -16.25 40
      vertex 72.6979 -16.25 40
    endloop
  endfacet
  facet normal 0 0 -1
    outer loop
      vertex 80 -20.3395 40
      vertex 59.1837 -15.5398 40
      vertex 65.8661 -16.25 40
    endloop
  endfacet
  facet normal 0 0 -1
    outer loop
      vertex 1 -20.3395 40
      vertex 59.1837 -15.5398 40
      vertex 80 -20.3395 40
    endloop
  endfacet
  facet normal 0 0 -1
    outer loop
      vertex 14.2613 -3.03133 40
      vertex 36.603 0 40
      vertex 37.3171 -3.39717 40
    endloop
  endfacet
  facet normal 0 0 -1
    outer loop
      vertex 13.3194 -5.93017 40
      vertex 37.3171 -3.39717 40
      vertex 39.4283 -6.64588 40
    endloop
  endfacet
  facet normal 0 0 -1
    outer loop
      vertex 9.75584 -10.835 40
      vertex 39.4283 -6.64588 40
      vertex 42.8442 -9.60412 40
    endloop
  endfacet
  facet normal 0 0 -1
    outer loop
      vertex 1 -20.3395 40
      vertex 42.8442 -9.60412 40
      vertex 47.4155 -12.1426 40
    endloop
  endfacet
  facet normal -0 0 -1
    outer loop
      vertex 36.603 0 40
      vertex 14.2613 -3.03133 40
      vertex 14.5799 0 40
    endloop
  endfacet
  facet normal 0 0 -1
    outer loop
      vertex 1 -20.3395 40
      vertex 47.4155 -12.1426 40
      vertex 52.9425 -14.1504 40
    endloop
  endfacet
  facet normal -0 0 -1
    outer loop
      vertex 37.3171 -3.39717 40
      vertex 13.3194 -5.93017 40
      vertex 14.2613 -3.03133 40
    endloop
  endfacet
  facet normal -0 0 -1
    outer loop
      vertex 59.1837 -15.5398 40
      vertex 1 -20.3395 40
      vertex 52.9425 -14.1504 40
    endloop
  endfacet
  facet normal -0 0 -1
    outer loop
      vertex 39.4283 -6.64588 40
      vertex 11.7954 -8.56983 40
      vertex 13.3194 -5.93017 40
    endloop
  endfacet
  facet normal 0 0 -1
    outer loop
      vertex 39.4283 -6.64588 40
      vertex 9.75584 -10.835 40
      vertex 11.7954 -8.56983 40
    endloop
  endfacet
  facet normal 0 0 -1
    outer loop
      vertex 42.8442 -9.60412 40
      vertex 1 -20.3395 40
      vertex 9.75584 -10.835 40
    endloop
  endfacet
  facet normal 0 0 -1
    outer loop
      vertex 9.75584 -10.835 40
      vertex 1 -20.3395 40
      vertex 7.28993 -12.6265 40
    endloop
  endfacet
  facet normal 0 0 -1
    outer loop
      vertex 7.28993 -12.6265 40
      vertex 1 -20.3395 40
      vertex 4.50543 -13.8663 40
    endloop
  endfacet
  facet normal 0 0 -1
    outer loop
      vertex 4.50543 -13.8663 40
      vertex 1 -20.3395 40
      vertex 1.52401 -14.5 40
    endloop
  endfacet
  facet normal -0 0 -1
    outer loop
      vertex 1.52401 -14.5 40
      vertex 1 -20.3395 40
      vertex 1 -14.5 40
    endloop
  endfacet
  facet normal 0 0 -1
    outer loop
      vertex 79.3804 15.5398 40
      vertex 80 20.3395 40
      vertex 80 15.4019 40
    endloop
  endfacet
  facet normal 0 0 -1
    outer loop
      vertex 75.5244 15.9496 40
      vertex 80 20.3395 40
      vertex 79.3804 15.5398 40
    endloop
  endfacet
  facet normal 0 0 -1
    outer loop
      vertex 72.6979 16.25 40
      vertex 80 20.3395 40
      vertex 75.5244 15.9496 40
    endloop
  endfacet
  facet normal 0 0 -1
    outer loop
      vertex 65.8661 16.25 40
      vertex 80 20.3395 40
      vertex 72.6979 16.25 40
    endloop
  endfacet
  facet normal 0 0 -1
    outer loop
      vertex 59.1837 15.5398 40
      vertex 80 20.3395 40
      vertex 65.8661 16.25 40
    endloop
  endfacet
  facet normal 0 0 -1
    outer loop
      vertex 1 20.3395 40
      vertex 59.1837 15.5398 40
      vertex 52.9425 14.1504 40
    endloop
  endfacet
  facet normal 0 0 -1
    outer loop
      vertex 14.2613 3.03133 40
      vertex 36.603 0 40
      vertex 14.5799 0 40
    endloop
  endfacet
  facet normal 0 0 -1
    outer loop
      vertex 36.603 0 40
      vertex 14.2613 3.03133 40
      vertex 37.3171 3.39717 40
    endloop
  endfacet
  facet normal 0 0 -1
    outer loop
      vertex 13.3194 5.93017 40
      vertex 37.3171 3.39717 40
      vertex 14.2613 3.03133 40
    endloop
  endfacet
  facet normal 0 0 -1
    outer loop
      vertex 37.3171 3.39717 40
      vertex 13.3194 5.93017 40
      vertex 39.4283 6.64588 40
    endloop
  endfacet
  facet normal 0 0 -1
    outer loop
      vertex 11.7954 8.56983 40
      vertex 39.4283 6.64588 40
      vertex 13.3194 5.93017 40
    endloop
  endfacet
  facet normal 0 0 -1
    outer loop
      vertex 9.75584 10.835 40
      vertex 39.4283 6.64588 40
      vertex 11.7954 8.56983 40
    endloop
  endfacet
  facet normal 0 0 -1
    outer loop
      vertex 39.4283 6.64588 40
      vertex 9.75584 10.835 40
      vertex 42.8442 9.60412 40
    endloop
  endfacet
  facet normal 0 0 -1
    outer loop
      vertex 1 20.3395 40
      vertex 42.8442 9.60412 40
      vertex 9.75584 10.835 40
    endloop
  endfacet
  facet normal 0 0 -1
    outer loop
      vertex 42.8442 9.60412 40
      vertex 1 20.3395 40
      vertex 47.4155 12.1426 40
    endloop
  endfacet
  facet normal 0 0 -1
    outer loop
      vertex 47.4155 12.1426 40
      vertex 1 20.3395 40
      vertex 52.9425 14.1504 40
    endloop
  endfacet
  facet normal 0 0 -1
    outer loop
      vertex 1 20.3395 40
      vertex 9.75584 10.835 40
      vertex 7.28993 12.6265 40
    endloop
  endfacet
  facet normal 0 0 -1
    outer loop
      vertex 1 20.3395 40
      vertex 7.28993 12.6265 40
      vertex 4.50543 13.8663 40
    endloop
  endfacet
  facet normal 0 0 -1
    outer loop
      vertex 1 20.3395 40
      vertex 4.50543 13.8663 40
      vertex 1.52401 14.5 40
    endloop
  endfacet
  facet normal 0 0 -1
    outer loop
      vertex 1 20.3395 40
      vertex 1.52401 14.5 40
      vertex 1 14.5 40
    endloop
  endfacet
  facet normal 0 0 -1
    outer loop
      vertex 59.1837 15.5398 40
      vertex 1 20.3395 40
      vertex 80 20.3395 40
    endloop
  endfacet
  facet normal 1 -0 0
    outer loop
      vertex 15 -20.3395 70
      vertex 15 20.3395 50
      vertex 15 20.3395 70
    endloop
  endfacet
  facet normal 1 0 0
    outer loop
      vertex 15 20.3395 50
      vertex 15 -20.3395 70
      vertex 15 -20.3395 50
    endloop
  endfacet
  facet normal 0 0 -1
    outer loop
      vertex 15 -20.3395 70
      vertex 20 -19.9628 70
      vertex 18.5446 -20.3395 70
    endloop
  endfacet
  facet normal -0 0 -1
    outer loop
      vertex 20 -19.9628 70
      vertex 15 -20.3395 70
      vertex 20 19.9628 70
    endloop
  endfacet
  facet normal 0 0 -1
    outer loop
      vertex 15 20.3395 70
      vertex 20 19.9628 70
      vertex 15 -20.3395 70
    endloop
  endfacet
  facet normal 0 0 -1
    outer loop
      vertex 20 19.9628 70
      vertex 15 20.3395 70
      vertex 18.5446 20.3395 70
    endloop
  endfacet
  facet normal -1 0 0
    outer loop
      vertex 20 9.79522 57.159
      vertex 20 20.3395 69.61
      vertex 20 20.3395 50
    endloop
  endfacet
  facet normal -1 0 0
    outer loop
      vertex 20 9.59306 57.6833
      vertex 20 20.3395 69.61
      vertex 20 9.79522 57.159
    endloop
  endfacet
  facet normal -1 0 0
    outer loop
      vertex 20 20.3395 50
      vertex 20 -9.79522 57.159
      vertex 20 9.79522 57.159
    endloop
  endfacet
  facet normal -1 0 0
    outer loop
      vertex 20 -20.3395 50
      vertex 20 -9.79522 57.159
      vertex 20 20.3395 50
    endloop
  endfacet
  facet normal -1 0 0
    outer loop
      vertex 20 -20.3395 69.61
      vertex 20 -9.79522 57.159
      vertex 20 -20.3395 50
    endloop
  endfacet
  facet normal -1 0 0
    outer loop
      vertex 20 -9.79522 57.159
      vertex 20 -20.3395 69.61
      vertex 20 -19.9628 70
    endloop
  endfacet
  facet normal -1 0 0
    outer loop
      vertex 20 8.2319 59.8466
      vertex 20 20.3395 69.61
      vertex 20 9.59306 57.6833
    endloop
  endfacet
  facet normal -1 -0 0
    outer loop
      vertex 20 20.3395 69.61
      vertex 20 8.2319 59.8466
      vertex 20 19.9628 70
    endloop
  endfacet
  facet normal -1 0 0
    outer loop
      vertex 20 6.51097 61.6358
      vertex 20 19.9628 70
      vertex 20 8.2319 59.8466
    endloop
  endfacet
  facet normal -1 0 0
    outer loop
      vertex 20 4.50547 62.9728
      vertex 20 19.9628 70
      vertex 20 6.51097 61.6358
    endloop
  endfacet
  facet normal -1 0 0
    outer loop
      vertex 20 2.30306 63.7991
      vertex 20 19.9628 70
      vertex 20 4.50547 62.9728
    endloop
  endfacet
  facet normal -1 0 0
    outer loop
      vertex 20 0 64.0787
      vertex 20 19.9628 70
      vertex 20 2.30306 63.7991
    endloop
  endfacet
  facet normal -1 0 0
    outer loop
      vertex 20 -19.9628 70
      vertex 20 0 64.0787
      vertex 20 -2.30306 63.7991
    endloop
  endfacet
  facet normal -1 0 0
    outer loop
      vertex 20 0 64.0787
      vertex 20 -19.9628 70
      vertex 20 19.9628 70
    endloop
  endfacet
  facet normal -1 0 0
    outer loop
      vertex 20 -4.50547 62.9728
      vertex 20 -19.9628 70
      vertex 20 -2.30306 63.7991
    endloop
  endfacet
  facet normal -1 0 0
    outer loop
      vertex 20 -6.51097 61.6358
      vertex 20 -19.9628 70
      vertex 20 -4.50547 62.9728
    endloop
  endfacet
  facet normal -1 0 0
    outer loop
      vertex 20 -8.2319 59.8466
      vertex 20 -19.9628 70
      vertex 20 -6.51097 61.6358
    endloop
  endfacet
  facet normal -1 0 0
    outer loop
      vertex 20 -9.59306 57.6833
      vertex 20 -19.9628 70
      vertex 20 -8.2319 59.8466
    endloop
  endfacet
  facet normal -1 0 0
    outer loop
      vertex 20 -19.9628 70
      vertex 20 -9.59306 57.6833
      vertex 20 -9.79522 57.159
    endloop
  endfacet
  facet normal -0 0 1
    outer loop
      vertex 15 20.3395 50
      vertex 20 -20.3395 50
      vertex 20 20.3395 50
    endloop
  endfacet
  facet normal 0 0 1
    outer loop
      vertex 20 -20.3395 50
      vertex 15 20.3395 50
      vertex 15 -20.3395 50
    endloop
  endfacet
  facet normal 0.183013 0.707107 0.683012
    outer loop
      vertex 44.2467 13.3881 70.3098
      vertex 19.4196 12.754 77.6186
      vertex 43.0778 12.754 71.2794
    endloop
  endfacet
  facet normal 0.183013 0.707106 0.683014
    outer loop
      vertex 47.4296 14 68.8235
      vertex 19.4196 12.754 77.6186
      vertex 44.2467 13.3881 70.3098
    endloop
  endfacet
  facet normal 0.183013 0.707107 0.683013
    outer loop
      vertex 79.6281 20.3395 53.6327
      vertex 58.8534 12.754 67.0524
      vertex 80 12.754 61.3862
    endloop
  endfacet
  facet normal 0.183013 0.707107 0.683013
    outer loop
      vertex 58.8534 12.754 67.0524
      vertex 79.6281 20.3395 53.6327
      vertex 56.1313 13.3881 67.1253
    endloop
  endfacet
  facet normal 0.183013 0.707107 0.683013
    outer loop
      vertex 47.4296 14 68.8235
      vertex 79.6281 20.3395 53.6327
      vertex 19.4196 12.754 77.6186
    endloop
  endfacet
  facet normal 0.183014 0.707105 0.683014
    outer loop
      vertex 51.4496 14 67.7463
      vertex 79.6281 20.3395 53.6327
      vertex 47.4296 14 68.8235
    endloop
  endfacet
  facet normal 0.183012 0.707107 0.683013
    outer loop
      vertex 56.1313 13.3881 67.1253
      vertex 79.6281 20.3395 53.6327
      vertex 51.4496 14 67.7463
    endloop
  endfacet
  facet normal 0.183017 0.707106 0.683012
    outer loop
      vertex 79.6281 20.3395 53.6327
      vertex 80 12.754 61.3862
      vertex 80 20.3395 53.5331
    endloop
  endfacet
  facet normal 0.183013 0.707107 0.683013
    outer loop
      vertex 18.5446 20.3395 70
      vertex 7.0036 12.754 80.9455
      vertex 19.4196 12.754 77.6186
    endloop
  endfacet
  facet normal 0.183013 0.707107 0.683013
    outer loop
      vertex 1 20.3395 74.7011
      vertex 7.0036 12.754 80.9455
      vertex 18.5446 20.3395 70
    endloop
  endfacet
  facet normal 0.183007 0.707107 0.683014
    outer loop
      vertex 1.52401 14.5 80.6062
      vertex 1 20.3395 74.7011
      vertex 1 14.5 80.7466
    endloop
  endfacet
  facet normal 0.183013 0.707107 0.683013
    outer loop
      vertex 4.50543 13.8663 80.4634
      vertex 1 20.3395 74.7011
      vertex 1.52401 14.5 80.6062
    endloop
  endfacet
  facet normal 0.183012 0.707107 0.683013
    outer loop
      vertex 18.5446 20.3395 70
      vertex 19.4196 12.754 77.6186
      vertex 20 19.9628 70
    endloop
  endfacet
  facet normal 0.183012 0.707108 0.683012
    outer loop
      vertex 20 19.9628 70
      vertex 79.6281 20.3395 53.6327
      vertex 20 20.3395 69.61
    endloop
  endfacet
  facet normal 0.183013 0.707107 0.683013
    outer loop
      vertex 79.6281 20.3395 53.6327
      vertex 20 19.9628 70
      vertex 19.4196 12.754 77.6186
    endloop
  endfacet
  facet normal 0.183013 0.707107 0.683012
    outer loop
      vertex 7.0036 12.754 80.9455
      vertex 1 20.3395 74.7011
      vertex 4.50543 13.8663 80.4634
    endloop
  endfacet
  facet normal 0.183013 -0.707107 0.683012
    outer loop
      vertex 19.4196 -12.754 77.6186
      vertex 44.2467 -13.3881 70.3098
      vertex 43.0778 -12.754 71.2794
    endloop
  endfacet
  facet normal 0.183013 -0.707106 0.683014
    outer loop
      vertex 19.4196 -12.754 77.6186
      vertex 47.4296 -14 68.8235
      vertex 44.2467 -13.3881 70.3098
    endloop
  endfacet
  facet normal 0.183013 -0.707107 0.683013
    outer loop
      vertex 79.6281 -20.3395 53.6327
      vertex 58.8534 -12.754 67.0524
      vertex 56.1313 -13.3881 67.1253
    endloop
  endfacet
  facet normal 0.183012 -0.707107 0.683013
    outer loop
      vertex 79.6281 -20.3395 53.6327
      vertex 56.1313 -13.3881 67.1253
      vertex 51.4496 -14 67.7463
    endloop
  endfacet
  facet normal 0.183013 -0.707107 0.683013
    outer loop
      vertex 79.6281 -20.3395 53.6327
      vertex 47.4296 -14 68.8235
      vertex 19.4196 -12.754 77.6186
    endloop
  endfacet
  facet normal 0.183014 -0.707105 0.683014
    outer loop
      vertex 79.6281 -20.3395 53.6327
      vertex 51.4496 -14 67.7463
      vertex 47.4296 -14 68.8235
    endloop
  endfacet
  facet normal 0.183013 -0.707107 0.683013
    outer loop
      vertex 58.8534 -12.754 67.0524
      vertex 79.6281 -20.3395 53.6327
      vertex 80 -12.754 61.3862
    endloop
  endfacet
  facet normal 0.183017 -0.707106 0.683012
    outer loop
      vertex 80 -12.754 61.3862
      vertex 79.6281 -20.3395 53.6327
      vertex 80 -20.3395 53.5331
    endloop
  endfacet
  facet normal 0.183013 -0.707107 0.683013
    outer loop
      vertex 1 -20.3395 74.7011
      vertex 4.50543 -13.8663 80.4634
      vertex 1.52401 -14.5 80.6062
    endloop
  endfacet
  facet normal 0.183007 -0.707107 0.683014
    outer loop
      vertex 1 -20.3395 74.7011
      vertex 1.52401 -14.5 80.6062
      vertex 1 -14.5 80.7466
    endloop
  endfacet
  facet normal 0.183013 -0.707107 0.683013
    outer loop
      vertex 18.5446 -20.3395 70
      vertex 4.50543 -13.8663 80.4634
      vertex 1 -20.3395 74.7011
    endloop
  endfacet
  facet normal 0.183013 -0.707107 0.683013
    outer loop
      vertex 4.50543 -13.8663 80.4634
      vertex 18.5446 -20.3395 70
      vertex 19.4196 -12.754 77.6186
    endloop
  endfacet
  facet normal 0.183012 -0.707107 0.683013
    outer loop
      vertex 20 -19.9628 70
      vertex 19.4196 -12.754 77.6186
      vertex 18.5446 -20.3395 70
    endloop
  endfacet
  facet normal 0.183013 -0.707107 0.683013
    outer loop
      vertex 20 -19.9628 70
      vertex 79.6281 -20.3395 53.6327
      vertex 19.4196 -12.754 77.6186
    endloop
  endfacet
  facet normal 0.183012 -0.707108 0.683012
    outer loop
      vertex 79.6281 -20.3395 53.6327
      vertex 20 -19.9628 70
      vertex 20 -20.3395 69.61
    endloop
  endfacet
  facet normal 0.183013 -0.707107 0.683013
    outer loop
      vertex 7.0036 -12.754 80.9455
      vertex 4.50543 -13.8663 80.4634
      vertex 19.4196 -12.754 77.6186
    endloop
  endfacet
  facet normal 1 -0 0
    outer loop
      vertex 80 -12.754 61.3862
      vertex 80 -12.1426 58.8127
      vertex 80 -9.66739 61.3862
    endloop
  endfacet
  facet normal 1 0 0
    outer loop
      vertex 80 -12.754 61.3862
      vertex 80 -14.1504 55.6216
      vertex 80 -12.1426 58.8127
    endloop
  endfacet
  facet normal 1 0 0
    outer loop
      vertex 80 -20.3395 53.5331
      vertex 80 -14.1504 55.6216
      vertex 80 -12.754 61.3862
    endloop
  endfacet
  facet normal 1 0 0
    outer loop
      vertex 80 -20.3395 40
      vertex 80 -16.25 48.1602
      vertex 80 -20.3395 53.5331
    endloop
  endfacet
  facet normal 1 0 0
    outer loop
      vertex 80 -15.5398 52.0183
      vertex 80 -20.3395 53.5331
      vertex 80 -16.25 48.1602
    endloop
  endfacet
  facet normal 1 0 0
    outer loop
      vertex 80 -14.1504 55.6216
      vertex 80 -20.3395 53.5331
      vertex 80 -15.5398 52.0183
    endloop
  endfacet
  facet normal 1 0 0
    outer loop
      vertex 80 -20.3395 40
      vertex 80 -15.9681 42.6847
      vertex 80 -16.25 44.2159
    endloop
  endfacet
  facet normal 1 0 0
    outer loop
      vertex 80 -16.25 48.1602
      vertex 80 -20.3395 40
      vertex 80 -16.25 44.2159
    endloop
  endfacet
  facet normal 1 0 0
    outer loop
      vertex 80 -15.5398 40.3577
      vertex 80 -20.3395 40
      vertex 80 -15.4019 40
    endloop
  endfacet
  facet normal 1 0 0
    outer loop
      vertex 80 -15.9681 42.6847
      vertex 80 -20.3395 40
      vertex 80 -15.5398 40.3577
    endloop
  endfacet
  facet normal 1 0 0
    outer loop
      vertex 80 20.3395 53.5331
      vertex 80 16.25 48.1602
      vertex 80 20.3395 40
    endloop
  endfacet
  facet normal 1 0 0
    outer loop
      vertex 80 20.3395 53.5331
      vertex 80 15.5398 52.0183
      vertex 80 16.25 48.1602
    endloop
  endfacet
  facet normal 1 0 0
    outer loop
      vertex 80 20.3395 53.5331
      vertex 80 14.1504 55.6216
      vertex 80 15.5398 52.0183
    endloop
  endfacet
  facet normal 1 0 0
    outer loop
      vertex 80 12.754 61.3862
      vertex 80 14.1504 55.6216
      vertex 80 20.3395 53.5331
    endloop
  endfacet
  facet normal 1 0 0
    outer loop
      vertex 80 12.754 61.3862
      vertex 80 12.1426 58.8127
      vertex 80 14.1504 55.6216
    endloop
  endfacet
  facet normal 1 0 -0
    outer loop
      vertex 80 12.1426 58.8127
      vertex 80 12.754 61.3862
      vertex 80 9.66739 61.3862
    endloop
  endfacet
  facet normal 1 -0 0
    outer loop
      vertex 80 16.25 44.2159
      vertex 80 20.3395 40
      vertex 80 16.25 48.1602
    endloop
  endfacet
  facet normal 1 -0 0
    outer loop
      vertex 80 15.9681 42.6847
      vertex 80 20.3395 40
      vertex 80 16.25 44.2159
    endloop
  endfacet
  facet normal 1 -0 0
    outer loop
      vertex 80 15.5398 40.3577
      vertex 80 20.3395 40
      vertex 80 15.9681 42.6847
    endloop
  endfacet
  facet normal 1 0 0
    outer loop
      vertex 80 20.3395 40
      vertex 80 15.5398 40.3577
      vertex 80 15.4019 40
    endloop
  endfacet
endsolid OpenSCAD_Model
