solid OpenSCAD_Model
  facet normal -0.649448 -0.622888 -0.436151
    outer loop
      vertex 5.97277 15.539 0.0766691
      vertex 5.75799 10.6131 7.43137
      vertex 5.75799 15.6893 0.181887
    endloop
  endfacet
  facet normal -0.649447 -0.622889 -0.436151
    outer loop
      vertex 5.75799 10.6131 7.43137
      vertex 5.97277 15.539 0.0766691
      vertex 5.97277 10.4629 7.32616
    endloop
  endfacet
  facet normal -0.760407 -0.531996 -0.372507
    outer loop
      vertex 6.15622 15.3631 -0.0465252
      vertex 5.97277 10.4629 7.32616
      vertex 5.97277 15.539 0.0766691
    endloop
  endfacet
  facet normal -0.760407 -0.531996 -0.372508
    outer loop
      vertex 5.97277 10.4629 7.32616
      vertex 6.15622 15.3631 -0.0465252
      vertex 6.15622 10.2869 7.20296
    endloop
  endfacet
  facet normal -0.996919 0.0642575 0.0449936
    outer loop
      vertex 6.47783 11.6445 -2.65031
      vertex 6.49998 6.79897 4.76068
      vertex 6.49998 11.8751 -2.48881
    endloop
  endfacet
  facet normal -0.996919 0.0642575 0.0449936
    outer loop
      vertex 6.49998 6.79897 4.76068
      vertex 6.47783 11.6445 -2.65031
      vertex 6.47783 6.56832 4.59917
    endloop
  endfacet
  facet normal 0.233424 0.796523 0.557731
    outer loop
      vertex -4.98157 5.34265 3.74095
      vertex -5.25623 10.4966 -3.5047
      vertex -5.25623 5.39666 3.77877
    endloop
  endfacet
  facet normal 0.233425 0.796523 0.557731
    outer loop
      vertex -5.25623 10.4966 -3.5047
      vertex -4.98157 5.34265 3.74095
      vertex -4.98157 10.4486 -3.55107
    endloop
  endfacet
  facet normal 0 0.819152 0.573576
    outer loop
      vertex 4.69999 10.4324 -3.56665
      vertex -4.7 5.3245 3.72825
      vertex 4.69999 5.3245 3.72825
    endloop
  endfacet
  facet normal 0 0.819152 0.573576
    outer loop
      vertex -4.7 5.3245 3.72825
      vertex 4.69999 10.4324 -3.56665
      vertex -4.7 10.4324 -3.56665
    endloop
  endfacet
  facet normal -0.382707 -0.75679 -0.52991
    outer loop
      vertex 5.25622 15.8987 0.328537
      vertex 5.51716 10.734 7.51603
      vertex 5.25622 10.8226 7.57802
    endloop
  endfacet
  facet normal -0.382708 -0.756789 -0.52991
    outer loop
      vertex 5.51716 10.734 7.51603
      vertex 5.25622 15.8987 0.328537
      vertex 5.51716 15.8102 0.266537
    endloop
  endfacet
  facet normal 0.649447 0.622889 0.436151
    outer loop
      vertex -5.97278 5.75636 4.03064
      vertex -5.76528 10.6873 -3.3205
      vertex -5.97278 10.8325 -3.21885
    endloop
  endfacet
  facet normal 0.649447 0.622889 0.436151
    outer loop
      vertex -5.758 5.6061 3.92542
      vertex -5.76528 10.6873 -3.3205
      vertex -5.97278 5.75636 4.03064
    endloop
  endfacet
  facet normal 0.649403 0.622919 0.436173
    outer loop
      vertex -5.76528 10.6873 -3.3205
      vertex -5.758 5.6061 3.92542
      vertex -5.758 10.6828 -3.32487
    endloop
  endfacet
  facet normal 0.0784437 0.816628 0.571809
    outer loop
      vertex -4.7 5.3245 3.72825
      vertex -4.98157 10.4486 -3.55107
      vertex -4.98157 5.34265 3.74095
    endloop
  endfacet
  facet normal 0.0784444 0.816628 0.571809
    outer loop
      vertex -4.98157 10.4486 -3.55107
      vertex -4.7 5.3245 3.72825
      vertex -4.7 10.4324 -3.56665
    endloop
  endfacet
  facet normal 0.852636 0.428011 0.299697
    outer loop
      vertex -6.30381 6.12958 4.29197
      vertex -6.15622 11.0085 -3.09565
      vertex -6.30381 11.2057 -2.95752
    endloop
  endfacet
  facet normal 0.852636 0.428011 0.299697
    outer loop
      vertex -6.15622 11.0085 -3.09565
      vertex -6.30381 6.12958 4.29197
      vertex -6.15622 5.9323 4.15383
    endloop
  endfacet
  facet normal 1 0 0
    outer loop
      vertex -6.49999 9.42025 6.59612
      vertex -6.49999 11.8751 -2.48881
      vertex -6.49999 14.4964 -0.653368
    endloop
  endfacet
  facet normal 1 0 0
    outer loop
      vertex -6.49999 11.8751 -2.48881
      vertex -6.49999 9.42025 6.59612
      vertex -6.49999 6.79897 4.76068
    endloop
  endfacet
  facet normal 0 -0.819152 -0.573576
    outer loop
      vertex -4.7 15.9709 0.379062
      vertex 4.69999 10.8947 7.62855
      vertex -4.7 10.8947 7.62855
    endloop
  endfacet
  facet normal 0 -0.819152 -0.573576
    outer loop
      vertex 4.69999 10.8947 7.62855
      vertex -4.7 15.9709 0.379062
      vertex 4.69999 15.9709 0.379062
    endloop
  endfacet
  facet normal 0.649448 -0.622888 -0.436151
    outer loop
      vertex -5.758 10.6131 7.43137
      vertex -5.97278 15.539 0.0766691
      vertex -5.758 15.6893 0.181887
    endloop
  endfacet
  facet normal 0.649447 -0.622889 -0.436151
    outer loop
      vertex -5.97278 15.539 0.0766691
      vertex -5.758 10.6131 7.43137
      vertex -5.97278 10.4629 7.32616
    endloop
  endfacet
  facet normal -0.522505 -0.698439 -0.489052
    outer loop
      vertex 5.51716 15.8102 0.266537
      vertex 5.75799 10.6131 7.43137
      vertex 5.51716 10.734 7.51603
    endloop
  endfacet
  facet normal -0.522504 -0.698439 -0.489052
    outer loop
      vertex 5.75799 10.6131 7.43137
      vertex 5.51716 15.8102 0.266537
      vertex 5.75799 15.6893 0.181887
    endloop
  endfacet
  facet normal -0.923869 -0.313496 -0.219512
    outer loop
      vertex 6.41189 14.952 -0.334329
      vertex 6.3038 10.0896 7.06483
      vertex 6.3038 15.1658 -0.184659
    endloop
  endfacet
  facet normal -0.923869 -0.313496 -0.219512
    outer loop
      vertex 6.3038 10.0896 7.06483
      vertex 6.41189 14.952 -0.334329
      vertex 6.41189 9.87589 6.91516
    endloop
  endfacet
  facet normal -1 0 0
    outer loop
      vertex 6.49998 11.8751 -2.48881
      vertex 6.49998 9.42025 6.59612
      vertex 6.49998 14.4964 -0.653368
    endloop
  endfacet
  facet normal -1 0 -0
    outer loop
      vertex 6.49998 9.42025 6.59612
      vertex 6.49998 11.8751 -2.48881
      vertex 6.49998 6.79897 4.76068
    endloop
  endfacet
  facet normal -0.972375 0.19121 0.133886
    outer loop
      vertex 6.41189 11.4195 -2.80785
      vertex 6.47783 6.56832 4.59917
      vertex 6.47783 11.6445 -2.65031
    endloop
  endfacet
  facet normal -0.972375 0.19121 0.133886
    outer loop
      vertex 6.47783 6.56832 4.59917
      vertex 6.41189 11.4195 -2.80785
      vertex 6.41189 6.34333 4.44164
    endloop
  endfacet
  facet normal -0.522505 0.698439 0.489052
    outer loop
      vertex 5.75799 10.6828 -3.32487
      vertex 5.51716 5.48521 3.84077
      vertex 5.75799 5.6061 3.92542
    endloop
  endfacet
  facet normal -0.522506 0.698438 0.489052
    outer loop
      vertex 5.51716 5.48521 3.84077
      vertex 5.75799 10.6828 -3.32487
      vertex 5.51716 10.5753 -3.42867
    endloop
  endfacet
  facet normal 0.382708 0.756789 0.52991
    outer loop
      vertex -5.25623 5.39666 3.77877
      vertex -5.51717 10.5753 -3.42867
      vertex -5.51717 5.48521 3.84077
    endloop
  endfacet
  facet normal 0.382707 0.75679 0.52991
    outer loop
      vertex -5.51717 10.5753 -3.42867
      vertex -5.25623 5.39666 3.77877
      vertex -5.25623 10.4966 -3.5047
    endloop
  endfacet
  facet normal 0.522505 0.698439 0.489052
    outer loop
      vertex -5.51717 5.48521 3.84077
      vertex -5.758 10.6828 -3.32487
      vertex -5.758 5.6061 3.92542
    endloop
  endfacet
  facet normal 0.522506 0.698438 0.489052
    outer loop
      vertex -5.758 10.6828 -3.32487
      vertex -5.51717 5.48521 3.84077
      vertex -5.51717 10.5753 -3.42867
    endloop
  endfacet
  facet normal -0.382708 0.756789 0.52991
    outer loop
      vertex 5.51716 10.5753 -3.42867
      vertex 5.25622 5.39666 3.77877
      vertex 5.51716 5.48521 3.84077
    endloop
  endfacet
  facet normal -0.382707 0.75679 0.52991
    outer loop
      vertex 5.25622 5.39666 3.77877
      vertex 5.51716 10.5753 -3.42867
      vertex 5.25622 10.4966 -3.5047
    endloop
  endfacet
  facet normal 0.760407 0.531996 0.372508
    outer loop
      vertex -6.15622 5.9323 4.15383
      vertex -5.97278 10.8325 -3.21885
      vertex -6.15622 11.0085 -3.09565
    endloop
  endfacet
  facet normal 0.760407 0.531996 0.372508
    outer loop
      vertex -5.97278 10.8325 -3.21885
      vertex -6.15622 5.9323 4.15383
      vertex -5.97278 5.75636 4.03064
    endloop
  endfacet
  facet normal 0.996919 0.0642575 0.0449936
    outer loop
      vertex -6.49999 6.79897 4.76068
      vertex -6.47783 11.6445 -2.65031
      vertex -6.49999 11.8751 -2.48881
    endloop
  endfacet
  facet normal 0.996919 0.0642575 0.0449936
    outer loop
      vertex -6.47783 11.6445 -2.65031
      vertex -6.49999 6.79897 4.76068
      vertex -6.47783 6.56832 4.59917
    endloop
  endfacet
  facet normal -0.0784455 -0.816628 -0.571809
    outer loop
      vertex 4.69999 15.9709 0.379062
      vertex 4.98156 10.8766 7.61584
      vertex 4.69999 10.8947 7.62855
    endloop
  endfacet
  facet normal -0.0784452 -0.816628 -0.571809
    outer loop
      vertex 4.98156 10.8766 7.61584
      vertex 4.69999 15.9709 0.379062
      vertex 4.98156 15.9527 0.366354
    endloop
  endfacet
  facet normal 0.0784455 -0.816628 -0.571809
    outer loop
      vertex -4.98157 10.8766 7.61584
      vertex -4.7 15.9709 0.379062
      vertex -4.7 10.8947 7.62855
    endloop
  endfacet
  facet normal 0.0784452 -0.816628 -0.571809
    outer loop
      vertex -4.7 15.9709 0.379062
      vertex -4.98157 10.8766 7.61584
      vertex -4.98157 15.9527 0.366354
    endloop
  endfacet
  facet normal -0.972375 -0.19121 -0.133886
    outer loop
      vertex 6.47783 14.727 -0.491866
      vertex 6.41189 9.87589 6.91516
      vertex 6.41189 14.952 -0.334329
    endloop
  endfacet
  facet normal -0.972375 -0.19121 -0.133886
    outer loop
      vertex 6.41189 9.87589 6.91516
      vertex 6.47783 14.727 -0.491866
      vertex 6.47783 9.6509 6.75762
    endloop
  endfacet
  facet normal -0.996919 -0.0642575 -0.0449936
    outer loop
      vertex 6.49998 14.4964 -0.653368
      vertex 6.47783 9.6509 6.75762
      vertex 6.47783 14.727 -0.491866
    endloop
  endfacet
  facet normal -0.996919 -0.0642575 -0.0449936
    outer loop
      vertex 6.47783 9.6509 6.75762
      vertex 6.49998 14.4964 -0.653368
      vertex 6.49998 9.42025 6.59612
    endloop
  endfacet
  facet normal -0.852636 -0.428011 -0.299696
    outer loop
      vertex 6.3038 15.1658 -0.184659
      vertex 6.15622 10.2869 7.20296
      vertex 6.15622 15.3631 -0.0465252
    endloop
  endfacet
  facet normal -0.852636 -0.428011 -0.299697
    outer loop
      vertex 6.15622 10.2869 7.20296
      vertex 6.3038 15.1658 -0.184659
      vertex 6.3038 10.0896 7.06483
    endloop
  endfacet
  facet normal -0.760407 0.531996 0.372508
    outer loop
      vertex 5.97277 10.8325 -3.21885
      vertex 6.15622 5.9323 4.15383
      vertex 6.15622 11.0085 -3.09565
    endloop
  endfacet
  facet normal -0.760407 0.531996 0.372508
    outer loop
      vertex 6.15622 5.9323 4.15383
      vertex 5.97277 10.8325 -3.21885
      vertex 5.97277 5.75636 4.03064
    endloop
  endfacet
  facet normal -0.233424 0.796523 0.557731
    outer loop
      vertex 5.25622 10.4966 -3.5047
      vertex 4.98156 5.34265 3.74095
      vertex 5.25622 5.39666 3.77877
    endloop
  endfacet
  facet normal -0.233425 0.796523 0.557731
    outer loop
      vertex 4.98156 5.34265 3.74095
      vertex 5.25622 10.4966 -3.5047
      vertex 4.98156 10.4486 -3.55107
    endloop
  endfacet
  facet normal -0.0784437 0.816628 0.571809
    outer loop
      vertex 4.98156 10.4486 -3.55107
      vertex 4.69999 5.3245 3.72825
      vertex 4.98156 5.34265 3.74095
    endloop
  endfacet
  facet normal -0.0784444 0.816628 0.571809
    outer loop
      vertex 4.69999 5.3245 3.72825
      vertex 4.98156 10.4486 -3.55107
      vertex 4.69999 10.4324 -3.56665
    endloop
  endfacet
  facet normal 0.923869 0.313496 0.219512
    outer loop
      vertex -6.4119 6.34333 4.44164
      vertex -6.30381 11.2057 -2.95752
      vertex -6.4119 11.4195 -2.80785
    endloop
  endfacet
  facet normal 0.923869 0.313496 0.219512
    outer loop
      vertex -6.30381 11.2057 -2.95752
      vertex -6.4119 6.34333 4.44164
      vertex -6.30381 6.12958 4.29197
    endloop
  endfacet
  facet normal 0.972375 0.19121 0.133886
    outer loop
      vertex -6.47783 6.56832 4.59917
      vertex -6.4119 11.4195 -2.80785
      vertex -6.47783 11.6445 -2.65031
    endloop
  endfacet
  facet normal 0.972375 0.19121 0.133886
    outer loop
      vertex -6.4119 11.4195 -2.80785
      vertex -6.47783 6.56832 4.59917
      vertex -6.4119 6.34333 4.44164
    endloop
  endfacet
  facet normal 0.996919 -0.0642575 -0.0449936
    outer loop
      vertex -6.47783 9.6509 6.75762
      vertex -6.49999 14.4964 -0.653368
      vertex -6.47783 14.727 -0.491866
    endloop
  endfacet
  facet normal 0.996919 -0.0642575 -0.0449936
    outer loop
      vertex -6.49999 14.4964 -0.653368
      vertex -6.47783 9.6509 6.75762
      vertex -6.49999 9.42025 6.59612
    endloop
  endfacet
  facet normal -0.233425 -0.796523 -0.557731
    outer loop
      vertex 4.98156 15.9527 0.366354
      vertex 5.25622 10.8226 7.57802
      vertex 4.98156 10.8766 7.61584
    endloop
  endfacet
  facet normal -0.233424 -0.796523 -0.557731
    outer loop
      vertex 5.25622 10.8226 7.57802
      vertex 4.98156 15.9527 0.366354
      vertex 5.25622 15.8987 0.328537
    endloop
  endfacet
  facet normal -0.649447 0.622889 0.436151
    outer loop
      vertex 5.76527 10.6873 -3.3205
      vertex 5.97277 5.75636 4.03064
      vertex 5.97277 10.8325 -3.21885
    endloop
  endfacet
  facet normal -0.649403 0.622919 0.436173
    outer loop
      vertex 5.75799 5.6061 3.92542
      vertex 5.76527 10.6873 -3.3205
      vertex 5.75799 10.6828 -3.32487
    endloop
  endfacet
  facet normal -0.649447 0.622889 0.436151
    outer loop
      vertex 5.76527 10.6873 -3.3205
      vertex 5.75799 5.6061 3.92542
      vertex 5.97277 5.75636 4.03064
    endloop
  endfacet
  facet normal 0.382707 -0.75679 -0.52991
    outer loop
      vertex -5.51717 10.734 7.51603
      vertex -5.25623 15.8987 0.328537
      vertex -5.25623 10.8226 7.57802
    endloop
  endfacet
  facet normal 0.382708 -0.756789 -0.52991
    outer loop
      vertex -5.25623 15.8987 0.328537
      vertex -5.51717 10.734 7.51603
      vertex -5.51717 15.8102 0.266537
    endloop
  endfacet
  facet normal 0.233425 -0.796523 -0.557731
    outer loop
      vertex -5.25623 10.8226 7.57802
      vertex -4.98157 15.9527 0.366354
      vertex -4.98157 10.8766 7.61584
    endloop
  endfacet
  facet normal 0.233424 -0.796523 -0.557731
    outer loop
      vertex -4.98157 15.9527 0.366354
      vertex -5.25623 10.8226 7.57802
      vertex -5.25623 15.8987 0.328537
    endloop
  endfacet
  facet normal 0.923869 -0.313496 -0.219512
    outer loop
      vertex -6.30381 10.0896 7.06483
      vertex -6.4119 14.952 -0.334329
      vertex -6.30381 15.1658 -0.184659
    endloop
  endfacet
  facet normal 0.923869 -0.313496 -0.219512
    outer loop
      vertex -6.4119 14.952 -0.334329
      vertex -6.30381 10.0896 7.06483
      vertex -6.4119 9.87589 6.91516
    endloop
  endfacet
  facet normal -0.852636 0.428011 0.299697
    outer loop
      vertex 6.15622 11.0085 -3.09565
      vertex 6.3038 6.12958 4.29197
      vertex 6.3038 11.2057 -2.95752
    endloop
  endfacet
  facet normal -0.852636 0.428011 0.299697
    outer loop
      vertex 6.3038 6.12958 4.29197
      vertex 6.15622 11.0085 -3.09565
      vertex 6.15622 5.9323 4.15383
    endloop
  endfacet
  facet normal -0.923869 0.313496 0.219512
    outer loop
      vertex 6.3038 11.2057 -2.95752
      vertex 6.41189 6.34333 4.44164
      vertex 6.41189 11.4195 -2.80785
    endloop
  endfacet
  facet normal -0.923869 0.313496 0.219512
    outer loop
      vertex 6.41189 6.34333 4.44164
      vertex 6.3038 11.2057 -2.95752
      vertex 6.3038 6.12958 4.29197
    endloop
  endfacet
  facet normal 0.522505 -0.698439 -0.489052
    outer loop
      vertex -5.758 10.6131 7.43137
      vertex -5.51717 15.8102 0.266537
      vertex -5.51717 10.734 7.51603
    endloop
  endfacet
  facet normal 0.522504 -0.698439 -0.489052
    outer loop
      vertex -5.51717 15.8102 0.266537
      vertex -5.758 10.6131 7.43137
      vertex -5.758 15.6893 0.181887
    endloop
  endfacet
  facet normal 0.852636 -0.428011 -0.299696
    outer loop
      vertex -6.15622 10.2869 7.20296
      vertex -6.30381 15.1658 -0.184659
      vertex -6.15622 15.3631 -0.0465252
    endloop
  endfacet
  facet normal 0.852636 -0.428011 -0.299697
    outer loop
      vertex -6.30381 15.1658 -0.184659
      vertex -6.15622 10.2869 7.20296
      vertex -6.30381 10.0896 7.06483
    endloop
  endfacet
  facet normal 0.760407 -0.531996 -0.372507
    outer loop
      vertex -5.97278 10.4629 7.32616
      vertex -6.15622 15.3631 -0.0465252
      vertex -5.97278 15.539 0.0766691
    endloop
  endfacet
  facet normal 0.760407 -0.531996 -0.372508
    outer loop
      vertex -6.15622 15.3631 -0.0465252
      vertex -5.97278 10.4629 7.32616
      vertex -6.15622 10.2869 7.20296
    endloop
  endfacet
  facet normal 0.972375 -0.19121 -0.133886
    outer loop
      vertex -6.4119 9.87589 6.91516
      vertex -6.47783 14.727 -0.491866
      vertex -6.4119 14.952 -0.334329
    endloop
  endfacet
  facet normal 0.972375 -0.19121 -0.133886
    outer loop
      vertex -6.47783 14.727 -0.491866
      vertex -6.4119 9.87589 6.91516
      vertex -6.47783 9.6509 6.75762
    endloop
  endfacet
  facet normal 1 -0 0
    outer loop
      vertex 30 -54.0242 -46.4737
      vertex 30 -54.0242 -50.4737
      vertex 30 24.8573 -46.4737
    endloop
  endfacet
  facet normal 1 0 0
    outer loop
      vertex 30 12.8607 9.00513
      vertex 30 10.6873 -3.3205
      vertex 30 17.9368 1.75564
    endloop
  endfacet
  facet normal 1 -0 0
    outer loop
      vertex 30 3.27661 2.2943
      vertex 30 10.6873 -3.3205
      vertex 30 12.8607 9.00513
    endloop
  endfacet
  facet normal 1 0 0
    outer loop
      vertex 30 10.6873 -3.3205
      vertex 30 3.27661 2.2943
      vertex 30 10.0234 -3.96165
    endloop
  endfacet
  facet normal 1 0 0
    outer loop
      vertex 30 9.59011 -4.77657
      vertex 30 3.27661 2.2943
      vertex 30 9.42984 -5.68551
    endloop
  endfacet
  facet normal 1 0 0
    outer loop
      vertex 30 10.0234 -3.96165
      vertex 30 3.27661 2.2943
      vertex 30 9.59011 -4.77657
    endloop
  endfacet
  facet normal 1 0 0
    outer loop
      vertex 30 3.27661 2.2943
      vertex 30 9.5583 -6.59949
      vertex 30 9.42984 -5.68551
    endloop
  endfacet
  facet normal 1 0 0
    outer loop
      vertex 30 3.27661 2.2943
      vertex 30 9.68267 -6.8545
      vertex 30 9.5583 -6.59949
    endloop
  endfacet
  facet normal 1 0 0
    outer loop
      vertex 30 3.27661 2.2943
      vertex 30 -11.4715 16.383
      vertex 30 9.68267 -6.8545
    endloop
  endfacet
  facet normal 1 -0 0
    outer loop
      vertex 30 -11.4715 16.383
      vertex 30 3.27661 2.2943
      vertex 30 -8.19491 18.6773
    endloop
  endfacet
  facet normal 1 0 0
    outer loop
      vertex 30 9.68267 -6.8545
      vertex 30 -11.4715 16.383
      vertex 30 28.1339 -40.1794
    endloop
  endfacet
  facet normal 1 0 0
    outer loop
      vertex 30 9.68267 -6.8545
      vertex 30 31.3627 -37.9186
      vertex 30 31.4105 -37.8851
    endloop
  endfacet
  facet normal 1 0 0
    outer loop
      vertex 30 31.3627 -37.9186
      vertex 30 9.68267 -6.8545
      vertex 30 28.1339 -40.1794
    endloop
  endfacet
  facet normal 1 -0 0
    outer loop
      vertex 30 28.7346 -41.4904
      vertex 30 32.8571 -42.42
      vertex 30 32.6118 -40.5071
    endloop
  endfacet
  facet normal 1 0 0
    outer loop
      vertex 30 32.8571 -42.42
      vertex 30 28.7474 -43.4049
      vertex 30 32.6375 -44.3361
    endloop
  endfacet
  facet normal 1 0 0
    outer loop
      vertex 30 28.7346 -41.4904
      vertex 30 32.6118 -40.5071
      vertex 30 31.9158 -38.7085
    endloop
  endfacet
  facet normal 1 0 0
    outer loop
      vertex 30 28.1339 -40.1794
      vertex 30 31.9158 -38.7085
      vertex 30 31.3627 -37.9186
    endloop
  endfacet
  facet normal 1 0 0
    outer loop
      vertex 30 32.8571 -42.42
      vertex 30 28.7346 -41.4904
      vertex 30 28.7474 -43.4049
    endloop
  endfacet
  facet normal 1 -0 0
    outer loop
      vertex 30 27.8691 -45.106
      vertex 30 31.9657 -46.1439
      vertex 30 28.7474 -43.4049
    endloop
  endfacet
  facet normal 1 0 0
    outer loop
      vertex 30 31.9657 -46.1439
      vertex 30 27.8691 -45.106
      vertex 30 30.8809 -47.7384
    endloop
  endfacet
  facet normal 1 0 0
    outer loop
      vertex 30 32.6375 -44.3361
      vertex 30 28.7474 -43.4049
      vertex 30 31.9657 -46.1439
    endloop
  endfacet
  facet normal 1 0 0
    outer loop
      vertex 30 31.9158 -38.7085
      vertex 30 28.1339 -40.1794
      vertex 30 28.7346 -41.4904
    endloop
  endfacet
  facet normal 1 0 0
    outer loop
      vertex 30 28.7346 -41.4904
      vertex 30 28.1339 -40.1794
      vertex 30 28.0621 -40.2297
    endloop
  endfacet
  facet normal 1 0 0
    outer loop
      vertex 30 30.8809 -47.7384
      vertex 30 27.8691 -45.106
      vertex 30 29.4459 -49.0269
    endloop
  endfacet
  facet normal 1 -0 0
    outer loop
      vertex 30 26.3008 -46.2042
      vertex 30 29.4459 -49.0269
      vertex 30 27.8691 -45.106
    endloop
  endfacet
  facet normal 1 0 0
    outer loop
      vertex 30 29.4459 -49.0269
      vertex 30 26.3008 -46.2042
      vertex 30 27.7443 -49.9346
    endloop
  endfacet
  facet normal 1 0 0
    outer loop
      vertex 30 26.3008 -46.2042
      vertex 30 25.8749 -50.4087
      vertex 30 27.7443 -49.9346
    endloop
  endfacet
  facet normal 1 -0 0
    outer loop
      vertex 30 24.8573 -46.4737
      vertex 30 25.8749 -50.4087
      vertex 30 26.3008 -46.2042
    endloop
  endfacet
  facet normal 1 0 0
    outer loop
      vertex 30 25.8749 -50.4087
      vertex 30 24.8573 -46.4737
      vertex 30 24.9573 -50.4149
    endloop
  endfacet
  facet normal 1 0 -0
    outer loop
      vertex 30 24.8573 -46.4737
      vertex 30 26.3008 -46.2042
      vertex 30 24.8573 -46.3893
    endloop
  endfacet
  facet normal 1 0 0
    outer loop
      vertex 30 24.8573 -46.4737
      vertex 30 -54.0242 -50.4737
      vertex 30 24.9573 -50.4149
    endloop
  endfacet
  facet normal 1 0 0
    outer loop
      vertex 30 24.9573 -50.4149
      vertex 30 -54.0242 -50.4737
      vertex 30 24.9573 -50.4737
    endloop
  endfacet
  facet normal -1 0 0
    outer loop
      vertex -30 -54.0242 -50.4737
      vertex -30 24.9573 -50.4149
      vertex -30 24.9573 -50.4737
    endloop
  endfacet
  facet normal -1 -0 0
    outer loop
      vertex -30 24.9573 -50.4149
      vertex -30 -54.0242 -50.4737
      vertex -30 24.8573 -46.4737
    endloop
  endfacet
  facet normal -1 0 0
    outer loop
      vertex -30 24.8573 -46.4737
      vertex -30 -54.0242 -50.4737
      vertex -30 -54.0242 -46.4737
    endloop
  endfacet
  facet normal -1 0 0
    outer loop
      vertex -30 28.7474 -43.4049
      vertex -30 32.8571 -42.42
      vertex -30 32.6375 -44.3361
    endloop
  endfacet
  facet normal -1 0 0
    outer loop
      vertex -30 28.7474 -43.4049
      vertex -30 32.6375 -44.3361
      vertex -30 31.9657 -46.1439
    endloop
  endfacet
  facet normal -1 0 0
    outer loop
      vertex -30 28.7346 -41.4904
      vertex -30 32.8571 -42.42
      vertex -30 28.7474 -43.4049
    endloop
  endfacet
  facet normal -1 -0 0
    outer loop
      vertex -30 32.6118 -40.5071
      vertex -30 28.7346 -41.4904
      vertex -30 31.9158 -38.7085
    endloop
  endfacet
  facet normal -1 0 0
    outer loop
      vertex -30 27.8691 -45.106
      vertex -30 31.9657 -46.1439
      vertex -30 30.8809 -47.7384
    endloop
  endfacet
  facet normal -1 0 0
    outer loop
      vertex -30 27.8691 -45.106
      vertex -30 30.8809 -47.7384
      vertex -30 29.4459 -49.0269
    endloop
  endfacet
  facet normal -1 0 0
    outer loop
      vertex -30 32.8571 -42.42
      vertex -30 28.7346 -41.4904
      vertex -30 32.6118 -40.5071
    endloop
  endfacet
  facet normal -1 0 0
    outer loop
      vertex -30 28.1339 -40.1794
      vertex -30 31.9158 -38.7085
      vertex -30 28.7346 -41.4904
    endloop
  endfacet
  facet normal -1 -0 0
    outer loop
      vertex -30 31.9158 -38.7085
      vertex -30 28.1339 -40.1794
      vertex -30 31.3627 -37.9186
    endloop
  endfacet
  facet normal -1 0 0
    outer loop
      vertex -30 9.68267 -6.8545
      vertex -30 31.3627 -37.9186
      vertex -30 28.1339 -40.1794
    endloop
  endfacet
  facet normal -1 0 0
    outer loop
      vertex -30 31.3627 -37.9186
      vertex -30 9.68267 -6.8545
      vertex -30 31.4105 -37.8851
    endloop
  endfacet
  facet normal -1 0 0
    outer loop
      vertex -30 28.7346 -41.4904
      vertex -30 28.0621 -40.2297
      vertex -30 28.1339 -40.1794
    endloop
  endfacet
  facet normal -1 0 0
    outer loop
      vertex -30 31.9657 -46.1439
      vertex -30 27.8691 -45.106
      vertex -30 28.7474 -43.4049
    endloop
  endfacet
  facet normal -1 0 0
    outer loop
      vertex -30 26.3008 -46.2042
      vertex -30 29.4459 -49.0269
      vertex -30 27.7443 -49.9346
    endloop
  endfacet
  facet normal -1 0 0
    outer loop
      vertex -30 29.4459 -49.0269
      vertex -30 26.3008 -46.2042
      vertex -30 27.8691 -45.106
    endloop
  endfacet
  facet normal -1 0 0
    outer loop
      vertex -30 25.8749 -50.4087
      vertex -30 26.3008 -46.2042
      vertex -30 27.7443 -49.9346
    endloop
  endfacet
  facet normal -1 0 0
    outer loop
      vertex -30 24.8573 -46.4737
      vertex -30 25.8749 -50.4087
      vertex -30 24.9573 -50.4149
    endloop
  endfacet
  facet normal -1 0 0
    outer loop
      vertex -30 25.8749 -50.4087
      vertex -30 24.8573 -46.4737
      vertex -30 26.3008 -46.2042
    endloop
  endfacet
  facet normal -1 0 0
    outer loop
      vertex -30 26.3008 -46.2042
      vertex -30 24.8573 -46.4737
      vertex -30 24.8573 -46.3893
    endloop
  endfacet
  facet normal -1 0 0
    outer loop
      vertex -30 -11.4715 16.383
      vertex -30 -8.19491 18.6773
      vertex -30 3.27661 2.2943
    endloop
  endfacet
  facet normal -1 0 0
    outer loop
      vertex -30 9.5583 -6.59949
      vertex -30 3.27661 2.2943
      vertex -30 9.42984 -5.68551
    endloop
  endfacet
  facet normal -1 0 0
    outer loop
      vertex -30 3.27661 2.2943
      vertex -30 9.5583 -6.59949
      vertex -30 9.68267 -6.8545
    endloop
  endfacet
  facet normal -1 0 0
    outer loop
      vertex -30 10.6873 -3.3205
      vertex -30 12.8607 9.00513
      vertex -30 17.9368 1.75564
    endloop
  endfacet
  facet normal -1 0 0
    outer loop
      vertex -30 3.27661 2.2943
      vertex -30 10.6873 -3.3205
      vertex -30 10.0234 -3.96165
    endloop
  endfacet
  facet normal -1 0 0
    outer loop
      vertex -30 3.27661 2.2943
      vertex -30 10.0234 -3.96165
      vertex -30 9.59011 -4.77657
    endloop
  endfacet
  facet normal -1 0 0
    outer loop
      vertex -30 10.6873 -3.3205
      vertex -30 3.27661 2.2943
      vertex -30 12.8607 9.00513
    endloop
  endfacet
  facet normal -1 0 0
    outer loop
      vertex -30 3.27661 2.2943
      vertex -30 9.59011 -4.77657
      vertex -30 9.42984 -5.68551
    endloop
  endfacet
  facet normal -1 0 0
    outer loop
      vertex -30 -11.4715 16.383
      vertex -30 3.27661 2.2943
      vertex -30 9.68267 -6.8545
    endloop
  endfacet
  facet normal -1 0 0
    outer loop
      vertex -30 -11.4715 16.383
      vertex -30 9.68267 -6.8545
      vertex -30 28.1339 -40.1794
    endloop
  endfacet
  facet normal 0 -2.15272e-07 1
    outer loop
      vertex -22 24.8573 -46.4737
      vertex -30 24.8573 -46.4737
      vertex -22 -46.0242 -46.4737
    endloop
  endfacet
  facet normal 0 -2.15272e-07 1
    outer loop
      vertex 22 -46.0242 -46.4737
      vertex 30 24.8573 -46.4737
      vertex 22 24.8573 -46.4737
    endloop
  endfacet
  facet normal -1.93439e-07 -1.93439e-07 1
    outer loop
      vertex 30 24.8573 -46.4737
      vertex 22 -46.0242 -46.4737
      vertex 30 -54.0242 -46.4737
    endloop
  endfacet
  facet normal -0 0 1
    outer loop
      vertex -22 -46.0242 -46.4737
      vertex 30 -54.0242 -46.4737
      vertex 22 -46.0242 -46.4737
    endloop
  endfacet
  facet normal 0 0 1
    outer loop
      vertex -22 -46.0242 -46.4737
      vertex -30 -54.0242 -46.4737
      vertex 30 -54.0242 -46.4737
    endloop
  endfacet
  facet normal 1.93439e-07 -1.93439e-07 1
    outer loop
      vertex -30 -54.0242 -46.4737
      vertex -22 -46.0242 -46.4737
      vertex -30 24.8573 -46.4737
    endloop
  endfacet
  facet normal 0 -1 -4.51896e-05
    outer loop
      vertex 22 24.8573 -46.4737
      vertex 30 24.8573 -46.3893
      vertex 22 24.8573 -46.3893
    endloop
  endfacet
  facet normal 0 -1 -4.51896e-05
    outer loop
      vertex 30 24.8573 -46.3893
      vertex 22 24.8573 -46.4737
      vertex 30 24.8573 -46.4737
    endloop
  endfacet
  facet normal 0 -1 -4.51896e-05
    outer loop
      vertex -30 24.8573 -46.4737
      vertex -22 24.8573 -46.3893
      vertex -30 24.8573 -46.3893
    endloop
  endfacet
  facet normal 0 -1 -4.51896e-05
    outer loop
      vertex -22 24.8573 -46.3893
      vertex -30 24.8573 -46.4737
      vertex -22 24.8573 -46.4737
    endloop
  endfacet
  facet normal 0 -0.1272 0.991877
    outer loop
      vertex 22 26.3008 -46.2042
      vertex 30 24.8573 -46.3893
      vertex 30 26.3008 -46.2042
    endloop
  endfacet
  facet normal 0 -0.1272 0.991877
    outer loop
      vertex 30 24.8573 -46.3893
      vertex 22 26.3008 -46.2042
      vertex 22 24.8573 -46.3893
    endloop
  endfacet
  facet normal 0 -0.1272 0.991877
    outer loop
      vertex -30 26.3008 -46.2042
      vertex -22 24.8573 -46.3893
      vertex -22 26.3008 -46.2042
    endloop
  endfacet
  facet normal 0 -0.1272 0.991877
    outer loop
      vertex -22 24.8573 -46.3893
      vertex -30 26.3008 -46.2042
      vertex -30 24.8573 -46.3893
    endloop
  endfacet
  facet normal 0 -0.573577 0.819152
    outer loop
      vertex 22 27.8691 -45.106
      vertex 30 26.3008 -46.2042
      vertex 30 27.8691 -45.106
    endloop
  endfacet
  facet normal 0 -0.573577 0.819152
    outer loop
      vertex 30 26.3008 -46.2042
      vertex 22 27.8691 -45.106
      vertex 22 26.3008 -46.2042
    endloop
  endfacet
  facet normal 0 -0.573577 0.819152
    outer loop
      vertex -30 27.8691 -45.106
      vertex -22 26.3008 -46.2042
      vertex -22 27.8691 -45.106
    endloop
  endfacet
  facet normal 0 -0.573577 0.819152
    outer loop
      vertex -22 26.3008 -46.2042
      vertex -30 27.8691 -45.106
      vertex -30 26.3008 -46.2042
    endloop
  endfacet
  facet normal 0 -0.888556 0.458768
    outer loop
      vertex 22 27.8691 -45.106
      vertex 30 28.7474 -43.4049
      vertex 22 28.7474 -43.4049
    endloop
  endfacet
  facet normal 0 -0.888556 0.458768
    outer loop
      vertex 30 28.7474 -43.4049
      vertex 22 27.8691 -45.106
      vertex 30 27.8691 -45.106
    endloop
  endfacet
  facet normal 0 -0.888556 0.458768
    outer loop
      vertex -30 27.8691 -45.106
      vertex -22 28.7474 -43.4049
      vertex -30 28.7474 -43.4049
    endloop
  endfacet
  facet normal 0 -0.888556 0.458768
    outer loop
      vertex -22 28.7474 -43.4049
      vertex -30 27.8691 -45.106
      vertex -22 27.8691 -45.106
    endloop
  endfacet
  facet normal 0 -0.999977 -0.00671374
    outer loop
      vertex 22 28.7474 -43.4049
      vertex 30 28.7346 -41.4904
      vertex 22 28.7346 -41.4904
    endloop
  endfacet
  facet normal 0 -0.999977 -0.00671374
    outer loop
      vertex 30 28.7346 -41.4904
      vertex 22 28.7474 -43.4049
      vertex 30 28.7474 -43.4049
    endloop
  endfacet
  facet normal 0 -0.999977 -0.00671374
    outer loop
      vertex -30 28.7474 -43.4049
      vertex -22 28.7346 -41.4904
      vertex -30 28.7346 -41.4904
    endloop
  endfacet
  facet normal 0 -0.999977 -0.00671374
    outer loop
      vertex -22 28.7346 -41.4904
      vertex -30 28.7474 -43.4049
      vertex -22 28.7474 -43.4049
    endloop
  endfacet
  facet normal 0 -0.882316 -0.470658
    outer loop
      vertex 22 28.7346 -41.4904
      vertex 30 28.0621 -40.2297
      vertex 22 28.0621 -40.2297
    endloop
  endfacet
  facet normal 0 -0.882316 -0.470658
    outer loop
      vertex 30 28.0621 -40.2297
      vertex 22 28.7346 -41.4904
      vertex 30 28.7346 -41.4904
    endloop
  endfacet
  facet normal 0 -0.882316 -0.470658
    outer loop
      vertex -30 28.7346 -41.4904
      vertex -22 28.0621 -40.2297
      vertex -30 28.0621 -40.2297
    endloop
  endfacet
  facet normal 0 -0.882316 -0.470658
    outer loop
      vertex -22 28.0621 -40.2297
      vertex -30 28.7346 -41.4904
      vertex -22 28.7346 -41.4904
    endloop
  endfacet
  facet normal 0 -0.573572 0.819155
    outer loop
      vertex 22 28.1339 -40.1794
      vertex 30 28.0621 -40.2297
      vertex 30 28.1339 -40.1794
    endloop
  endfacet
  facet normal 0 -0.573572 0.819155
    outer loop
      vertex 30 28.0621 -40.2297
      vertex 22 28.1339 -40.1794
      vertex 22 28.0621 -40.2297
    endloop
  endfacet
  facet normal 0 -0.573572 0.819155
    outer loop
      vertex -30 28.1339 -40.1794
      vertex -22 28.0621 -40.2297
      vertex -22 28.1339 -40.1794
    endloop
  endfacet
  facet normal 0 -0.573572 0.819155
    outer loop
      vertex -22 28.0621 -40.2297
      vertex -30 28.1339 -40.1794
      vertex -30 28.0621 -40.2297
    endloop
  endfacet
  facet normal 0 -0.819152 -0.573576
    outer loop
      vertex -30 -11.4715 16.383
      vertex -2.29963 6.83733 -9.76472
      vertex 30 -11.4715 16.383
    endloop
  endfacet
  facet normal -3.64349e-08 -0.819152 -0.573576
    outer loop
      vertex -30 -11.4715 16.383
      vertex -6.79837 7.3858 -10.548
      vertex -2.29963 6.83733 -9.76472
    endloop
  endfacet
  facet normal 5.20325e-08 -0.819152 -0.573576
    outer loop
      vertex -30 -11.4715 16.383
      vertex -11 8.45878 -12.0804
      vertex -6.79837 7.3858 -10.548
    endloop
  endfacet
  facet normal -4.89878e-08 -0.819152 -0.573576
    outer loop
      vertex -30 -11.4715 16.383
      vertex -14.7209 10.0094 -14.2949
      vertex -11 8.45878 -12.0804
    endloop
  endfacet
  facet normal -5.34428e-09 -0.819152 -0.573576
    outer loop
      vertex -30 -11.4715 16.383
      vertex -17.7984 11.9698 -17.0947
      vertex -14.7209 10.0094 -14.2949
    endloop
  endfacet
  facet normal 3.65473e-09 -0.819152 -0.573576
    outer loop
      vertex -30 -11.4715 16.383
      vertex -20.098 14.2544 -20.3574
      vertex -17.7984 11.9698 -17.0947
    endloop
  endfacet
  facet normal 3.03787e-07 -0.819152 -0.573576
    outer loop
      vertex -30 -11.4715 16.383
      vertex -21.5192 16.7633 -23.9405
      vertex -20.098 14.2544 -20.3574
    endloop
  endfacet
  facet normal -9.01544e-08 -0.819152 -0.573576
    outer loop
      vertex -30 28.1339 -40.1794
      vertex -21.5192 16.7633 -23.9405
      vertex -30 -11.4715 16.383
    endloop
  endfacet
  facet normal 3.20924e-07 -0.819152 -0.573577
    outer loop
      vertex -21.5192 16.7633 -23.9405
      vertex -30 28.1339 -40.1794
      vertex -22 19.3869 -27.6873
    endloop
  endfacet
  facet normal 0 -0.819152 -0.573576
    outer loop
      vertex -22 19.3869 -27.6873
      vertex -30 28.1339 -40.1794
      vertex -22 28.1339 -40.1794
    endloop
  endfacet
  facet normal -0 -0.819152 -0.573576
    outer loop
      vertex 2.29963 6.83733 -9.76472
      vertex 30 -11.4715 16.383
      vertex -2.29963 6.83733 -9.76472
    endloop
  endfacet
  facet normal 3.64349e-08 -0.819152 -0.573576
    outer loop
      vertex 6.79837 7.3858 -10.548
      vertex 30 -11.4715 16.383
      vertex 2.29963 6.83733 -9.76472
    endloop
  endfacet
  facet normal -5.20325e-08 -0.819152 -0.573576
    outer loop
      vertex 11 8.45878 -12.0804
      vertex 30 -11.4715 16.383
      vertex 6.79837 7.3858 -10.548
    endloop
  endfacet
  facet normal 4.89878e-08 -0.819152 -0.573576
    outer loop
      vertex 14.7209 10.0094 -14.2949
      vertex 30 -11.4715 16.383
      vertex 11 8.45878 -12.0804
    endloop
  endfacet
  facet normal 5.34428e-09 -0.819152 -0.573576
    outer loop
      vertex 17.7984 11.9698 -17.0947
      vertex 30 -11.4715 16.383
      vertex 14.7209 10.0094 -14.2949
    endloop
  endfacet
  facet normal -3.65473e-09 -0.819152 -0.573576
    outer loop
      vertex 20.098 14.2544 -20.3574
      vertex 30 -11.4715 16.383
      vertex 17.7984 11.9698 -17.0947
    endloop
  endfacet
  facet normal -3.03787e-07 -0.819152 -0.573576
    outer loop
      vertex 21.5192 16.7633 -23.9405
      vertex 30 -11.4715 16.383
      vertex 20.098 14.2544 -20.3574
    endloop
  endfacet
  facet normal -3.20924e-07 -0.819152 -0.573577
    outer loop
      vertex 30 28.1339 -40.1794
      vertex 21.5192 16.7633 -23.9405
      vertex 22 19.3869 -27.6873
    endloop
  endfacet
  facet normal -0 -0.819152 -0.573576
    outer loop
      vertex 30 28.1339 -40.1794
      vertex 22 19.3869 -27.6873
      vertex 22 28.1339 -40.1794
    endloop
  endfacet
  facet normal 9.01544e-08 -0.819152 -0.573576
    outer loop
      vertex 21.5192 16.7633 -23.9405
      vertex 30 28.1339 -40.1794
      vertex 30 -11.4715 16.383
    endloop
  endfacet
  facet normal 0 -0.573576 0.819152
    outer loop
      vertex -30 -8.19491 18.6773
      vertex 30 -11.4715 16.383
      vertex 30 -8.19491 18.6773
    endloop
  endfacet
  facet normal 0 -0.573576 0.819152
    outer loop
      vertex 30 -11.4715 16.383
      vertex -30 -8.19491 18.6773
      vertex -30 -11.4715 16.383
    endloop
  endfacet
  facet normal 0 0.819152 0.573576
    outer loop
      vertex 30 3.27661 2.2943
      vertex -30 -8.19491 18.6773
      vertex 30 -8.19491 18.6773
    endloop
  endfacet
  facet normal 0 0.819152 0.573576
    outer loop
      vertex -30 -8.19491 18.6773
      vertex 30 3.27661 2.2943
      vertex -30 3.27661 2.2943
    endloop
  endfacet
  facet normal 4.25877e-09 -0.573576 0.819152
    outer loop
      vertex 30 12.8607 9.00513
      vertex 6.49998 9.42025 6.59612
      vertex 30 3.27661 2.2943
    endloop
  endfacet
  facet normal -1.43493e-07 -0.573576 0.819153
    outer loop
      vertex 30 12.8607 9.00513
      vertex 6.47783 9.6509 6.75762
      vertex 6.49998 9.42025 6.59612
    endloop
  endfacet
  facet normal -8.28608e-08 -0.573576 0.819152
    outer loop
      vertex 30 12.8607 9.00513
      vertex 6.41189 9.87589 6.91516
      vertex 6.47783 9.6509 6.75762
    endloop
  endfacet
  facet normal 1.52796e-07 -0.573577 0.819151
    outer loop
      vertex 30 12.8607 9.00513
      vertex 6.3038 10.0896 7.06483
      vertex 6.41189 9.87589 6.91516
    endloop
  endfacet
  facet normal -1.00466e-07 -0.573576 0.819152
    outer loop
      vertex 30 12.8607 9.00513
      vertex 6.15622 10.2869 7.20296
      vertex 6.3038 10.0896 7.06483
    endloop
  endfacet
  facet normal -3.57151e-09 -0.573576 0.819152
    outer loop
      vertex 30 12.8607 9.00513
      vertex 5.97277 10.4629 7.32616
      vertex 6.15622 10.2869 7.20296
    endloop
  endfacet
  facet normal -1.90205e-07 -0.573575 0.819153
    outer loop
      vertex 30 12.8607 9.00513
      vertex 5.75799 10.6131 7.43137
      vertex 5.97277 10.4629 7.32616
    endloop
  endfacet
  facet normal 3.30963e-07 -0.573579 0.81915
    outer loop
      vertex 30 12.8607 9.00513
      vertex 5.51716 10.734 7.51603
      vertex 5.75799 10.6131 7.43137
    endloop
  endfacet
  facet normal -2.86123e-07 -0.573574 0.819154
    outer loop
      vertex 30 12.8607 9.00513
      vertex 5.25622 10.8226 7.57802
      vertex 5.51716 10.734 7.51603
    endloop
  endfacet
  facet normal 1.12659e-07 -0.573577 0.819151
    outer loop
      vertex 30 12.8607 9.00513
      vertex 4.98156 10.8766 7.61584
      vertex 5.25622 10.8226 7.57802
    endloop
  endfacet
  facet normal -2.33513e-07 -0.573575 0.819153
    outer loop
      vertex 30 12.8607 9.00513
      vertex 4.69999 10.8947 7.62855
      vertex 4.98156 10.8766 7.61584
    endloop
  endfacet
  facet normal 0 -0.573577 0.819152
    outer loop
      vertex 30 12.8607 9.00513
      vertex -4.7 10.8947 7.62855
      vertex 4.69999 10.8947 7.62855
    endloop
  endfacet
  facet normal -2.446e-08 -0.573577 0.819152
    outer loop
      vertex -6.49999 9.42025 6.59612
      vertex -30 12.8607 9.00513
      vertex -6.49999 6.79897 4.76068
    endloop
  endfacet
  facet normal 1.43493e-07 -0.573576 0.819153
    outer loop
      vertex -6.47783 9.6509 6.75762
      vertex -30 12.8607 9.00513
      vertex -6.49999 9.42025 6.59612
    endloop
  endfacet
  facet normal 8.28608e-08 -0.573576 0.819152
    outer loop
      vertex -6.4119 9.87589 6.91516
      vertex -30 12.8607 9.00513
      vertex -6.47783 9.6509 6.75762
    endloop
  endfacet
  facet normal -1.52796e-07 -0.573577 0.819151
    outer loop
      vertex -6.30381 10.0896 7.06483
      vertex -30 12.8607 9.00513
      vertex -6.4119 9.87589 6.91516
    endloop
  endfacet
  facet normal 1.00466e-07 -0.573576 0.819152
    outer loop
      vertex -6.15622 10.2869 7.20296
      vertex -30 12.8607 9.00513
      vertex -6.30381 10.0896 7.06483
    endloop
  endfacet
  facet normal 3.57151e-09 -0.573576 0.819152
    outer loop
      vertex -5.97278 10.4629 7.32616
      vertex -30 12.8607 9.00513
      vertex -6.15622 10.2869 7.20296
    endloop
  endfacet
  facet normal 1.90205e-07 -0.573575 0.819153
    outer loop
      vertex -5.758 10.6131 7.43137
      vertex -30 12.8607 9.00513
      vertex -5.97278 10.4629 7.32616
    endloop
  endfacet
  facet normal -3.30963e-07 -0.573579 0.81915
    outer loop
      vertex -5.51717 10.734 7.51603
      vertex -30 12.8607 9.00513
      vertex -5.758 10.6131 7.43137
    endloop
  endfacet
  facet normal 2.86123e-07 -0.573574 0.819154
    outer loop
      vertex -5.25623 10.8226 7.57802
      vertex -30 12.8607 9.00513
      vertex -5.51717 10.734 7.51603
    endloop
  endfacet
  facet normal -1.12659e-07 -0.573577 0.819151
    outer loop
      vertex -4.98157 10.8766 7.61584
      vertex -30 12.8607 9.00513
      vertex -5.25623 10.8226 7.57802
    endloop
  endfacet
  facet normal 2.33513e-07 -0.573575 0.819153
    outer loop
      vertex -4.7 10.8947 7.62855
      vertex -30 12.8607 9.00513
      vertex -4.98157 10.8766 7.61584
    endloop
  endfacet
  facet normal 0 -0.573577 0.819152
    outer loop
      vertex -30 12.8607 9.00513
      vertex -4.7 10.8947 7.62855
      vertex 30 12.8607 9.00513
    endloop
  endfacet
  facet normal -3.18149e-08 -0.573577 0.819152
    outer loop
      vertex 6.49998 6.79897 4.76068
      vertex 30 3.27661 2.2943
      vertex 6.49998 9.42025 6.59612
    endloop
  endfacet
  facet normal 1.40185e-07 -0.573576 0.819153
    outer loop
      vertex 6.47783 6.56832 4.59917
      vertex 30 3.27661 2.2943
      vertex 6.49998 6.79897 4.76068
    endloop
  endfacet
  facet normal 7.81539e-08 -0.573576 0.819152
    outer loop
      vertex 6.41189 6.34333 4.44164
      vertex 30 3.27661 2.2943
      vertex 6.47783 6.56832 4.59917
    endloop
  endfacet
  facet normal -1.6345e-07 -0.573577 0.819151
    outer loop
      vertex 6.3038 6.12958 4.29197
      vertex 30 3.27661 2.2943
      vertex 6.41189 6.34333 4.44164
    endloop
  endfacet
  facet normal 9.69663e-08 -0.573576 0.819152
    outer loop
      vertex 6.15622 5.9323 4.15383
      vertex 30 3.27661 2.2943
      vertex 6.3038 6.12958 4.29197
    endloop
  endfacet
  facet normal -2.58875e-09 -0.573576 0.819152
    outer loop
      vertex 5.97277 5.75636 4.03064
      vertex 30 3.27661 2.2943
      vertex 6.15622 5.9323 4.15383
    endloop
  endfacet
  facet normal -9.07758e-08 -0.573577 0.819152
    outer loop
      vertex 5.75799 5.6061 3.92542
      vertex 30 3.27661 2.2943
      vertex 5.97277 5.75636 4.03064
    endloop
  endfacet
  facet normal 7.95469e-08 -0.573576 0.819152
    outer loop
      vertex 5.51716 5.48521 3.84077
      vertex 30 3.27661 2.2943
      vertex 5.75799 5.6061 3.92542
    endloop
  endfacet
  facet normal -1.83746e-08 -0.573577 0.819152
    outer loop
      vertex 5.25622 5.39666 3.77877
      vertex 30 3.27661 2.2943
      vertex 5.51716 5.48521 3.84077
    endloop
  endfacet
  facet normal 8.95936e-08 -0.573576 0.819153
    outer loop
      vertex 4.98156 5.34265 3.74095
      vertex 30 3.27661 2.2943
      vertex 5.25622 5.39666 3.77877
    endloop
  endfacet
  facet normal 7.87878e-08 -0.573576 0.819152
    outer loop
      vertex 4.69999 5.3245 3.72825
      vertex 30 3.27661 2.2943
      vertex 4.98156 5.34265 3.74095
    endloop
  endfacet
  facet normal 0 -0.573576 0.819152
    outer loop
      vertex -4.7 5.3245 3.72825
      vertex 30 3.27661 2.2943
      vertex 4.69999 5.3245 3.72825
    endloop
  endfacet
  facet normal 1.11327e-08 -0.573576 0.819152
    outer loop
      vertex -30 3.27661 2.2943
      vertex -6.49999 6.79897 4.76068
      vertex -30 12.8607 9.00513
    endloop
  endfacet
  facet normal -1.40185e-07 -0.573576 0.819153
    outer loop
      vertex -6.49999 6.79897 4.76068
      vertex -30 3.27661 2.2943
      vertex -6.47783 6.56832 4.59917
    endloop
  endfacet
  facet normal -7.81539e-08 -0.573576 0.819152
    outer loop
      vertex -6.47783 6.56832 4.59917
      vertex -30 3.27661 2.2943
      vertex -6.4119 6.34333 4.44164
    endloop
  endfacet
  facet normal 1.6345e-07 -0.573577 0.819151
    outer loop
      vertex -6.4119 6.34333 4.44164
      vertex -30 3.27661 2.2943
      vertex -6.30381 6.12958 4.29197
    endloop
  endfacet
  facet normal -9.69663e-08 -0.573576 0.819152
    outer loop
      vertex -6.30381 6.12958 4.29197
      vertex -30 3.27661 2.2943
      vertex -6.15622 5.9323 4.15383
    endloop
  endfacet
  facet normal 2.58875e-09 -0.573576 0.819152
    outer loop
      vertex -6.15622 5.9323 4.15383
      vertex -30 3.27661 2.2943
      vertex -5.97278 5.75636 4.03064
    endloop
  endfacet
  facet normal 9.07758e-08 -0.573577 0.819152
    outer loop
      vertex -5.97278 5.75636 4.03064
      vertex -30 3.27661 2.2943
      vertex -5.758 5.6061 3.92542
    endloop
  endfacet
  facet normal -7.9547e-08 -0.573576 0.819152
    outer loop
      vertex -5.758 5.6061 3.92542
      vertex -30 3.27661 2.2943
      vertex -5.51717 5.48521 3.84077
    endloop
  endfacet
  facet normal 0 -0.573576 0.819152
    outer loop
      vertex -4.7 5.3245 3.72825
      vertex -30 3.27661 2.2943
      vertex 30 3.27661 2.2943
    endloop
  endfacet
  facet normal -7.87878e-08 -0.573576 0.819152
    outer loop
      vertex -4.98157 5.34265 3.74095
      vertex -30 3.27661 2.2943
      vertex -4.7 5.3245 3.72825
    endloop
  endfacet
  facet normal -8.95936e-08 -0.573576 0.819153
    outer loop
      vertex -5.25623 5.39666 3.77877
      vertex -30 3.27661 2.2943
      vertex -4.98157 5.34265 3.74095
    endloop
  endfacet
  facet normal 1.83746e-08 -0.573577 0.819152
    outer loop
      vertex -5.51717 5.48521 3.84077
      vertex -30 3.27661 2.2943
      vertex -5.25623 5.39666 3.77877
    endloop
  endfacet
  facet normal 0 0.819152 0.573576
    outer loop
      vertex 30 17.9368 1.75564
      vertex -30 12.8607 9.00513
      vertex 30 12.8607 9.00513
    endloop
  endfacet
  facet normal 0 0.819152 0.573576
    outer loop
      vertex -30 12.8607 9.00513
      vertex 30 17.9368 1.75564
      vertex -30 17.9368 1.75564
    endloop
  endfacet
  facet normal -1.52215e-08 0.573577 -0.819152
    outer loop
      vertex -6.49999 11.8751 -2.48881
      vertex -30 10.6873 -3.3205
      vertex -6.49999 14.4964 -0.653368
    endloop
  endfacet
  facet normal -2.78223e-10 0.573576 -0.819152
    outer loop
      vertex -6.47783 11.6445 -2.65031
      vertex -30 10.6873 -3.3205
      vertex -6.49999 11.8751 -2.48881
    endloop
  endfacet
  facet normal 1.63277e-08 0.573576 -0.819152
    outer loop
      vertex -6.4119 11.4195 -2.80785
      vertex -30 10.6873 -3.3205
      vertex -6.47783 11.6445 -2.65031
    endloop
  endfacet
  facet normal -1.58715e-08 0.573577 -0.819152
    outer loop
      vertex -6.30381 11.2057 -2.95752
      vertex -30 10.6873 -3.3205
      vertex -6.4119 11.4195 -2.80785
    endloop
  endfacet
  facet normal 1.44417e-08 0.573576 -0.819152
    outer loop
      vertex -6.15622 11.0085 -3.09565
      vertex -30 10.6873 -3.3205
      vertex -6.30381 11.2057 -2.95752
    endloop
  endfacet
  facet normal 1.51482e-09 0.573576 -0.819152
    outer loop
      vertex -5.97278 10.8325 -3.21885
      vertex -30 10.6873 -3.3205
      vertex -6.15622 11.0085 -3.09565
    endloop
  endfacet
  facet normal 0 0.573577 -0.819152
    outer loop
      vertex -30 10.6873 -3.3205
      vertex -5.97278 10.8325 -3.21885
      vertex -5.76528 10.6873 -3.3205
    endloop
  endfacet
  facet normal 1.52215e-08 0.573577 -0.819152
    outer loop
      vertex 6.49998 14.4964 -0.653368
      vertex 30 10.6873 -3.3205
      vertex 6.49998 11.8751 -2.48881
    endloop
  endfacet
  facet normal 2.78223e-10 0.573576 -0.819152
    outer loop
      vertex 30 10.6873 -3.3205
      vertex 6.47783 11.6445 -2.65031
      vertex 6.49998 11.8751 -2.48881
    endloop
  endfacet
  facet normal -1.63277e-08 0.573576 -0.819152
    outer loop
      vertex 30 10.6873 -3.3205
      vertex 6.41189 11.4195 -2.80785
      vertex 6.47783 11.6445 -2.65031
    endloop
  endfacet
  facet normal 1.58715e-08 0.573577 -0.819152
    outer loop
      vertex 30 10.6873 -3.3205
      vertex 6.3038 11.2057 -2.95752
      vertex 6.41189 11.4195 -2.80785
    endloop
  endfacet
  facet normal -1.44417e-08 0.573576 -0.819152
    outer loop
      vertex 30 10.6873 -3.3205
      vertex 6.15622 11.0085 -3.09565
      vertex 6.3038 11.2057 -2.95752
    endloop
  endfacet
  facet normal -1.51482e-09 0.573576 -0.819152
    outer loop
      vertex 30 10.6873 -3.3205
      vertex 5.97277 10.8325 -3.21885
      vertex 6.15622 11.0085 -3.09565
    endloop
  endfacet
  facet normal 0 0.573577 -0.819152
    outer loop
      vertex 5.97277 10.8325 -3.21885
      vertex 30 10.6873 -3.3205
      vertex 5.76527 10.6873 -3.3205
    endloop
  endfacet
  facet normal -5.287e-09 0.573576 -0.819152
    outer loop
      vertex 30 10.6873 -3.3205
      vertex 6.49998 14.4964 -0.653368
      vertex 30 17.9368 1.75564
    endloop
  endfacet
  facet normal 3.91817e-09 0.573576 -0.819152
    outer loop
      vertex 6.47783 14.727 -0.491866
      vertex 30 17.9368 1.75564
      vertex 6.49998 14.4964 -0.653368
    endloop
  endfacet
  facet normal 5.76461e-08 0.573576 -0.819152
    outer loop
      vertex 6.41189 14.952 -0.334329
      vertex 30 17.9368 1.75564
      vertex 6.47783 14.727 -0.491866
    endloop
  endfacet
  facet normal -2.86398e-08 0.573577 -0.819152
    outer loop
      vertex 6.3038 15.1658 -0.184659
      vertex 30 17.9368 1.75564
      vertex 6.41189 14.952 -0.334329
    endloop
  endfacet
  facet normal 5.19966e-08 0.573576 -0.819152
    outer loop
      vertex 6.15622 15.3631 -0.0465252
      vertex 30 17.9368 1.75564
      vertex 6.3038 15.1658 -0.184659
    endloop
  endfacet
  facet normal -4.18777e-08 0.573577 -0.819152
    outer loop
      vertex 5.97277 15.539 0.0766691
      vertex 30 17.9368 1.75564
      vertex 6.15622 15.3631 -0.0465252
    endloop
  endfacet
  facet normal 1.47174e-07 0.573575 -0.819153
    outer loop
      vertex 5.75799 15.6893 0.181887
      vertex 30 17.9368 1.75564
      vertex 5.97277 15.539 0.0766691
    endloop
  endfacet
  facet normal -1.34869e-07 0.573577 -0.819151
    outer loop
      vertex 5.51716 15.8102 0.266537
      vertex 30 17.9368 1.75564
      vertex 5.75799 15.6893 0.181887
    endloop
  endfacet
  facet normal 2.07584e-08 0.573576 -0.819152
    outer loop
      vertex 5.25622 15.8987 0.328537
      vertex 30 17.9368 1.75564
      vertex 5.51716 15.8102 0.266537
    endloop
  endfacet
  facet normal 6.2677e-08 0.573576 -0.819152
    outer loop
      vertex 4.98156 15.9527 0.366354
      vertex 30 17.9368 1.75564
      vertex 5.25622 15.8987 0.328537
    endloop
  endfacet
  facet normal 4.70468e-07 0.573572 -0.819155
    outer loop
      vertex 4.69999 15.9709 0.379062
      vertex 30 17.9368 1.75564
      vertex 4.98156 15.9527 0.366354
    endloop
  endfacet
  facet normal 0 0.573577 -0.819152
    outer loop
      vertex -4.7 15.9709 0.379062
      vertex 30 17.9368 1.75564
      vertex 4.69999 15.9709 0.379062
    endloop
  endfacet
  facet normal 5.28701e-09 0.573576 -0.819152
    outer loop
      vertex -30 17.9368 1.75564
      vertex -6.49999 14.4964 -0.653368
      vertex -30 10.6873 -3.3205
    endloop
  endfacet
  facet normal -3.91817e-09 0.573576 -0.819152
    outer loop
      vertex -6.49999 14.4964 -0.653368
      vertex -30 17.9368 1.75564
      vertex -6.47783 14.727 -0.491866
    endloop
  endfacet
  facet normal -5.76461e-08 0.573576 -0.819152
    outer loop
      vertex -6.47783 14.727 -0.491866
      vertex -30 17.9368 1.75564
      vertex -6.4119 14.952 -0.334329
    endloop
  endfacet
  facet normal 2.86399e-08 0.573577 -0.819152
    outer loop
      vertex -6.4119 14.952 -0.334329
      vertex -30 17.9368 1.75564
      vertex -6.30381 15.1658 -0.184659
    endloop
  endfacet
  facet normal -5.19966e-08 0.573576 -0.819152
    outer loop
      vertex -6.30381 15.1658 -0.184659
      vertex -30 17.9368 1.75564
      vertex -6.15622 15.3631 -0.0465252
    endloop
  endfacet
  facet normal 4.18777e-08 0.573577 -0.819152
    outer loop
      vertex -6.15622 15.3631 -0.0465252
      vertex -30 17.9368 1.75564
      vertex -5.97278 15.539 0.0766691
    endloop
  endfacet
  facet normal -1.47174e-07 0.573575 -0.819153
    outer loop
      vertex -5.97278 15.539 0.0766691
      vertex -30 17.9368 1.75564
      vertex -5.758 15.6893 0.181887
    endloop
  endfacet
  facet normal 1.3487e-07 0.573577 -0.819151
    outer loop
      vertex -5.758 15.6893 0.181887
      vertex -30 17.9368 1.75564
      vertex -5.51717 15.8102 0.266537
    endloop
  endfacet
  facet normal 0 0.573577 -0.819152
    outer loop
      vertex -4.7 15.9709 0.379062
      vertex -30 17.9368 1.75564
      vertex 30 17.9368 1.75564
    endloop
  endfacet
  facet normal -4.70468e-07 0.573572 -0.819155
    outer loop
      vertex -4.98157 15.9527 0.366354
      vertex -30 17.9368 1.75564
      vertex -4.7 15.9709 0.379062
    endloop
  endfacet
  facet normal -6.2677e-08 0.573576 -0.819152
    outer loop
      vertex -5.25623 15.8987 0.328537
      vertex -30 17.9368 1.75564
      vertex -4.98157 15.9527 0.366354
    endloop
  endfacet
  facet normal -2.07584e-08 0.573576 -0.819152
    outer loop
      vertex -5.51717 15.8102 0.266537
      vertex -30 17.9368 1.75564
      vertex -5.25623 15.8987 0.328537
    endloop
  endfacet
  facet normal 0 0.694668 -0.719331
    outer loop
      vertex 30 10.0234 -3.96165
      vertex 5.76527 10.6873 -3.3205
      vertex 30 10.6873 -3.3205
    endloop
  endfacet
  facet normal 1.73059e-06 0.694701 -0.719299
    outer loop
      vertex 30 10.0234 -3.96165
      vertex 5.75799 10.6828 -3.32487
      vertex 5.76527 10.6873 -3.3205
    endloop
  endfacet
  facet normal -3.90087e-08 0.694667 -0.719332
    outer loop
      vertex 30 10.0234 -3.96165
      vertex 5.51716 10.5753 -3.42867
      vertex 5.75799 10.6828 -3.32487
    endloop
  endfacet
  facet normal 4.09554e-08 0.694669 -0.71933
    outer loop
      vertex 30 10.0234 -3.96165
      vertex 5.25622 10.4966 -3.5047
      vertex 5.51716 10.5753 -3.42867
    endloop
  endfacet
  facet normal -2.92428e-08 0.694667 -0.719332
    outer loop
      vertex 30 10.0234 -3.96165
      vertex 4.98156 10.4486 -3.55107
      vertex 5.25622 10.4966 -3.5047
    endloop
  endfacet
  facet normal -7.30862e-08 0.694666 -0.719333
    outer loop
      vertex 30 10.0234 -3.96165
      vertex 4.69999 10.4324 -3.56665
      vertex 4.98156 10.4486 -3.55107
    endloop
  endfacet
  facet normal 0 0.694668 -0.719331
    outer loop
      vertex 30 10.0234 -3.96165
      vertex -4.7 10.4324 -3.56665
      vertex 4.69999 10.4324 -3.56665
    endloop
  endfacet
  facet normal 0 0.694668 -0.719331
    outer loop
      vertex -30 10.0234 -3.96165
      vertex -4.7 10.4324 -3.56665
      vertex 30 10.0234 -3.96165
    endloop
  endfacet
  facet normal 7.30862e-08 0.694666 -0.719333
    outer loop
      vertex -30 10.0234 -3.96165
      vertex -4.98157 10.4486 -3.55107
      vertex -4.7 10.4324 -3.56665
    endloop
  endfacet
  facet normal 2.92428e-08 0.694667 -0.719332
    outer loop
      vertex -30 10.0234 -3.96165
      vertex -5.25623 10.4966 -3.5047
      vertex -4.98157 10.4486 -3.55107
    endloop
  endfacet
  facet normal -4.09554e-08 0.694669 -0.71933
    outer loop
      vertex -30 10.0234 -3.96165
      vertex -5.51717 10.5753 -3.42867
      vertex -5.25623 10.4966 -3.5047
    endloop
  endfacet
  facet normal 3.90087e-08 0.694667 -0.719332
    outer loop
      vertex -30 10.0234 -3.96165
      vertex -5.758 10.6828 -3.32487
      vertex -5.51717 10.5753 -3.42867
    endloop
  endfacet
  facet normal -1.73059e-06 0.694701 -0.719299
    outer loop
      vertex -30 10.0234 -3.96165
      vertex -5.76528 10.6873 -3.3205
      vertex -5.758 10.6828 -3.32487
    endloop
  endfacet
  facet normal 0 0.694668 -0.719331
    outer loop
      vertex -5.76528 10.6873 -3.3205
      vertex -30 10.0234 -3.96165
      vertex -30 10.6873 -3.3205
    endloop
  endfacet
  facet normal 0 0.882941 -0.469483
    outer loop
      vertex 30 9.59011 -4.77657
      vertex -30 10.0234 -3.96165
      vertex 30 10.0234 -3.96165
    endloop
  endfacet
  facet normal 0 0.882941 -0.469483
    outer loop
      vertex -30 10.0234 -3.96165
      vertex 30 9.59011 -4.77657
      vertex -30 9.59011 -4.77657
    endloop
  endfacet
  facet normal 0 0.984808 -0.173648
    outer loop
      vertex 30 9.42984 -5.68551
      vertex -30 9.59011 -4.77657
      vertex 30 9.59011 -4.77657
    endloop
  endfacet
  facet normal 0 0.984808 -0.173648
    outer loop
      vertex -30 9.59011 -4.77657
      vertex 30 9.42984 -5.68551
      vertex -30 9.42984 -5.68551
    endloop
  endfacet
  facet normal 0 0.990266 0.139186
    outer loop
      vertex 30 9.5583 -6.59949
      vertex -30 9.42984 -5.68551
      vertex 30 9.42984 -5.68551
    endloop
  endfacet
  facet normal 0 0.990266 0.139186
    outer loop
      vertex -30 9.42984 -5.68551
      vertex 30 9.5583 -6.59949
      vertex -30 9.5583 -6.59949
    endloop
  endfacet
  facet normal 0 0.8988 0.438358
    outer loop
      vertex 30 9.68267 -6.8545
      vertex -30 9.5583 -6.59949
      vertex 30 9.5583 -6.59949
    endloop
  endfacet
  facet normal 0 0.8988 0.438358
    outer loop
      vertex -30 9.5583 -6.59949
      vertex 30 9.68267 -6.8545
      vertex -30 9.68267 -6.8545
    endloop
  endfacet
  facet normal 0 0.819152 0.573576
    outer loop
      vertex 30 9.68267 -6.8545
      vertex 2.29963 10.1139 -7.47041
      vertex -30 9.68267 -6.8545
    endloop
  endfacet
  facet normal -7.56706e-09 0.819152 0.573576
    outer loop
      vertex 30 9.68267 -6.8545
      vertex 6.79837 10.6624 -8.25371
      vertex 2.29963 10.1139 -7.47041
    endloop
  endfacet
  facet normal -7.5135e-09 0.819152 0.573576
    outer loop
      vertex 30 9.68267 -6.8545
      vertex 11 11.7354 -9.78609
      vertex 6.79837 10.6624 -8.25371
    endloop
  endfacet
  facet normal 3.01372e-08 0.819152 0.573576
    outer loop
      vertex 30 9.68267 -6.8545
      vertex 14.7209 13.286 -12.0006
      vertex 11 11.7354 -9.78609
    endloop
  endfacet
  facet normal -2.81396e-08 0.819152 0.573576
    outer loop
      vertex 30 9.68267 -6.8545
      vertex 17.7984 15.2464 -14.8004
      vertex 14.7209 13.286 -12.0006
    endloop
  endfacet
  facet normal -1.34727e-07 0.819152 0.573577
    outer loop
      vertex 30 9.68267 -6.8545
      vertex 20.098 17.531 -18.0631
      vertex 17.7984 15.2464 -14.8004
    endloop
  endfacet
  facet normal 4.87428e-09 0.819152 0.573576
    outer loop
      vertex 30 9.68267 -6.8545
      vertex 21.5192 20.0399 -21.6462
      vertex 20.098 17.531 -18.0631
    endloop
  endfacet
  facet normal -2.19632e-07 0.819152 0.573577
    outer loop
      vertex 30 9.68267 -6.8545
      vertex 22 22.6635 -25.393
      vertex 21.5192 20.0399 -21.6462
    endloop
  endfacet
  facet normal 7.35869e-08 0.819152 0.573576
    outer loop
      vertex 30 31.4105 -37.8851
      vertex 22 22.6635 -25.393
      vertex 30 9.68267 -6.8545
    endloop
  endfacet
  facet normal 0 0.819152 0.573576
    outer loop
      vertex 22 22.6635 -25.393
      vertex 30 31.4105 -37.8851
      vertex 22 31.4105 -37.8851
    endloop
  endfacet
  facet normal -0 0.819152 0.573576
    outer loop
      vertex -2.29963 10.1139 -7.47041
      vertex -30 9.68267 -6.8545
      vertex 2.29963 10.1139 -7.47041
    endloop
  endfacet
  facet normal 7.56706e-09 0.819152 0.573576
    outer loop
      vertex -6.79837 10.6624 -8.25371
      vertex -30 9.68267 -6.8545
      vertex -2.29963 10.1139 -7.47041
    endloop
  endfacet
  facet normal 7.5135e-09 0.819152 0.573576
    outer loop
      vertex -11 11.7354 -9.78609
      vertex -30 9.68267 -6.8545
      vertex -6.79837 10.6624 -8.25371
    endloop
  endfacet
  facet normal -3.01372e-08 0.819152 0.573576
    outer loop
      vertex -14.7209 13.286 -12.0006
      vertex -30 9.68267 -6.8545
      vertex -11 11.7354 -9.78609
    endloop
  endfacet
  facet normal 2.81396e-08 0.819152 0.573576
    outer loop
      vertex -17.7984 15.2464 -14.8004
      vertex -30 9.68267 -6.8545
      vertex -14.7209 13.286 -12.0006
    endloop
  endfacet
  facet normal 1.34727e-07 0.819152 0.573577
    outer loop
      vertex -20.098 17.531 -18.0631
      vertex -30 9.68267 -6.8545
      vertex -17.7984 15.2464 -14.8004
    endloop
  endfacet
  facet normal -4.87428e-09 0.819152 0.573576
    outer loop
      vertex -21.5192 20.0399 -21.6462
      vertex -30 9.68267 -6.8545
      vertex -20.098 17.531 -18.0631
    endloop
  endfacet
  facet normal 2.19632e-07 0.819152 0.573577
    outer loop
      vertex -22 22.6635 -25.393
      vertex -30 9.68267 -6.8545
      vertex -21.5192 20.0399 -21.6462
    endloop
  endfacet
  facet normal -0 0.819152 0.573576
    outer loop
      vertex -30 31.4105 -37.8851
      vertex -22 22.6635 -25.393
      vertex -22 31.4105 -37.8851
    endloop
  endfacet
  facet normal -7.35869e-08 0.819152 0.573576
    outer loop
      vertex -22 22.6635 -25.393
      vertex -30 31.4105 -37.8851
      vertex -30 9.68267 -6.8545
    endloop
  endfacet
  facet normal 0 0.573614 -0.819126
    outer loop
      vertex 22 31.3627 -37.9186
      vertex 30 31.4105 -37.8851
      vertex 30 31.3627 -37.9186
    endloop
  endfacet
  facet normal 0 0.573614 -0.819126
    outer loop
      vertex 30 31.4105 -37.8851
      vertex 22 31.3627 -37.9186
      vertex 22 31.4105 -37.8851
    endloop
  endfacet
  facet normal 0 0.573614 -0.819126
    outer loop
      vertex -30 31.3627 -37.9186
      vertex -22 31.4105 -37.8851
      vertex -22 31.3627 -37.9186
    endloop
  endfacet
  facet normal 0 0.573614 -0.819126
    outer loop
      vertex -22 31.4105 -37.8851
      vertex -30 31.3627 -37.9186
      vertex -30 31.4105 -37.8851
    endloop
  endfacet
  facet normal 0 0.819152 0.573577
    outer loop
      vertex 30 31.9158 -38.7085
      vertex 22 31.3627 -37.9186
      vertex 30 31.3627 -37.9186
    endloop
  endfacet
  facet normal 0 0.819152 0.573577
    outer loop
      vertex 22 31.3627 -37.9186
      vertex 30 31.9158 -38.7085
      vertex 22 31.9158 -38.7085
    endloop
  endfacet
  facet normal 0 0.819152 0.573577
    outer loop
      vertex -22 31.9158 -38.7085
      vertex -30 31.3627 -37.9186
      vertex -22 31.3627 -37.9186
    endloop
  endfacet
  facet normal 0 0.819152 0.573577
    outer loop
      vertex -30 31.3627 -37.9186
      vertex -22 31.9158 -38.7085
      vertex -30 31.9158 -38.7085
    endloop
  endfacet
  facet normal 0 0.932615 0.360873
    outer loop
      vertex 30 32.6118 -40.5071
      vertex 22 31.9158 -38.7085
      vertex 30 31.9158 -38.7085
    endloop
  endfacet
  facet normal 0 0.932615 0.360873
    outer loop
      vertex 22 31.9158 -38.7085
      vertex 30 32.6118 -40.5071
      vertex 22 32.6118 -40.5071
    endloop
  endfacet
  facet normal 0 0.932615 0.360873
    outer loop
      vertex -22 32.6118 -40.5071
      vertex -30 31.9158 -38.7085
      vertex -22 31.9158 -38.7085
    endloop
  endfacet
  facet normal 0 0.932615 0.360873
    outer loop
      vertex -30 31.9158 -38.7085
      vertex -22 32.6118 -40.5071
      vertex -30 32.6118 -40.5071
    endloop
  endfacet
  facet normal 0 0.991878 0.127196
    outer loop
      vertex 30 32.8571 -42.42
      vertex 22 32.6118 -40.5071
      vertex 30 32.6118 -40.5071
    endloop
  endfacet
  facet normal 0 0.991878 0.127196
    outer loop
      vertex 22 32.6118 -40.5071
      vertex 30 32.8571 -42.42
      vertex 22 32.8571 -42.42
    endloop
  endfacet
  facet normal 0 0.991878 0.127196
    outer loop
      vertex -22 32.8571 -42.42
      vertex -30 32.6118 -40.5071
      vertex -22 32.6118 -40.5071
    endloop
  endfacet
  facet normal 0 0.991878 0.127196
    outer loop
      vertex -30 32.6118 -40.5071
      vertex -22 32.8571 -42.42
      vertex -30 32.8571 -42.42
    endloop
  endfacet
  facet normal 0 0.993496 -0.113866
    outer loop
      vertex 30 32.6375 -44.3361
      vertex 22 32.8571 -42.42
      vertex 30 32.8571 -42.42
    endloop
  endfacet
  facet normal 0 0.993496 -0.113866
    outer loop
      vertex 22 32.8571 -42.42
      vertex 30 32.6375 -44.3361
      vertex 22 32.6375 -44.3361
    endloop
  endfacet
  facet normal 0 0.993496 -0.113866
    outer loop
      vertex -22 32.6375 -44.3361
      vertex -30 32.8571 -42.42
      vertex -22 32.8571 -42.42
    endloop
  endfacet
  facet normal 0 0.993496 -0.113866
    outer loop
      vertex -30 32.8571 -42.42
      vertex -22 32.6375 -44.3361
      vertex -30 32.6375 -44.3361
    endloop
  endfacet
  facet normal 0 0.937373 -0.348328
    outer loop
      vertex 30 31.9657 -46.1439
      vertex 22 32.6375 -44.3361
      vertex 30 32.6375 -44.3361
    endloop
  endfacet
  facet normal 0 0.937373 -0.348328
    outer loop
      vertex 22 32.6375 -44.3361
      vertex 30 31.9657 -46.1439
      vertex 22 31.9657 -46.1439
    endloop
  endfacet
  facet normal 0 0.937373 -0.348328
    outer loop
      vertex -22 31.9657 -46.1439
      vertex -30 32.6375 -44.3361
      vertex -22 32.6375 -44.3361
    endloop
  endfacet
  facet normal 0 0.937373 -0.348328
    outer loop
      vertex -30 32.6375 -44.3361
      vertex -22 31.9657 -46.1439
      vertex -30 31.9657 -46.1439
    endloop
  endfacet
  facet normal 0 0.826783 -0.562521
    outer loop
      vertex 30 30.8809 -47.7384
      vertex 22 31.9657 -46.1439
      vertex 30 31.9657 -46.1439
    endloop
  endfacet
  facet normal 0 0.826783 -0.562521
    outer loop
      vertex 22 31.9657 -46.1439
      vertex 30 30.8809 -47.7384
      vertex 22 30.8809 -47.7384
    endloop
  endfacet
  facet normal 0 0.826783 -0.562521
    outer loop
      vertex -22 30.8809 -47.7384
      vertex -30 31.9657 -46.1439
      vertex -22 31.9657 -46.1439
    endloop
  endfacet
  facet normal 0 0.826783 -0.562521
    outer loop
      vertex -30 31.9657 -46.1439
      vertex -22 30.8809 -47.7384
      vertex -30 30.8809 -47.7384
    endloop
  endfacet
  facet normal 0 0.668134 -0.744041
    outer loop
      vertex 22 29.4459 -49.0269
      vertex 30 30.8809 -47.7384
      vertex 30 29.4459 -49.0269
    endloop
  endfacet
  facet normal 0 0.668134 -0.744041
    outer loop
      vertex 30 30.8809 -47.7384
      vertex 22 29.4459 -49.0269
      vertex 22 30.8809 -47.7384
    endloop
  endfacet
  facet normal 0 0.668134 -0.744041
    outer loop
      vertex -30 29.4459 -49.0269
      vertex -22 30.8809 -47.7384
      vertex -22 29.4459 -49.0269
    endloop
  endfacet
  facet normal 0 0.668134 -0.744041
    outer loop
      vertex -22 30.8809 -47.7384
      vertex -30 29.4459 -49.0269
      vertex -30 30.8809 -47.7384
    endloop
  endfacet
  facet normal 0 0.470655 -0.882317
    outer loop
      vertex 22 27.7443 -49.9346
      vertex 30 29.4459 -49.0269
      vertex 30 27.7443 -49.9346
    endloop
  endfacet
  facet normal 0 0.470655 -0.882317
    outer loop
      vertex 30 29.4459 -49.0269
      vertex 22 27.7443 -49.9346
      vertex 22 29.4459 -49.0269
    endloop
  endfacet
  facet normal 0 0.470655 -0.882317
    outer loop
      vertex -30 27.7443 -49.9346
      vertex -22 29.4459 -49.0269
      vertex -22 27.7443 -49.9346
    endloop
  endfacet
  facet normal 0 0.470655 -0.882317
    outer loop
      vertex -22 29.4459 -49.0269
      vertex -30 27.7443 -49.9346
      vertex -30 29.4459 -49.0269
    endloop
  endfacet
  facet normal 0 0.245821 -0.969315
    outer loop
      vertex 22 25.8749 -50.4087
      vertex 30 27.7443 -49.9346
      vertex 30 25.8749 -50.4087
    endloop
  endfacet
  facet normal 0 0.245821 -0.969315
    outer loop
      vertex 30 27.7443 -49.9346
      vertex 22 25.8749 -50.4087
      vertex 22 27.7443 -49.9346
    endloop
  endfacet
  facet normal 0 0.245821 -0.969315
    outer loop
      vertex -30 25.8749 -50.4087
      vertex -22 27.7443 -49.9346
      vertex -22 25.8749 -50.4087
    endloop
  endfacet
  facet normal 0 0.245821 -0.969315
    outer loop
      vertex -22 27.7443 -49.9346
      vertex -30 25.8749 -50.4087
      vertex -30 27.7443 -49.9346
    endloop
  endfacet
  facet normal 0 0.00671395 -0.999977
    outer loop
      vertex 22 24.9573 -50.4149
      vertex 30 25.8749 -50.4087
      vertex 30 24.9573 -50.4149
    endloop
  endfacet
  facet normal 0 0.00671395 -0.999977
    outer loop
      vertex 30 25.8749 -50.4087
      vertex 22 24.9573 -50.4149
      vertex 22 25.8749 -50.4087
    endloop
  endfacet
  facet normal 0 0.00671395 -0.999977
    outer loop
      vertex -30 24.9573 -50.4149
      vertex -22 25.8749 -50.4087
      vertex -22 24.9573 -50.4149
    endloop
  endfacet
  facet normal 0 0.00671395 -0.999977
    outer loop
      vertex -22 25.8749 -50.4087
      vertex -30 24.9573 -50.4149
      vertex -30 25.8749 -50.4087
    endloop
  endfacet
  facet normal 0 1 6.48466e-05
    outer loop
      vertex 30 24.9573 -50.4737
      vertex 22 24.9573 -50.4149
      vertex 30 24.9573 -50.4149
    endloop
  endfacet
  facet normal 0 1 6.48466e-05
    outer loop
      vertex 22 24.9573 -50.4149
      vertex 30 24.9573 -50.4737
      vertex 22 24.9573 -50.4737
    endloop
  endfacet
  facet normal 0 1 6.48466e-05
    outer loop
      vertex -22 24.9573 -50.4737
      vertex -30 24.9573 -50.4149
      vertex -22 24.9573 -50.4149
    endloop
  endfacet
  facet normal 0 1 6.48466e-05
    outer loop
      vertex -30 24.9573 -50.4149
      vertex -22 24.9573 -50.4737
      vertex -30 24.9573 -50.4737
    endloop
  endfacet
  facet normal 4.82987e-08 4.82986e-08 -1
    outer loop
      vertex 30 -54.0242 -50.4737
      vertex 22 -46.0242 -50.4737
      vertex 30 24.9573 -50.4737
    endloop
  endfacet
  facet normal 0 0 -1
    outer loop
      vertex 30 -54.0242 -50.4737
      vertex -22 -46.0242 -50.4737
      vertex 22 -46.0242 -50.4737
    endloop
  endfacet
  facet normal 0 0 -1
    outer loop
      vertex -30 -54.0242 -50.4737
      vertex -22 -46.0242 -50.4737
      vertex 30 -54.0242 -50.4737
    endloop
  endfacet
  facet normal -4.82987e-08 4.82986e-08 -1
    outer loop
      vertex -30 24.9573 -50.4737
      vertex -22 -46.0242 -50.4737
      vertex -30 -54.0242 -50.4737
    endloop
  endfacet
  facet normal 0 5.37422e-08 -1
    outer loop
      vertex -22 -46.0242 -50.4737
      vertex -30 24.9573 -50.4737
      vertex -22 24.9573 -50.4737
    endloop
  endfacet
  facet normal 0 5.37422e-08 -1
    outer loop
      vertex 30 24.9573 -50.4737
      vertex 22 -46.0242 -50.4737
      vertex 22 24.9573 -50.4737
    endloop
  endfacet
  facet normal 0 -1 2.86103e-06
    outer loop
      vertex -30 -54.0242 -50.4737
      vertex 30 -54.0242 -46.4737
      vertex -30 -54.0242 -46.4737
    endloop
  endfacet
  facet normal 0 -1 2.86103e-06
    outer loop
      vertex 30 -54.0242 -46.4737
      vertex -30 -54.0242 -50.4737
      vertex 30 -54.0242 -50.4737
    endloop
  endfacet
  facet normal -0.994522 0.0599551 -0.0856248
    outer loop
      vertex 22 19.3869 -27.6873
      vertex 21.5192 20.0399 -21.6462
      vertex 22 22.6635 -25.393
    endloop
  endfacet
  facet normal -0.994522 0.0599551 -0.0856248
    outer loop
      vertex 21.5192 20.0399 -21.6462
      vertex 22 19.3869 -27.6873
      vertex 21.5192 16.7633 -23.9405
    endloop
  endfacet
  facet normal -0.866025 0.286788 -0.409576
    outer loop
      vertex 20.098 14.2544 -20.3574
      vertex 17.7984 15.2464 -14.8004
      vertex 20.098 17.531 -18.0631
    endloop
  endfacet
  facet normal -0.866025 0.286788 -0.409576
    outer loop
      vertex 17.7984 15.2464 -14.8004
      vertex 20.098 14.2544 -20.3574
      vertex 17.7984 11.9698 -17.0947
    endloop
  endfacet
  facet normal -0.587785 0.464033 -0.662708
    outer loop
      vertex 11 11.7354 -9.78609
      vertex 14.7209 10.0094 -14.2949
      vertex 11 8.45878 -12.0804
    endloop
  endfacet
  facet normal -0.587785 0.464033 -0.662708
    outer loop
      vertex 14.7209 10.0094 -14.2949
      vertex 11 11.7354 -9.78609
      vertex 14.7209 13.286 -12.0006
    endloop
  endfacet
  facet normal -0.743145 0.383798 -0.54812
    outer loop
      vertex 17.7984 11.9698 -17.0947
      vertex 14.7209 13.286 -12.0006
      vertex 17.7984 15.2464 -14.8004
    endloop
  endfacet
  facet normal -0.743145 0.383798 -0.54812
    outer loop
      vertex 14.7209 13.286 -12.0006
      vertex 17.7984 11.9698 -17.0947
      vertex 14.7209 10.0094 -14.2949
    endloop
  endfacet
  facet normal 0.207912 0.561042 -0.801252
    outer loop
      vertex -6.79837 7.3858 -10.548
      vertex -2.29963 10.1139 -7.47041
      vertex -2.29963 6.83733 -9.76472
    endloop
  endfacet
  facet normal 0.207911 0.561042 -0.801252
    outer loop
      vertex -2.29963 10.1139 -7.47041
      vertex -6.79837 7.3858 -10.548
      vertex -6.79837 10.6624 -8.25371
    endloop
  endfacet
  facet normal -0.951057 0.177245 -0.253132
    outer loop
      vertex 21.5192 16.7633 -23.9405
      vertex 20.098 17.531 -18.0631
      vertex 21.5192 20.0399 -21.6462
    endloop
  endfacet
  facet normal -0.951056 0.177245 -0.253132
    outer loop
      vertex 20.098 17.531 -18.0631
      vertex 21.5192 16.7633 -23.9405
      vertex 20.098 14.2544 -20.3574
    endloop
  endfacet
  facet normal 0 0.573576 -0.819152
    outer loop
      vertex -2.29963 6.83733 -9.76472
      vertex 2.29963 10.1139 -7.47041
      vertex 2.29963 6.83733 -9.76472
    endloop
  endfacet
  facet normal 0 0.573576 -0.819152
    outer loop
      vertex 2.29963 10.1139 -7.47041
      vertex -2.29963 6.83733 -9.76472
      vertex -2.29963 10.1139 -7.47041
    endloop
  endfacet
  facet normal -0.406737 0.523988 -0.748333
    outer loop
      vertex 6.79837 10.6624 -8.25371
      vertex 11 8.45878 -12.0804
      vertex 6.79837 7.3858 -10.548
    endloop
  endfacet
  facet normal -0.406737 0.523988 -0.748333
    outer loop
      vertex 11 8.45878 -12.0804
      vertex 6.79837 10.6624 -8.25371
      vertex 11 11.7354 -9.78609
    endloop
  endfacet
  facet normal -0.207912 0.561042 -0.801252
    outer loop
      vertex 2.29963 10.1139 -7.47041
      vertex 6.79837 7.3858 -10.548
      vertex 2.29963 6.83733 -9.76472
    endloop
  endfacet
  facet normal -0.207911 0.561042 -0.801252
    outer loop
      vertex 6.79837 7.3858 -10.548
      vertex 2.29963 10.1139 -7.47041
      vertex 6.79837 10.6624 -8.25371
    endloop
  endfacet
  facet normal 0.743145 0.383798 -0.54812
    outer loop
      vertex -14.7209 13.286 -12.0006
      vertex -17.7984 11.9698 -17.0947
      vertex -17.7984 15.2464 -14.8004
    endloop
  endfacet
  facet normal 0.743145 0.383798 -0.54812
    outer loop
      vertex -17.7984 11.9698 -17.0947
      vertex -14.7209 13.286 -12.0006
      vertex -14.7209 10.0094 -14.2949
    endloop
  endfacet
  facet normal 0.994522 0.0599551 -0.0856248
    outer loop
      vertex -21.5192 20.0399 -21.6462
      vertex -22 19.3869 -27.6873
      vertex -22 22.6635 -25.393
    endloop
  endfacet
  facet normal 0.994522 0.0599551 -0.0856248
    outer loop
      vertex -22 19.3869 -27.6873
      vertex -21.5192 20.0399 -21.6462
      vertex -21.5192 16.7633 -23.9405
    endloop
  endfacet
  facet normal 0.406737 0.523988 -0.748333
    outer loop
      vertex -11 8.45878 -12.0804
      vertex -6.79837 10.6624 -8.25371
      vertex -6.79837 7.3858 -10.548
    endloop
  endfacet
  facet normal 0.406737 0.523988 -0.748333
    outer loop
      vertex -6.79837 10.6624 -8.25371
      vertex -11 8.45878 -12.0804
      vertex -11 11.7354 -9.78609
    endloop
  endfacet
  facet normal 0.866025 0.286788 -0.409576
    outer loop
      vertex -17.7984 15.2464 -14.8004
      vertex -20.098 14.2544 -20.3574
      vertex -20.098 17.531 -18.0631
    endloop
  endfacet
  facet normal 0.866025 0.286788 -0.409576
    outer loop
      vertex -20.098 14.2544 -20.3574
      vertex -17.7984 15.2464 -14.8004
      vertex -17.7984 11.9698 -17.0947
    endloop
  endfacet
  facet normal 0.587785 0.464033 -0.662708
    outer loop
      vertex -14.7209 10.0094 -14.2949
      vertex -11 11.7354 -9.78609
      vertex -11 8.45878 -12.0804
    endloop
  endfacet
  facet normal 0.587785 0.464033 -0.662708
    outer loop
      vertex -11 11.7354 -9.78609
      vertex -14.7209 10.0094 -14.2949
      vertex -14.7209 13.286 -12.0006
    endloop
  endfacet
  facet normal 0.951057 0.177245 -0.253132
    outer loop
      vertex -20.098 17.531 -18.0631
      vertex -21.5192 16.7633 -23.9405
      vertex -21.5192 20.0399 -21.6462
    endloop
  endfacet
  facet normal 0.951056 0.177245 -0.253132
    outer loop
      vertex -21.5192 16.7633 -23.9405
      vertex -20.098 17.531 -18.0631
      vertex -20.098 14.2544 -20.3574
    endloop
  endfacet
  facet normal -1 0 0
    outer loop
      vertex 22 -46.0242 -50.4737
      vertex 22 24.9573 -50.4149
      vertex 22 24.9573 -50.4737
    endloop
  endfacet
  facet normal -1 -0 0
    outer loop
      vertex 22 24.9573 -50.4149
      vertex 22 -46.0242 -50.4737
      vertex 22 24.8573 -46.4737
    endloop
  endfacet
  facet normal -1 0 0
    outer loop
      vertex 22 24.8573 -46.4737
      vertex 22 -46.0242 -50.4737
      vertex 22 -46.0242 -46.4737
    endloop
  endfacet
  facet normal -1 0 0
    outer loop
      vertex 22 28.7474 -43.4049
      vertex 22 32.8571 -42.42
      vertex 22 32.6375 -44.3361
    endloop
  endfacet
  facet normal -1 0 0
    outer loop
      vertex 22 28.7474 -43.4049
      vertex 22 32.6375 -44.3361
      vertex 22 31.9657 -46.1439
    endloop
  endfacet
  facet normal -1 0 0
    outer loop
      vertex 22 28.7346 -41.4904
      vertex 22 32.8571 -42.42
      vertex 22 28.7474 -43.4049
    endloop
  endfacet
  facet normal -1 -0 0
    outer loop
      vertex 22 32.6118 -40.5071
      vertex 22 28.7346 -41.4904
      vertex 22 31.9158 -38.7085
    endloop
  endfacet
  facet normal -1 0 0
    outer loop
      vertex 22 27.8691 -45.106
      vertex 22 31.9657 -46.1439
      vertex 22 30.8809 -47.7384
    endloop
  endfacet
  facet normal -1 0 0
    outer loop
      vertex 22 27.8691 -45.106
      vertex 22 30.8809 -47.7384
      vertex 22 29.4459 -49.0269
    endloop
  endfacet
  facet normal -1 0 0
    outer loop
      vertex 22 32.8571 -42.42
      vertex 22 28.7346 -41.4904
      vertex 22 32.6118 -40.5071
    endloop
  endfacet
  facet normal -1 0 0
    outer loop
      vertex 22 28.1339 -40.1794
      vertex 22 31.9158 -38.7085
      vertex 22 28.7346 -41.4904
    endloop
  endfacet
  facet normal -1 -0 0
    outer loop
      vertex 22 31.9158 -38.7085
      vertex 22 28.1339 -40.1794
      vertex 22 31.3627 -37.9186
    endloop
  endfacet
  facet normal -1 0 0
    outer loop
      vertex 22 22.6635 -25.393
      vertex 22 31.3627 -37.9186
      vertex 22 28.1339 -40.1794
    endloop
  endfacet
  facet normal -1 0 0
    outer loop
      vertex 22 31.3627 -37.9186
      vertex 22 22.6635 -25.393
      vertex 22 31.4105 -37.8851
    endloop
  endfacet
  facet normal -1 0 -0
    outer loop
      vertex 22 22.6635 -25.393
      vertex 22 28.1339 -40.1794
      vertex 22 19.3869 -27.6873
    endloop
  endfacet
  facet normal -1 0 0
    outer loop
      vertex 22 28.7346 -41.4904
      vertex 22 28.0621 -40.2297
      vertex 22 28.1339 -40.1794
    endloop
  endfacet
  facet normal -1 0 0
    outer loop
      vertex 22 31.9657 -46.1439
      vertex 22 27.8691 -45.106
      vertex 22 28.7474 -43.4049
    endloop
  endfacet
  facet normal -1 0 0
    outer loop
      vertex 22 26.3008 -46.2042
      vertex 22 29.4459 -49.0269
      vertex 22 27.7443 -49.9346
    endloop
  endfacet
  facet normal -1 0 0
    outer loop
      vertex 22 29.4459 -49.0269
      vertex 22 26.3008 -46.2042
      vertex 22 27.8691 -45.106
    endloop
  endfacet
  facet normal -1 0 0
    outer loop
      vertex 22 25.8749 -50.4087
      vertex 22 26.3008 -46.2042
      vertex 22 27.7443 -49.9346
    endloop
  endfacet
  facet normal -1 0 0
    outer loop
      vertex 22 24.8573 -46.4737
      vertex 22 25.8749 -50.4087
      vertex 22 24.9573 -50.4149
    endloop
  endfacet
  facet normal -1 0 0
    outer loop
      vertex 22 25.8749 -50.4087
      vertex 22 24.8573 -46.4737
      vertex 22 26.3008 -46.2042
    endloop
  endfacet
  facet normal -1 0 0
    outer loop
      vertex 22 26.3008 -46.2042
      vertex 22 24.8573 -46.4737
      vertex 22 24.8573 -46.3893
    endloop
  endfacet
  facet normal 1 -0 0
    outer loop
      vertex -22 27.8691 -45.106
      vertex -22 31.9657 -46.1439
      vertex -22 28.7474 -43.4049
    endloop
  endfacet
  facet normal 1 0 0
    outer loop
      vertex -22 31.9657 -46.1439
      vertex -22 27.8691 -45.106
      vertex -22 30.8809 -47.7384
    endloop
  endfacet
  facet normal 1 0 0
    outer loop
      vertex -22 31.3627 -37.9186
      vertex -22 28.7346 -41.4904
      vertex -22 28.7474 -43.4049
    endloop
  endfacet
  facet normal 1 0 0
    outer loop
      vertex -22 31.3627 -37.9186
      vertex -22 28.1339 -40.1794
      vertex -22 28.7346 -41.4904
    endloop
  endfacet
  facet normal 1 0 0
    outer loop
      vertex -22 22.6635 -25.393
      vertex -22 31.3627 -37.9186
      vertex -22 31.4105 -37.8851
    endloop
  endfacet
  facet normal 1 0 0
    outer loop
      vertex -22 31.3627 -37.9186
      vertex -22 22.6635 -25.393
      vertex -22 28.1339 -40.1794
    endloop
  endfacet
  facet normal 1 0 0
    outer loop
      vertex -22 28.1339 -40.1794
      vertex -22 22.6635 -25.393
      vertex -22 19.3869 -27.6873
    endloop
  endfacet
  facet normal 1 0 0
    outer loop
      vertex -22 31.9158 -38.7085
      vertex -22 28.7474 -43.4049
      vertex -22 32.6118 -40.5071
    endloop
  endfacet
  facet normal 1 0 0
    outer loop
      vertex -22 32.6118 -40.5071
      vertex -22 28.7474 -43.4049
      vertex -22 32.8571 -42.42
    endloop
  endfacet
  facet normal 1 0 0
    outer loop
      vertex -22 28.7474 -43.4049
      vertex -22 31.9158 -38.7085
      vertex -22 31.3627 -37.9186
    endloop
  endfacet
  facet normal 1 0 0
    outer loop
      vertex -22 32.8571 -42.42
      vertex -22 28.7474 -43.4049
      vertex -22 32.6375 -44.3361
    endloop
  endfacet
  facet normal 1 0 0
    outer loop
      vertex -22 32.6375 -44.3361
      vertex -22 28.7474 -43.4049
      vertex -22 31.9657 -46.1439
    endloop
  endfacet
  facet normal 1 0 0
    outer loop
      vertex -22 30.8809 -47.7384
      vertex -22 27.8691 -45.106
      vertex -22 29.4459 -49.0269
    endloop
  endfacet
  facet normal 1 -0 0
    outer loop
      vertex -22 26.3008 -46.2042
      vertex -22 29.4459 -49.0269
      vertex -22 27.8691 -45.106
    endloop
  endfacet
  facet normal 1 0 0
    outer loop
      vertex -22 29.4459 -49.0269
      vertex -22 26.3008 -46.2042
      vertex -22 27.7443 -49.9346
    endloop
  endfacet
  facet normal 1 0 0
    outer loop
      vertex -22 26.3008 -46.2042
      vertex -22 25.8749 -50.4087
      vertex -22 27.7443 -49.9346
    endloop
  endfacet
  facet normal 1 -0 0
    outer loop
      vertex -22 24.8573 -46.4737
      vertex -22 25.8749 -50.4087
      vertex -22 26.3008 -46.2042
    endloop
  endfacet
  facet normal 1 0 0
    outer loop
      vertex -22 25.8749 -50.4087
      vertex -22 24.8573 -46.4737
      vertex -22 24.9573 -50.4149
    endloop
  endfacet
  facet normal 1 0 -0
    outer loop
      vertex -22 24.8573 -46.4737
      vertex -22 26.3008 -46.2042
      vertex -22 24.8573 -46.3893
    endloop
  endfacet
  facet normal 1 0 0
    outer loop
      vertex -22 28.7346 -41.4904
      vertex -22 28.1339 -40.1794
      vertex -22 28.0621 -40.2297
    endloop
  endfacet
  facet normal 1 0 0
    outer loop
      vertex -22 -46.0242 -50.4737
      vertex -22 24.9573 -50.4149
      vertex -22 24.8573 -46.4737
    endloop
  endfacet
  facet normal 1 0 0
    outer loop
      vertex -22 -46.0242 -50.4737
      vertex -22 24.8573 -46.4737
      vertex -22 -46.0242 -46.4737
    endloop
  endfacet
  facet normal 1 0 0
    outer loop
      vertex -22 24.9573 -50.4149
      vertex -22 -46.0242 -50.4737
      vertex -22 24.9573 -50.4737
    endloop
  endfacet
  facet normal 0 1 -0
    outer loop
      vertex 22 -46.0242 -50.4737
      vertex -22 -46.0242 -46.4737
      vertex 22 -46.0242 -46.4737
    endloop
  endfacet
  facet normal 0 1 0
    outer loop
      vertex -22 -46.0242 -46.4737
      vertex 22 -46.0242 -50.4737
      vertex -22 -46.0242 -50.4737
    endloop
  endfacet
endsolid OpenSCAD_Model
