solid OpenSCAD_Model
  facet normal 0 0 -1
    outer loop
      vertex 1.4729 -5.81639 0
      vertex 2.40775 -8.67194 0
      vertex 1.5 -8.82076 0
    endloop
  endfacet
  facet normal 0 0 -1
    outer loop
      vertex 29.8858 2.61467 0
      vertex 29.5442 5.20944 0
      vertex 48.9074 10.3956 0
    endloop
  endfacet
  facet normal -0 0 -1
    outer loop
      vertex 50 0 0
      vertex 48.9074 -10.3956 0
      vertex 30 0 0
    endloop
  endfacet
  facet normal 0 0 -1
    outer loop
      vertex 27.1892 12.6785 0
      vertex 25.9808 15 0
      vertex 45.6773 20.3368 0
    endloop
  endfacet
  facet normal 0 0 -1
    outer loop
      vertex 24.5746 17.2073 0
      vertex 22.9813 19.2836 0
      vertex 40.4508 29.3893 0
    endloop
  endfacet
  facet normal -0 0 -1
    outer loop
      vertex 48.9074 -10.3956 0
      vertex 45.6773 -20.3368 0
      vertex 30 0 0
    endloop
  endfacet
  facet normal 0 0 -1
    outer loop
      vertex 5.22641 49.7261 0
      vertex 15.4508 47.5528 0
      vertex 15 25.9808 0
    endloop
  endfacet
  facet normal 0 0 -1
    outer loop
      vertex -15 25.9808 0
      vertex -5.22641 49.7261 0
      vertex 5.22641 49.7261 0
    endloop
  endfacet
  facet normal 0 0 -1
    outer loop
      vertex 23.8825 13.7886 0
      vertex 19.6592 9.61823 0
      vertex 18.1592 12.2163 0
    endloop
  endfacet
  facet normal 0 -0 -1
    outer loop
      vertex -48.9074 10.3956 0
      vertex -29.3444 6.23734 0
      vertex -50 0 0
    endloop
  endfacet
  facet normal 0 0 -1
    outer loop
      vertex -30 0 0
      vertex -50 0 0
      vertex -29.3444 6.23734 0
    endloop
  endfacet
  facet normal 0 0 -1
    outer loop
      vertex -45.6773 -20.3368 0
      vertex -48.9074 -10.3956 0
      vertex -30 0 0
    endloop
  endfacet
  facet normal 0 0 -1
    outer loop
      vertex -40.4508 -29.3893 0
      vertex -45.6773 -20.3368 0
      vertex -30 0 0
    endloop
  endfacet
  facet normal 0 -0 -1
    outer loop
      vertex -4.06367 -4.41434 0
      vertex -2.41017 -5.49463 0
      vertex -4.47653 -7.75359 0
    endloop
  endfacet
  facet normal 0 0 -1
    outer loop
      vertex -3.13585 -29.8356 0
      vertex -5.22641 -49.7261 0
      vertex -15.4508 -47.5528 0
    endloop
  endfacet
  facet normal -0 0 -1
    outer loop
      vertex 5.82646 6.85945 0
      vertex 3.28168 5.02299 0
      vertex 4.48531 7.76878 0
    endloop
  endfacet
  facet normal 0 0 -1
    outer loop
      vertex 1.4729 5.81639 0
      vertex 4.48531 7.76878 0
      vertex 3.28168 5.02299 0
    endloop
  endfacet
  facet normal 0 0 -1
    outer loop
      vertex 8.39246 3.11334 0
      vertex 4.73483 3.68527 0
      vertex 6.90636 5.71944 0
    endloop
  endfacet
  facet normal -0 0 -1
    outer loop
      vertex -3.13585 -29.8356 0
      vertex -15.4508 -47.5528 0
      vertex -9.27049 -28.5317 0
    endloop
  endfacet
  facet normal -0 0 -1
    outer loop
      vertex 3.13583 -29.8356 0
      vertex -5.22641 -49.7261 0
      vertex -3.13585 -29.8356 0
    endloop
  endfacet
  facet normal 0 0 -1
    outer loop
      vertex 5.6749 1.9482 0
      vertex 4.73483 3.68527 0
      vertex 8.39246 3.11334 0
    endloop
  endfacet
  facet normal 0 0 -1
    outer loop
      vertex -5.22641 -49.7261 0
      vertex 3.13583 -29.8356 0
      vertex 5.22641 -49.7261 0
    endloop
  endfacet
  facet normal 0 -0 -1
    outer loop
      vertex 3.28168 -5.02299 0
      vertex 4.21567 -7.9516 0
      vertex 1.4729 -5.81639 0
    endloop
  endfacet
  facet normal 0 0 -1
    outer loop
      vertex 40.4508 -29.3893 0
      vertex 15 -25.9807 0
      vertex 30 0 0
    endloop
  endfacet
  facet normal 0 0 -1
    outer loop
      vertex 9 0 0
      vertex 4.73483 -3.68527 0
      vertex 5.6749 -1.9482 0
    endloop
  endfacet
  facet normal 0 0 -1
    outer loop
      vertex 30 0 0
      vertex 45.6773 -20.3368 0
      vertex 40.4508 -29.3893 0
    endloop
  endfacet
  facet normal 0 0 -1
    outer loop
      vertex -4.47653 7.75359 0
      vertex 4.48531 7.76878 0
      vertex -0.495468 5.97949 0
    endloop
  endfacet
  facet normal 0 0 -1
    outer loop
      vertex 33.4565 37.1572 0
      vertex 19.2836 22.9813 0
      vertex 17.2073 24.5746 0
    endloop
  endfacet
  facet normal 0 -0 -1
    outer loop
      vertex -33.4565 37.1572 0
      vertex -20.0739 22.2943 0
      vertex -40.4508 29.3893 0
    endloop
  endfacet
  facet normal -0 0 -1
    outer loop
      vertex -24.2705 17.6335 0
      vertex -27.4063 12.2021 0
      vertex -40.4508 29.3893 0
    endloop
  endfacet
  facet normal 0 0 -1
    outer loop
      vertex 45.6773 20.3368 0
      vertex 28.1908 10.2606 0
      vertex 27.1892 12.6785 0
    endloop
  endfacet
  facet normal 0 -0 -1
    outer loop
      vertex 19.6592 9.61823 0
      vertex 21.1649 3.64635 0
      vertex 18.2671 4.42281 0
    endloop
  endfacet
  facet normal 0 0 -1
    outer loop
      vertex 17.2073 24.5746 0
      vertex 15 25.9808 0
      vertex 25 43.3013 0
    endloop
  endfacet
  facet normal 0 0 -1
    outer loop
      vertex 23.8825 13.7886 0
      vertex 21.1649 3.64635 0
      vertex 19.6592 9.61823 0
    endloop
  endfacet
  facet normal 0 0 -1
    outer loop
      vertex -25 43.3013 0
      vertex -15.4508 47.5528 0
      vertex -15 25.9808 0
    endloop
  endfacet
  facet normal -0 0 -1
    outer loop
      vertex 23.8825 13.7886 0
      vertex 18.1592 12.2163 0
      vertex 13.7403 16.5062 0
    endloop
  endfacet
  facet normal 0 0 -1
    outer loop
      vertex 18.1592 12.2163 0
      vertex 12.9638 13.6084 0
      vertex 13.7403 16.5062 0
    endloop
  endfacet
  facet normal 0 0 -1
    outer loop
      vertex -29.3444 6.23734 0
      vertex -45.6773 20.3368 0
      vertex -27.4063 12.2021 0
    endloop
  endfacet
  facet normal -0 0 -1
    outer loop
      vertex 19.6592 9.61823 0
      vertex 6.90636 5.71944 0
      vertex 18.1592 12.2163 0
    endloop
  endfacet
  facet normal 0 0 -1
    outer loop
      vertex 8.39246 3.11334 0
      vertex 6.90636 5.71944 0
      vertex 19.6592 9.61823 0
    endloop
  endfacet
  facet normal 0 0 -1
    outer loop
      vertex -48.9074 10.3956 0
      vertex -45.6773 20.3368 0
      vertex -29.3444 6.23734 0
    endloop
  endfacet
  facet normal 0 0 -1
    outer loop
      vertex 15 25.9808 0
      vertex 15.4508 47.5528 0
      vertex 25 43.3013 0
    endloop
  endfacet
  facet normal 0 0 -1
    outer loop
      vertex 17.2073 24.5746 0
      vertex 25 43.3013 0
      vertex 33.4565 37.1572 0
    endloop
  endfacet
  facet normal 0 0 -1
    outer loop
      vertex 19.2836 22.9813 0
      vertex 33.4565 37.1572 0
      vertex 21.2132 21.2132 0
    endloop
  endfacet
  facet normal 0 0 -1
    outer loop
      vertex 21.2132 21.2132 0
      vertex 33.4565 37.1572 0
      vertex 22.9813 19.2836 0
    endloop
  endfacet
  facet normal 0 0 -1
    outer loop
      vertex 22.9813 19.2836 0
      vertex 33.4565 37.1572 0
      vertex 40.4508 29.3893 0
    endloop
  endfacet
  facet normal 0 0 -1
    outer loop
      vertex 24.5746 17.2073 0
      vertex 40.4508 29.3893 0
      vertex 25.9808 15 0
    endloop
  endfacet
  facet normal 0 0 -1
    outer loop
      vertex 25.9808 15 0
      vertex 40.4508 29.3893 0
      vertex 45.6773 20.3368 0
    endloop
  endfacet
  facet normal 0 -0 -1
    outer loop
      vertex 45.6773 20.3368 0
      vertex 48.9074 10.3956 0
      vertex 28.1908 10.2606 0
    endloop
  endfacet
  facet normal 0 0 -1
    outer loop
      vertex 28.1908 10.2606 0
      vertex 48.9074 10.3956 0
      vertex 28.9778 7.76456 0
    endloop
  endfacet
  facet normal 0 0 -1
    outer loop
      vertex 28.9778 7.76456 0
      vertex 48.9074 10.3956 0
      vertex 29.5442 5.20944 0
    endloop
  endfacet
  facet normal 0 -0 -1
    outer loop
      vertex 48.9074 10.3956 0
      vertex 50 0 0
      vertex 29.8858 2.61467 0
    endloop
  endfacet
  facet normal 0 0 -1
    outer loop
      vertex 29.8858 2.61467 0
      vertex 50 0 0
      vertex 30 0 0
    endloop
  endfacet
  facet normal 0 -0 -1
    outer loop
      vertex -13.5394 9.54903 0
      vertex -12.4413 5.45096 0
      vertex -15.0394 6.95096 0
    endloop
  endfacet
  facet normal 0 0 -1
    outer loop
      vertex -15 -25.9808 0
      vertex -15.4508 -47.5528 0
      vertex -25 -43.3013 0
    endloop
  endfacet
  facet normal 0 -0 -1
    outer loop
      vertex -18.1592 12.2163 0
      vertex -13.5394 9.54903 0
      vertex -19.6592 9.61823 0
    endloop
  endfacet
  facet normal -0 0 -1
    outer loop
      vertex -30 0 0
      vertex -48.9074 -10.3956 0
      vertex -50 0 0
    endloop
  endfacet
  facet normal 0 0 -1
    outer loop
      vertex -45.6773 20.3368 0
      vertex -40.4508 29.3893 0
      vertex -27.4063 12.2021 0
    endloop
  endfacet
  facet normal 0 0 -1
    outer loop
      vertex -12.4413 5.45096 0
      vertex -10.9413 8.04903 0
      vertex -8.41261 3.12498 0
    endloop
  endfacet
  facet normal 0 0 -1
    outer loop
      vertex -40.4508 29.3893 0
      vertex -20.0739 22.2943 0
      vertex -24.2705 17.6335 0
    endloop
  endfacet
  facet normal 0 0 -1
    outer loop
      vertex 4.48531 7.76878 0
      vertex -15 25.9808 0
      vertex 15 25.9808 0
    endloop
  endfacet
  facet normal 0 0 -1
    outer loop
      vertex -33.4565 37.1572 0
      vertex -15 25.9808 0
      vertex -20.0739 22.2943 0
    endloop
  endfacet
  facet normal 0 0 -1
    outer loop
      vertex -11.6644 12.7966 0
      vertex -9.06633 11.2966 0
      vertex -10.9413 8.04903 0
    endloop
  endfacet
  facet normal 0 0 -1
    outer loop
      vertex -33.4565 37.1572 0
      vertex -25 43.3013 0
      vertex -15 25.9808 0
    endloop
  endfacet
  facet normal 0 0 -1
    outer loop
      vertex 15 25.9808 0
      vertex -15 25.9808 0
      vertex 5.22641 49.7261 0
    endloop
  endfacet
  facet normal 0 0 -1
    outer loop
      vertex -15 25.9808 0
      vertex -15.4508 47.5528 0
      vertex -5.22641 49.7261 0
    endloop
  endfacet
  facet normal 0 0 -1
    outer loop
      vertex -4.06367 4.41434 0
      vertex -6.89577 5.71332 0
      vertex -6.53395 6.18929 0
    endloop
  endfacet
  facet normal 0 0 -1
    outer loop
      vertex -4.47653 7.75359 0
      vertex -15 25.9808 0
      vertex 4.48531 7.76878 0
    endloop
  endfacet
  facet normal 0 0 -1
    outer loop
      vertex -5.91817 0.987564 0
      vertex -8.41261 3.12498 0
      vertex -5.27684 2.85568 0
    endloop
  endfacet
  facet normal -0 0 -1
    outer loop
      vertex -4.06367 4.41434 0
      vertex -5.27684 2.85568 0
      vertex -6.89577 5.71332 0
    endloop
  endfacet
  facet normal 0 -0 -1
    outer loop
      vertex -8.41261 3.12498 0
      vertex -5.91817 0.987564 0
      vertex -8.52887 2.8737 0
    endloop
  endfacet
  facet normal -0 0 -1
    outer loop
      vertex -18.6554 5.8717 0
      vertex -21.5531 5.09525 0
      vertex -19.6592 9.61823 0
    endloop
  endfacet
  facet normal 0 0 -1
    outer loop
      vertex -13.5394 9.54903 0
      vertex -11.6644 12.7966 0
      vertex -10.9413 8.04903 0
    endloop
  endfacet
  facet normal 0 -0 -1
    outer loop
      vertex -15.1892 16.118 0
      vertex -14.4127 13.2202 0
      vertex -18.1592 12.2163 0
    endloop
  endfacet
  facet normal 0 0 -1
    outer loop
      vertex -18.1592 12.2163 0
      vertex -23.8825 13.7886 0
      vertex -15.1892 16.118 0
    endloop
  endfacet
  facet normal 0 0 -1
    outer loop
      vertex -13.5394 9.54903 0
      vertex -10.9413 8.04903 0
      vertex -12.4413 5.45096 0
    endloop
  endfacet
  facet normal -0 0 -1
    outer loop
      vertex -18.1592 12.2163 0
      vertex -19.6592 9.61823 0
      vertex -23.8825 13.7886 0
    endloop
  endfacet
  facet normal -0 0 -1
    outer loop
      vertex -19.6592 9.61823 0
      vertex -21.5531 5.09525 0
      vertex -23.8825 13.7886 0
    endloop
  endfacet
  facet normal -0 0 -1
    outer loop
      vertex -13.5394 9.54903 0
      vertex -15.0394 6.95096 0
      vertex -19.6592 9.61823 0
    endloop
  endfacet
  facet normal 0 0 -1
    outer loop
      vertex -16.9144 3.70335 0
      vertex -15.0394 6.95096 0
      vertex -14.3163 2.20335 0
    endloop
  endfacet
  facet normal 0 0 -1
    outer loop
      vertex -15.0394 6.95096 0
      vertex -12.4413 5.45096 0
      vertex -14.3163 2.20335 0
    endloop
  endfacet
  facet normal 0 0 -1
    outer loop
      vertex -8.94724 0 0
      vertex -5.91817 0.987564 0
      vertex -5.91817 -0.987564 0
    endloop
  endfacet
  facet normal 0 0 -1
    outer loop
      vertex -5.91817 0.987564 0
      vertex -8.94724 0 0
      vertex -8.94724 0.973068 0
    endloop
  endfacet
  facet normal 0 0 -1
    outer loop
      vertex -8.41261 3.12498 0
      vertex -10.9413 8.04903 0
      vertex -6.89577 5.71332 0
    endloop
  endfacet
  facet normal 0 0 -1
    outer loop
      vertex -4.47653 -7.75359 0
      vertex -8.94724 0 0
      vertex -5.27684 -2.85568 0
    endloop
  endfacet
  facet normal 0 0 -1
    outer loop
      vertex -2.41017 -5.49463 0
      vertex -3.33124 -8.36078 0
      vertex -4.47653 -7.75359 0
    endloop
  endfacet
  facet normal -0 0 -1
    outer loop
      vertex 25 -43.3013 0
      vertex 15.4508 -47.5528 0
      vertex 15 -25.9807 0
    endloop
  endfacet
  facet normal 0 -0 -1
    outer loop
      vertex -15 -25.9808 0
      vertex -9.27049 -28.5317 0
      vertex -15.4508 -47.5528 0
    endloop
  endfacet
  facet normal -0 0 -1
    outer loop
      vertex -4.47653 -7.75359 0
      vertex -15 -25.9808 0
      vertex -30 0 0
    endloop
  endfacet
  facet normal 0 0 -1
    outer loop
      vertex -33.4565 -37.1572 0
      vertex -15 -25.9808 0
      vertex -25 -43.3013 0
    endloop
  endfacet
  facet normal -0 -0 -1
    outer loop
      vertex -5.91817 -0.987564 0
      vertex -5.27684 -2.85568 0
      vertex -8.94724 0 0
    endloop
  endfacet
  facet normal -0 0 -1
    outer loop
      vertex -5.91817 0.987564 0
      vertex -8.94724 0.973068 0
      vertex -8.52887 2.8737 0
    endloop
  endfacet
  facet normal 0 0 -1
    outer loop
      vertex -5.27684 2.85568 0
      vertex -8.41261 3.12498 0
      vertex -6.89577 5.71332 0
    endloop
  endfacet
  facet normal 0 0 -1
    outer loop
      vertex -6.53395 6.18929 0
      vertex -5.05067 7.44919 0
      vertex -4.06367 4.41434 0
    endloop
  endfacet
  facet normal 0 0 -1
    outer loop
      vertex -4.06367 4.41434 0
      vertex -5.05067 7.44919 0
      vertex -2.41017 5.49463 0
    endloop
  endfacet
  facet normal -0 0 -1
    outer loop
      vertex -0.495468 5.97949 0
      vertex -2.41017 5.49463 0
      vertex -4.47653 7.75359 0
    endloop
  endfacet
  facet normal 0 0 -1
    outer loop
      vertex -2.41017 5.49463 0
      vertex -5.05067 7.44919 0
      vertex -4.47653 7.75359 0
    endloop
  endfacet
  facet normal 0 0 -1
    outer loop
      vertex -0.495468 5.97949 0
      vertex 4.48531 7.76878 0
      vertex 1.4729 5.81639 0
    endloop
  endfacet
  facet normal 0 0 -1
    outer loop
      vertex 5.82646 6.85945 0
      vertex 4.73483 3.68527 0
      vertex 3.28168 5.02299 0
    endloop
  endfacet
  facet normal 0 0 -1
    outer loop
      vertex 4.73483 3.68527 0
      vertex 5.82646 6.85945 0
      vertex 6.90636 5.71944 0
    endloop
  endfacet
  facet normal 0 0 -1
    outer loop
      vertex 5.6749 1.9482 0
      vertex 8.39246 3.11334 0
      vertex 8.78958 1.93472 0
    endloop
  endfacet
  facet normal 0 0 -1
    outer loop
      vertex 6 0 0
      vertex 5.6749 1.9482 0
      vertex 8.78958 1.93472 0
    endloop
  endfacet
  facet normal 0 0 -1
    outer loop
      vertex 9 0 0
      vertex 6 0 0
      vertex 8.78958 1.93472 0
    endloop
  endfacet
  facet normal -0 0 -1
    outer loop
      vertex 9 0 0
      vertex 5.6749 -1.9482 0
      vertex 6 0 0
    endloop
  endfacet
  facet normal 0 0 -1
    outer loop
      vertex 1.5 -21 0
      vertex -1.49998 -18 0
      vertex 1.5 -18 0
    endloop
  endfacet
  facet normal -0 0 -1
    outer loop
      vertex 40.4508 -29.3893 0
      vertex 33.4565 -37.1572 0
      vertex 15 -25.9807 0
    endloop
  endfacet
  facet normal 0 0 -1
    outer loop
      vertex -0.495468 -5.97949 0
      vertex 1.4729 -5.81639 0
      vertex 1.5 -8.82076 0
    endloop
  endfacet
  facet normal 0 0 -1
    outer loop
      vertex 5.22641 -49.7261 0
      vertex 3.13583 -29.8356 0
      vertex 15.4508 -47.5528 0
    endloop
  endfacet
  facet normal 0 -0 -1
    outer loop
      vertex -2.41017 -5.49463 0
      vertex -1.49998 -8.86922 0
      vertex -3.33124 -8.36078 0
    endloop
  endfacet
  facet normal 0 0 -1
    outer loop
      vertex -30 0 0
      vertex -8.94724 0 0
      vertex -4.47653 -7.75359 0
    endloop
  endfacet
  facet normal 0 0 -1
    outer loop
      vertex -33.4565 -37.1572 0
      vertex -40.4508 -29.3893 0
      vertex -15 -25.9808 0
    endloop
  endfacet
  facet normal 0 0 -1
    outer loop
      vertex -7.5 -18 0
      vertex -1.49998 -21 0
      vertex -7.5 -21 0
    endloop
  endfacet
  facet normal -0 0 -1
    outer loop
      vertex -15 -25.9808 0
      vertex -40.4508 -29.3893 0
      vertex -30 0 0
    endloop
  endfacet
  facet normal -0 0 -1
    outer loop
      vertex -4.06367 -4.41434 0
      vertex -4.47653 -7.75359 0
      vertex -5.27684 -2.85568 0
    endloop
  endfacet
  facet normal 0 0 -1
    outer loop
      vertex -2.41017 -5.49463 0
      vertex -0.495468 -5.97949 0
      vertex -1.49998 -8.86922 0
    endloop
  endfacet
  facet normal -0 -0 -1
    outer loop
      vertex 7.5 -18 0
      vertex 7.5 -21 0
      vertex 1.5 -18 0
    endloop
  endfacet
  facet normal 0 0 -1
    outer loop
      vertex -1.49998 -8.86922 0
      vertex -0.495468 -5.97949 0
      vertex 1.5 -8.82076 0
    endloop
  endfacet
  facet normal 0 0 -1
    outer loop
      vertex -7.5 -18 0
      vertex -1.49998 -18 0
      vertex -1.49998 -21 0
    endloop
  endfacet
  facet normal 0 0 -1
    outer loop
      vertex 1.5 -18 0
      vertex -1.49998 -18 0
      vertex -1.49998 -8.86922 0
    endloop
  endfacet
  facet normal 0 0 -1
    outer loop
      vertex -1.49998 -21 0
      vertex 1.5 -21 0
      vertex 1.5 -27 0
    endloop
  endfacet
  facet normal 0 0 -1
    outer loop
      vertex -1.49998 -27 0
      vertex -1.49998 -21 0
      vertex 1.5 -27 0
    endloop
  endfacet
  facet normal 0 -0 -1
    outer loop
      vertex 15 -25.9807 0
      vertex 15.4508 -47.5528 0
      vertex 9.27051 -28.5317 0
    endloop
  endfacet
  facet normal 0 0 -1
    outer loop
      vertex -1.49998 -18 0
      vertex 1.5 -21 0
      vertex -1.49998 -21 0
    endloop
  endfacet
  facet normal 0 -0 -1
    outer loop
      vertex 9.27051 -28.5317 0
      vertex 15.4508 -47.5528 0
      vertex 3.13583 -29.8356 0
    endloop
  endfacet
  facet normal 0 0 -1
    outer loop
      vertex 3.28168 -5.02299 0
      vertex 4.73483 -3.68527 0
      vertex 4.48531 -7.76878 0
    endloop
  endfacet
  facet normal 0 0 -1
    outer loop
      vertex 1.5 -21 0
      vertex 1.5 -18 0
      vertex 7.5 -21 0
    endloop
  endfacet
  facet normal 0 0 -1
    outer loop
      vertex -1.49998 -8.86922 0
      vertex 1.5 -8.82076 0
      vertex 1.5 -18 0
    endloop
  endfacet
  facet normal 0 0 -1
    outer loop
      vertex 1.4729 -5.81639 0
      vertex 4.21567 -7.9516 0
      vertex 2.40775 -8.67194 0
    endloop
  endfacet
  facet normal 0 0 -1
    outer loop
      vertex 3.28168 -5.02299 0
      vertex 4.48531 -7.76878 0
      vertex 4.21567 -7.9516 0
    endloop
  endfacet
  facet normal 0 -0 -1
    outer loop
      vertex 4.73483 -3.68527 0
      vertex 9 0 0
      vertex 4.48531 -7.76878 0
    endloop
  endfacet
  facet normal 0 0 -1
    outer loop
      vertex 15 -25.9807 0
      vertex 33.4565 -37.1572 0
      vertex 25 -43.3013 0
    endloop
  endfacet
  facet normal 0 -0 -1
    outer loop
      vertex 9 0 0
      vertex 15 -25.9807 0
      vertex 4.48531 -7.76878 0
    endloop
  endfacet
  facet normal -0 0 -1
    outer loop
      vertex 30 0 0
      vertex 15 -25.9807 0
      vertex 9 0 0
    endloop
  endfacet
  facet normal 0 -0 1
    outer loop
      vertex 1.5 -8.82076 1
      vertex 2.40775 -8.67194 1
      vertex 1.4729 -5.81639 1
    endloop
  endfacet
  facet normal 0 0 1
    outer loop
      vertex 48.9074 10.3956 1
      vertex 29.5442 5.20944 1
      vertex 29.8858 2.61467 1
    endloop
  endfacet
  facet normal -0 0 1
    outer loop
      vertex 30 0 1
      vertex 48.9074 -10.3956 1
      vertex 50 0 1
    endloop
  endfacet
  facet normal 0 0 1
    outer loop
      vertex 45.6773 20.3368 1
      vertex 25.9808 15 1
      vertex 27.1892 12.6785 1
    endloop
  endfacet
  facet normal 0 0 1
    outer loop
      vertex 40.4508 29.3893 1
      vertex 22.9813 19.2836 1
      vertex 24.5746 17.2073 1
    endloop
  endfacet
  facet normal 0 0 1
    outer loop
      vertex 30 0 1
      vertex 45.6773 -20.3368 1
      vertex 48.9074 -10.3956 1
    endloop
  endfacet
  facet normal 0 -0 1
    outer loop
      vertex 15 25.9808 1
      vertex 15.4508 47.5528 1
      vertex 5.22641 49.7261 1
    endloop
  endfacet
  facet normal 0 0 1
    outer loop
      vertex 5.22641 49.7261 1
      vertex -5.22641 49.7261 1
      vertex -15 25.9808 1
    endloop
  endfacet
  facet normal -0 0 1
    outer loop
      vertex 18.1592 12.2163 1
      vertex 19.6592 9.61823 1
      vertex 23.8825 13.7886 1
    endloop
  endfacet
  facet normal 0 0 1
    outer loop
      vertex -50 0 1
      vertex -29.3444 6.23734 1
      vertex -48.9074 10.3956 1
    endloop
  endfacet
  facet normal 0 0 1
    outer loop
      vertex -29.3444 6.23734 1
      vertex -50 0 1
      vertex -30 0 1
    endloop
  endfacet
  facet normal 0 0 1
    outer loop
      vertex -30 0 1
      vertex -48.9074 -10.3956 1
      vertex -45.6773 -20.3368 1
    endloop
  endfacet
  facet normal 0 0 1
    outer loop
      vertex -30 0 1
      vertex -45.6773 -20.3368 1
      vertex -40.4508 -29.3893 1
    endloop
  endfacet
  facet normal 0 0 1
    outer loop
      vertex -4.47653 -7.75359 1
      vertex -2.41017 -5.49463 1
      vertex -4.06367 -4.41434 1
    endloop
  endfacet
  facet normal -0 0 1
    outer loop
      vertex -15.4508 -47.5528 1
      vertex -5.22641 -49.7261 1
      vertex -3.13585 -29.8356 1
    endloop
  endfacet
  facet normal 0 0 1
    outer loop
      vertex 4.48531 7.76878 1
      vertex 3.28168 5.02299 1
      vertex 5.82646 6.85945 1
    endloop
  endfacet
  facet normal 0 -0 1
    outer loop
      vertex 3.28168 5.02299 1
      vertex 4.48531 7.76878 1
      vertex 1.4729 5.81639 1
    endloop
  endfacet
  facet normal 0 0 1
    outer loop
      vertex 6.90636 5.71944 1
      vertex 4.73483 3.68527 1
      vertex 8.39246 3.11334 1
    endloop
  endfacet
  facet normal 0 0 1
    outer loop
      vertex -9.27049 -28.5317 1
      vertex -15.4508 -47.5528 1
      vertex -3.13585 -29.8356 1
    endloop
  endfacet
  facet normal 0 0 1
    outer loop
      vertex -3.13585 -29.8356 1
      vertex -5.22641 -49.7261 1
      vertex 3.13583 -29.8356 1
    endloop
  endfacet
  facet normal 0 0 1
    outer loop
      vertex 8.39246 3.11334 1
      vertex 4.73483 3.68527 1
      vertex 5.6749 1.9482 1
    endloop
  endfacet
  facet normal 0 0 1
    outer loop
      vertex 5.22641 -49.7261 1
      vertex 3.13583 -29.8356 1
      vertex -5.22641 -49.7261 1
    endloop
  endfacet
  facet normal -0 0 1
    outer loop
      vertex 1.4729 -5.81639 1
      vertex 4.21567 -7.9516 1
      vertex 3.28168 -5.02299 1
    endloop
  endfacet
  facet normal 0 0 1
    outer loop
      vertex 30 0 1
      vertex 15 -25.9807 1
      vertex 40.4508 -29.3893 1
    endloop
  endfacet
  facet normal -0 0 1
    outer loop
      vertex 5.6749 -1.9482 1
      vertex 4.73483 -3.68527 1
      vertex 9 0 1
    endloop
  endfacet
  facet normal 0 -0 1
    outer loop
      vertex 40.4508 -29.3893 1
      vertex 45.6773 -20.3368 1
      vertex 30 0 1
    endloop
  endfacet
  facet normal 0 -0 1
    outer loop
      vertex -0.495468 5.97949 1
      vertex 4.48531 7.76878 1
      vertex -4.47653 7.75359 1
    endloop
  endfacet
  facet normal -0 0 1
    outer loop
      vertex 17.2073 24.5746 1
      vertex 19.2836 22.9813 1
      vertex 33.4565 37.1572 1
    endloop
  endfacet
  facet normal -0 0 1
    outer loop
      vertex -40.4508 29.3893 1
      vertex -20.0739 22.2943 1
      vertex -33.4565 37.1572 1
    endloop
  endfacet
  facet normal 0 0 1
    outer loop
      vertex -40.4508 29.3893 1
      vertex -27.4063 12.2021 1
      vertex -24.2705 17.6335 1
    endloop
  endfacet
  facet normal -0 0 1
    outer loop
      vertex 27.1892 12.6785 1
      vertex 28.1908 10.2606 1
      vertex 45.6773 20.3368 1
    endloop
  endfacet
  facet normal -0 0 1
    outer loop
      vertex 18.2671 4.42281 1
      vertex 21.1649 3.64635 1
      vertex 19.6592 9.61823 1
    endloop
  endfacet
  facet normal 0 0 1
    outer loop
      vertex 25 43.3013 1
      vertex 15 25.9808 1
      vertex 17.2073 24.5746 1
    endloop
  endfacet
  facet normal -0 0 1
    outer loop
      vertex 19.6592 9.61823 1
      vertex 21.1649 3.64635 1
      vertex 23.8825 13.7886 1
    endloop
  endfacet
  facet normal 0 0 1
    outer loop
      vertex -15 25.9808 1
      vertex -15.4508 47.5528 1
      vertex -25 43.3013 1
    endloop
  endfacet
  facet normal 0 0 1
    outer loop
      vertex 13.7403 16.5062 1
      vertex 18.1592 12.2163 1
      vertex 23.8825 13.7886 1
    endloop
  endfacet
  facet normal 0 0 1
    outer loop
      vertex 13.7403 16.5062 1
      vertex 12.9638 13.6084 1
      vertex 18.1592 12.2163 1
    endloop
  endfacet
  facet normal 0 0 1
    outer loop
      vertex -27.4063 12.2021 1
      vertex -45.6773 20.3368 1
      vertex -29.3444 6.23734 1
    endloop
  endfacet
  facet normal 0 0 1
    outer loop
      vertex 18.1592 12.2163 1
      vertex 6.90636 5.71944 1
      vertex 19.6592 9.61823 1
    endloop
  endfacet
  facet normal 0 0 1
    outer loop
      vertex 19.6592 9.61823 1
      vertex 6.90636 5.71944 1
      vertex 8.39246 3.11334 1
    endloop
  endfacet
  facet normal 0 0 1
    outer loop
      vertex -29.3444 6.23734 1
      vertex -45.6773 20.3368 1
      vertex -48.9074 10.3956 1
    endloop
  endfacet
  facet normal 0 0 1
    outer loop
      vertex 25 43.3013 1
      vertex 15.4508 47.5528 1
      vertex 15 25.9808 1
    endloop
  endfacet
  facet normal 0 0 1
    outer loop
      vertex 33.4565 37.1572 1
      vertex 25 43.3013 1
      vertex 17.2073 24.5746 1
    endloop
  endfacet
  facet normal 0 -0 1
    outer loop
      vertex 21.2132 21.2132 1
      vertex 33.4565 37.1572 1
      vertex 19.2836 22.9813 1
    endloop
  endfacet
  facet normal 0 -0 1
    outer loop
      vertex 22.9813 19.2836 1
      vertex 33.4565 37.1572 1
      vertex 21.2132 21.2132 1
    endloop
  endfacet
  facet normal 0 0 1
    outer loop
      vertex 40.4508 29.3893 1
      vertex 33.4565 37.1572 1
      vertex 22.9813 19.2836 1
    endloop
  endfacet
  facet normal 0 -0 1
    outer loop
      vertex 25.9808 15 1
      vertex 40.4508 29.3893 1
      vertex 24.5746 17.2073 1
    endloop
  endfacet
  facet normal 0 0 1
    outer loop
      vertex 45.6773 20.3368 1
      vertex 40.4508 29.3893 1
      vertex 25.9808 15 1
    endloop
  endfacet
  facet normal 0 0 1
    outer loop
      vertex 28.1908 10.2606 1
      vertex 48.9074 10.3956 1
      vertex 45.6773 20.3368 1
    endloop
  endfacet
  facet normal 0 -0 1
    outer loop
      vertex 28.9778 7.76456 1
      vertex 48.9074 10.3956 1
      vertex 28.1908 10.2606 1
    endloop
  endfacet
  facet normal 0 -0 1
    outer loop
      vertex 29.5442 5.20944 1
      vertex 48.9074 10.3956 1
      vertex 28.9778 7.76456 1
    endloop
  endfacet
  facet normal -0 0 1
    outer loop
      vertex 29.8858 2.61467 1
      vertex 50 0 1
      vertex 48.9074 10.3956 1
    endloop
  endfacet
  facet normal 0 -0 1
    outer loop
      vertex 30 0 1
      vertex 50 0 1
      vertex 29.8858 2.61467 1
    endloop
  endfacet
  facet normal -0 0 1
    outer loop
      vertex -15.0394 6.95096 1
      vertex -12.4413 5.45096 1
      vertex -13.5394 9.54903 1
    endloop
  endfacet
  facet normal -0 0 1
    outer loop
      vertex -25 -43.3013 1
      vertex -15.4508 -47.5528 1
      vertex -15 -25.9808 1
    endloop
  endfacet
  facet normal -0 0 1
    outer loop
      vertex -19.6592 9.61823 1
      vertex -13.5394 9.54903 1
      vertex -18.1592 12.2163 1
    endloop
  endfacet
  facet normal -0 0 1
    outer loop
      vertex -50 0 1
      vertex -48.9074 -10.3956 1
      vertex -30 0 1
    endloop
  endfacet
  facet normal 0 0 1
    outer loop
      vertex -27.4063 12.2021 1
      vertex -40.4508 29.3893 1
      vertex -45.6773 20.3368 1
    endloop
  endfacet
  facet normal 0 0 1
    outer loop
      vertex -8.41261 3.12498 1
      vertex -10.9413 8.04903 1
      vertex -12.4413 5.45096 1
    endloop
  endfacet
  facet normal 0 -0 1
    outer loop
      vertex -24.2705 17.6335 1
      vertex -20.0739 22.2943 1
      vertex -40.4508 29.3893 1
    endloop
  endfacet
  facet normal 0 0 1
    outer loop
      vertex 15 25.9808 1
      vertex -15 25.9808 1
      vertex 4.48531 7.76878 1
    endloop
  endfacet
  facet normal 0 -0 1
    outer loop
      vertex -20.0739 22.2943 1
      vertex -15 25.9808 1
      vertex -33.4565 37.1572 1
    endloop
  endfacet
  facet normal 0 -0 1
    outer loop
      vertex -10.9413 8.04903 1
      vertex -9.06633 11.2966 1
      vertex -11.6644 12.7966 1
    endloop
  endfacet
  facet normal 0 0 1
    outer loop
      vertex -15 25.9808 1
      vertex -25 43.3013 1
      vertex -33.4565 37.1572 1
    endloop
  endfacet
  facet normal 0 0 1
    outer loop
      vertex 5.22641 49.7261 1
      vertex -15 25.9808 1
      vertex 15 25.9808 1
    endloop
  endfacet
  facet normal 0 0 1
    outer loop
      vertex -5.22641 49.7261 1
      vertex -15.4508 47.5528 1
      vertex -15 25.9808 1
    endloop
  endfacet
  facet normal 0 0 1
    outer loop
      vertex -6.53395 6.18929 1
      vertex -6.89577 5.71332 1
      vertex -4.06367 4.41434 1
    endloop
  endfacet
  facet normal 0 0 1
    outer loop
      vertex 4.48531 7.76878 1
      vertex -15 25.9808 1
      vertex -4.47653 7.75359 1
    endloop
  endfacet
  facet normal 0 0 1
    outer loop
      vertex -5.27684 2.85568 1
      vertex -8.41261 3.12498 1
      vertex -5.91817 0.987564 1
    endloop
  endfacet
  facet normal 0 0 1
    outer loop
      vertex -6.89577 5.71332 1
      vertex -5.27684 2.85568 1
      vertex -4.06367 4.41434 1
    endloop
  endfacet
  facet normal -0 0 1
    outer loop
      vertex -8.52887 2.8737 1
      vertex -5.91817 0.987564 1
      vertex -8.41261 3.12498 1
    endloop
  endfacet
  facet normal 0 0 1
    outer loop
      vertex -19.6592 9.61823 1
      vertex -21.5531 5.09525 1
      vertex -18.6554 5.8717 1
    endloop
  endfacet
  facet normal 0 0 1
    outer loop
      vertex -10.9413 8.04903 1
      vertex -11.6644 12.7966 1
      vertex -13.5394 9.54903 1
    endloop
  endfacet
  facet normal 0 0 1
    outer loop
      vertex -18.1592 12.2163 1
      vertex -14.4127 13.2202 1
      vertex -15.1892 16.118 1
    endloop
  endfacet
  facet normal 0 0 1
    outer loop
      vertex -15.1892 16.118 1
      vertex -23.8825 13.7886 1
      vertex -18.1592 12.2163 1
    endloop
  endfacet
  facet normal 0 -0 1
    outer loop
      vertex -12.4413 5.45096 1
      vertex -10.9413 8.04903 1
      vertex -13.5394 9.54903 1
    endloop
  endfacet
  facet normal 0 0 1
    outer loop
      vertex -23.8825 13.7886 1
      vertex -19.6592 9.61823 1
      vertex -18.1592 12.2163 1
    endloop
  endfacet
  facet normal 0 0 1
    outer loop
      vertex -23.8825 13.7886 1
      vertex -21.5531 5.09525 1
      vertex -19.6592 9.61823 1
    endloop
  endfacet
  facet normal 0 0 1
    outer loop
      vertex -19.6592 9.61823 1
      vertex -15.0394 6.95096 1
      vertex -13.5394 9.54903 1
    endloop
  endfacet
  facet normal 0 0 1
    outer loop
      vertex -14.3163 2.20335 1
      vertex -15.0394 6.95096 1
      vertex -16.9144 3.70335 1
    endloop
  endfacet
  facet normal 0 -0 1
    outer loop
      vertex -14.3163 2.20335 1
      vertex -12.4413 5.45096 1
      vertex -15.0394 6.95096 1
    endloop
  endfacet
  facet normal 0 -0 1
    outer loop
      vertex -5.91817 -0.987564 1
      vertex -5.91817 0.987564 1
      vertex -8.94724 0 1
    endloop
  endfacet
  facet normal -0 0 1
    outer loop
      vertex -8.94724 0.973068 1
      vertex -8.94724 0 1
      vertex -5.91817 0.987564 1
    endloop
  endfacet
  facet normal 0 0 1
    outer loop
      vertex -6.89577 5.71332 1
      vertex -10.9413 8.04903 1
      vertex -8.41261 3.12498 1
    endloop
  endfacet
  facet normal 0 0 1
    outer loop
      vertex -5.27684 -2.85568 1
      vertex -8.94724 0 1
      vertex -4.47653 -7.75359 1
    endloop
  endfacet
  facet normal -0 0 1
    outer loop
      vertex -4.47653 -7.75359 1
      vertex -3.33124 -8.36078 1
      vertex -2.41017 -5.49463 1
    endloop
  endfacet
  facet normal 0 0 1
    outer loop
      vertex 15 -25.9807 1
      vertex 15.4508 -47.5528 1
      vertex 25 -43.3013 1
    endloop
  endfacet
  facet normal 0 0 1
    outer loop
      vertex -15.4508 -47.5528 1
      vertex -9.27049 -28.5317 1
      vertex -15 -25.9808 1
    endloop
  endfacet
  facet normal 0 0 1
    outer loop
      vertex -30 0 1
      vertex -15 -25.9808 1
      vertex -4.47653 -7.75359 1
    endloop
  endfacet
  facet normal 0 -0 1
    outer loop
      vertex -25 -43.3013 1
      vertex -15 -25.9808 1
      vertex -33.4565 -37.1572 1
    endloop
  endfacet
  facet normal 0 0 1
    outer loop
      vertex -8.94724 0 1
      vertex -5.27684 -2.85568 1
      vertex -5.91817 -0.987564 1
    endloop
  endfacet
  facet normal 0 0 1
    outer loop
      vertex -8.52887 2.8737 1
      vertex -8.94724 0.973068 1
      vertex -5.91817 0.987564 1
    endloop
  endfacet
  facet normal 0 0 1
    outer loop
      vertex -6.89577 5.71332 1
      vertex -8.41261 3.12498 1
      vertex -5.27684 2.85568 1
    endloop
  endfacet
  facet normal 0 0 1
    outer loop
      vertex -4.06367 4.41434 1
      vertex -5.05067 7.44919 1
      vertex -6.53395 6.18929 1
    endloop
  endfacet
  facet normal 0 0 1
    outer loop
      vertex -2.41017 5.49463 1
      vertex -5.05067 7.44919 1
      vertex -4.06367 4.41434 1
    endloop
  endfacet
  facet normal 0 0 1
    outer loop
      vertex -4.47653 7.75359 1
      vertex -2.41017 5.49463 1
      vertex -0.495468 5.97949 1
    endloop
  endfacet
  facet normal 0 0 1
    outer loop
      vertex -4.47653 7.75359 1
      vertex -5.05067 7.44919 1
      vertex -2.41017 5.49463 1
    endloop
  endfacet
  facet normal 0 -0 1
    outer loop
      vertex 1.4729 5.81639 1
      vertex 4.48531 7.76878 1
      vertex -0.495468 5.97949 1
    endloop
  endfacet
  facet normal -0 0 1
    outer loop
      vertex 3.28168 5.02299 1
      vertex 4.73483 3.68527 1
      vertex 5.82646 6.85945 1
    endloop
  endfacet
  facet normal 0 0 1
    outer loop
      vertex 6.90636 5.71944 1
      vertex 5.82646 6.85945 1
      vertex 4.73483 3.68527 1
    endloop
  endfacet
  facet normal 0 0 1
    outer loop
      vertex 8.78958 1.93472 1
      vertex 8.39246 3.11334 1
      vertex 5.6749 1.9482 1
    endloop
  endfacet
  facet normal 0 0 1
    outer loop
      vertex 8.78958 1.93472 1
      vertex 5.6749 1.9482 1
      vertex 6 0 1
    endloop
  endfacet
  facet normal 0 0 1
    outer loop
      vertex 8.78958 1.93472 1
      vertex 6 0 1
      vertex 9 0 1
    endloop
  endfacet
  facet normal -0 0 1
    outer loop
      vertex 6 0 1
      vertex 5.6749 -1.9482 1
      vertex 9 0 1
    endloop
  endfacet
  facet normal 0 0 1
    outer loop
      vertex 1.5 -18 1
      vertex -1.49998 -18 1
      vertex 1.5 -21 1
    endloop
  endfacet
  facet normal 0 0 1
    outer loop
      vertex 15 -25.9807 1
      vertex 33.4565 -37.1572 1
      vertex 40.4508 -29.3893 1
    endloop
  endfacet
  facet normal 0 0 1
    outer loop
      vertex 1.5 -8.82076 1
      vertex 1.4729 -5.81639 1
      vertex -0.495468 -5.97949 1
    endloop
  endfacet
  facet normal 0 0 1
    outer loop
      vertex 15.4508 -47.5528 1
      vertex 3.13583 -29.8356 1
      vertex 5.22641 -49.7261 1
    endloop
  endfacet
  facet normal -0 0 1
    outer loop
      vertex -3.33124 -8.36078 1
      vertex -1.49998 -8.86922 1
      vertex -2.41017 -5.49463 1
    endloop
  endfacet
  facet normal 0 0 1
    outer loop
      vertex -4.47653 -7.75359 1
      vertex -8.94724 0 1
      vertex -30 0 1
    endloop
  endfacet
  facet normal 0 0 1
    outer loop
      vertex -15 -25.9808 1
      vertex -40.4508 -29.3893 1
      vertex -33.4565 -37.1572 1
    endloop
  endfacet
  facet normal 0 0 1
    outer loop
      vertex -7.5 -21 1
      vertex -1.49998 -21 1
      vertex -7.5 -18 1
    endloop
  endfacet
  facet normal 0 0 1
    outer loop
      vertex -30 0 1
      vertex -40.4508 -29.3893 1
      vertex -15 -25.9808 1
    endloop
  endfacet
  facet normal 0 0 1
    outer loop
      vertex -5.27684 -2.85568 1
      vertex -4.47653 -7.75359 1
      vertex -4.06367 -4.41434 1
    endloop
  endfacet
  facet normal 0 -0 1
    outer loop
      vertex -1.49998 -8.86922 1
      vertex -0.495468 -5.97949 1
      vertex -2.41017 -5.49463 1
    endloop
  endfacet
  facet normal -0 0 1
    outer loop
      vertex 1.5 -18 1
      vertex 7.5 -21 1
      vertex 7.5 -18 1
    endloop
  endfacet
  facet normal 0 0 1
    outer loop
      vertex 1.5 -8.82076 1
      vertex -0.495468 -5.97949 1
      vertex -1.49998 -8.86922 1
    endloop
  endfacet
  facet normal 0 -0 1
    outer loop
      vertex -1.49998 -21 1
      vertex -1.49998 -18 1
      vertex -7.5 -18 1
    endloop
  endfacet
  facet normal 0 0 1
    outer loop
      vertex -1.49998 -8.86922 1
      vertex -1.49998 -18 1
      vertex 1.5 -18 1
    endloop
  endfacet
  facet normal 0 -0 1
    outer loop
      vertex 1.5 -27 1
      vertex 1.5 -21 1
      vertex -1.49998 -21 1
    endloop
  endfacet
  facet normal 0 0 1
    outer loop
      vertex 1.5 -27 1
      vertex -1.49998 -21 1
      vertex -1.49998 -27 1
    endloop
  endfacet
  facet normal -0 0 1
    outer loop
      vertex 9.27051 -28.5317 1
      vertex 15.4508 -47.5528 1
      vertex 15 -25.9807 1
    endloop
  endfacet
  facet normal 0 0 1
    outer loop
      vertex -1.49998 -21 1
      vertex 1.5 -21 1
      vertex -1.49998 -18 1
    endloop
  endfacet
  facet normal -0 0 1
    outer loop
      vertex 3.13583 -29.8356 1
      vertex 15.4508 -47.5528 1
      vertex 9.27051 -28.5317 1
    endloop
  endfacet
  facet normal 0 -0 1
    outer loop
      vertex 4.48531 -7.76878 1
      vertex 4.73483 -3.68527 1
      vertex 3.28168 -5.02299 1
    endloop
  endfacet
  facet normal 0 0 1
    outer loop
      vertex 7.5 -21 1
      vertex 1.5 -18 1
      vertex 1.5 -21 1
    endloop
  endfacet
  facet normal 0 -0 1
    outer loop
      vertex 1.5 -18 1
      vertex 1.5 -8.82076 1
      vertex -1.49998 -8.86922 1
    endloop
  endfacet
  facet normal 0 -0 1
    outer loop
      vertex 2.40775 -8.67194 1
      vertex 4.21567 -7.9516 1
      vertex 1.4729 -5.81639 1
    endloop
  endfacet
  facet normal 0 -0 1
    outer loop
      vertex 4.21567 -7.9516 1
      vertex 4.48531 -7.76878 1
      vertex 3.28168 -5.02299 1
    endloop
  endfacet
  facet normal 0 0 1
    outer loop
      vertex 4.48531 -7.76878 1
      vertex 9 0 1
      vertex 4.73483 -3.68527 1
    endloop
  endfacet
  facet normal 0 -0 1
    outer loop
      vertex 25 -43.3013 1
      vertex 33.4565 -37.1572 1
      vertex 15 -25.9807 1
    endloop
  endfacet
  facet normal -0 0 1
    outer loop
      vertex 4.48531 -7.76878 1
      vertex 15 -25.9807 1
      vertex 9 0 1
    endloop
  endfacet
  facet normal -0 0 1
    outer loop
      vertex 9 0 1
      vertex 15 -25.9807 1
      vertex 30 0 1
    endloop
  endfacet
  facet normal 0.406735 -0.913546 0
    outer loop
      vertex 25 -43.3013 0
      vertex 15.4508 -47.5528 1
      vertex 15.4508 -47.5528 0
    endloop
  endfacet
  facet normal 0.406735 -0.913546 0
    outer loop
      vertex 25 -43.3013 0
      vertex 25 -43.3013 1
      vertex 15.4508 -47.5528 1
    endloop
  endfacet
  facet normal 0.587786 -0.809016 0
    outer loop
      vertex 33.4565 -37.1572 0
      vertex 25 -43.3013 1
      vertex 25 -43.3013 0
    endloop
  endfacet
  facet normal 0.587786 -0.809016 0
    outer loop
      vertex 33.4565 -37.1572 0
      vertex 33.4565 -37.1572 1
      vertex 25 -43.3013 1
    endloop
  endfacet
  facet normal 0.743145 -0.66913 0
    outer loop
      vertex 40.4508 -29.3893 0
      vertex 33.4565 -37.1572 1
      vertex 33.4565 -37.1572 0
    endloop
  endfacet
  facet normal 0.743145 -0.66913 0
    outer loop
      vertex 40.4508 -29.3893 0
      vertex 40.4508 -29.3893 1
      vertex 33.4565 -37.1572 1
    endloop
  endfacet
  facet normal 0.866025 -0.5 0
    outer loop
      vertex 45.6773 -20.3368 0
      vertex 40.4508 -29.3893 1
      vertex 40.4508 -29.3893 0
    endloop
  endfacet
  facet normal 0.866025 -0.5 0
    outer loop
      vertex 45.6773 -20.3368 0
      vertex 45.6773 -20.3368 1
      vertex 40.4508 -29.3893 1
    endloop
  endfacet
  facet normal 0.951056 -0.309018 0
    outer loop
      vertex 48.9074 -10.3956 0
      vertex 45.6773 -20.3368 1
      vertex 45.6773 -20.3368 0
    endloop
  endfacet
  facet normal 0.951056 -0.309018 0
    outer loop
      vertex 48.9074 -10.3956 0
      vertex 48.9074 -10.3956 1
      vertex 45.6773 -20.3368 1
    endloop
  endfacet
  facet normal 0.994522 -0.104529 0
    outer loop
      vertex 50 0 0
      vertex 48.9074 -10.3956 1
      vertex 48.9074 -10.3956 0
    endloop
  endfacet
  facet normal 0.994522 -0.104529 0
    outer loop
      vertex 50 0 0
      vertex 50 0 1
      vertex 48.9074 -10.3956 1
    endloop
  endfacet
  facet normal 0.994522 0.104529 0
    outer loop
      vertex 48.9074 10.3956 0
      vertex 50 0 1
      vertex 50 0 0
    endloop
  endfacet
  facet normal 0.994522 0.104529 -0
    outer loop
      vertex 48.9074 10.3956 0
      vertex 48.9074 10.3956 1
      vertex 50 0 1
    endloop
  endfacet
  facet normal 0.951056 0.309018 0
    outer loop
      vertex 45.6773 20.3368 0
      vertex 48.9074 10.3956 1
      vertex 48.9074 10.3956 0
    endloop
  endfacet
  facet normal 0.951056 0.309018 -0
    outer loop
      vertex 45.6773 20.3368 0
      vertex 45.6773 20.3368 1
      vertex 48.9074 10.3956 1
    endloop
  endfacet
  facet normal 0.866025 0.5 0
    outer loop
      vertex 40.4508 29.3893 0
      vertex 45.6773 20.3368 1
      vertex 45.6773 20.3368 0
    endloop
  endfacet
  facet normal 0.866025 0.5 -0
    outer loop
      vertex 40.4508 29.3893 0
      vertex 40.4508 29.3893 1
      vertex 45.6773 20.3368 1
    endloop
  endfacet
  facet normal 0.743145 0.66913 0
    outer loop
      vertex 33.4565 37.1572 0
      vertex 40.4508 29.3893 1
      vertex 40.4508 29.3893 0
    endloop
  endfacet
  facet normal 0.743145 0.66913 -0
    outer loop
      vertex 33.4565 37.1572 0
      vertex 33.4565 37.1572 1
      vertex 40.4508 29.3893 1
    endloop
  endfacet
  facet normal 0.587786 0.809016 0
    outer loop
      vertex 25 43.3013 0
      vertex 33.4565 37.1572 1
      vertex 33.4565 37.1572 0
    endloop
  endfacet
  facet normal 0.587786 0.809016 -0
    outer loop
      vertex 25 43.3013 0
      vertex 25 43.3013 1
      vertex 33.4565 37.1572 1
    endloop
  endfacet
  facet normal 0.406735 0.913546 0
    outer loop
      vertex 15.4508 47.5528 0
      vertex 25 43.3013 1
      vertex 25 43.3013 0
    endloop
  endfacet
  facet normal 0.406735 0.913546 -0
    outer loop
      vertex 15.4508 47.5528 0
      vertex 15.4508 47.5528 1
      vertex 25 43.3013 1
    endloop
  endfacet
  facet normal 0.207913 0.978147 0
    outer loop
      vertex 5.22641 49.7261 0
      vertex 15.4508 47.5528 1
      vertex 15.4508 47.5528 0
    endloop
  endfacet
  facet normal 0.207913 0.978147 -0
    outer loop
      vertex 5.22641 49.7261 0
      vertex 5.22641 49.7261 1
      vertex 15.4508 47.5528 1
    endloop
  endfacet
  facet normal 0 1 0
    outer loop
      vertex -5.22641 49.7261 0
      vertex 5.22641 49.7261 1
      vertex 5.22641 49.7261 0
    endloop
  endfacet
  facet normal 0 1 0
    outer loop
      vertex -5.22641 49.7261 0
      vertex -5.22641 49.7261 1
      vertex 5.22641 49.7261 1
    endloop
  endfacet
  facet normal -0.207913 0.978147 0
    outer loop
      vertex -15.4508 47.5528 0
      vertex -5.22641 49.7261 1
      vertex -5.22641 49.7261 0
    endloop
  endfacet
  facet normal -0.207913 0.978147 0
    outer loop
      vertex -15.4508 47.5528 0
      vertex -15.4508 47.5528 1
      vertex -5.22641 49.7261 1
    endloop
  endfacet
  facet normal -0.406736 0.913546 0
    outer loop
      vertex -25 43.3013 0
      vertex -15.4508 47.5528 1
      vertex -15.4508 47.5528 0
    endloop
  endfacet
  facet normal -0.406736 0.913546 0
    outer loop
      vertex -25 43.3013 0
      vertex -25 43.3013 1
      vertex -15.4508 47.5528 1
    endloop
  endfacet
  facet normal -0.587786 0.809017 0
    outer loop
      vertex -33.4565 37.1572 0
      vertex -25 43.3013 1
      vertex -25 43.3013 0
    endloop
  endfacet
  facet normal -0.587786 0.809017 0
    outer loop
      vertex -33.4565 37.1572 0
      vertex -33.4565 37.1572 1
      vertex -25 43.3013 1
    endloop
  endfacet
  facet normal -0.743145 0.66913 0
    outer loop
      vertex -40.4508 29.3893 0
      vertex -33.4565 37.1572 1
      vertex -33.4565 37.1572 0
    endloop
  endfacet
  facet normal -0.743145 0.66913 0
    outer loop
      vertex -40.4508 29.3893 0
      vertex -40.4508 29.3893 1
      vertex -33.4565 37.1572 1
    endloop
  endfacet
  facet normal -0.866025 0.5 0
    outer loop
      vertex -45.6773 20.3368 0
      vertex -40.4508 29.3893 1
      vertex -40.4508 29.3893 0
    endloop
  endfacet
  facet normal -0.866025 0.5 0
    outer loop
      vertex -45.6773 20.3368 0
      vertex -45.6773 20.3368 1
      vertex -40.4508 29.3893 1
    endloop
  endfacet
  facet normal -0.951056 0.309018 0
    outer loop
      vertex -48.9074 10.3956 0
      vertex -45.6773 20.3368 1
      vertex -45.6773 20.3368 0
    endloop
  endfacet
  facet normal -0.951056 0.309018 0
    outer loop
      vertex -48.9074 10.3956 0
      vertex -48.9074 10.3956 1
      vertex -45.6773 20.3368 1
    endloop
  endfacet
  facet normal -0.994522 0.104529 0
    outer loop
      vertex -50 0 0
      vertex -48.9074 10.3956 1
      vertex -48.9074 10.3956 0
    endloop
  endfacet
  facet normal -0.994522 0.104529 0
    outer loop
      vertex -50 0 0
      vertex -50 0 1
      vertex -48.9074 10.3956 1
    endloop
  endfacet
  facet normal -0.994522 -0.104529 0
    outer loop
      vertex -48.9074 -10.3956 0
      vertex -50 0 1
      vertex -50 0 0
    endloop
  endfacet
  facet normal -0.994522 -0.104529 0
    outer loop
      vertex -48.9074 -10.3956 0
      vertex -48.9074 -10.3956 1
      vertex -50 0 1
    endloop
  endfacet
  facet normal -0.951056 -0.309018 0
    outer loop
      vertex -45.6773 -20.3368 0
      vertex -48.9074 -10.3956 1
      vertex -48.9074 -10.3956 0
    endloop
  endfacet
  facet normal -0.951056 -0.309018 0
    outer loop
      vertex -45.6773 -20.3368 0
      vertex -45.6773 -20.3368 1
      vertex -48.9074 -10.3956 1
    endloop
  endfacet
  facet normal -0.866025 -0.5 0
    outer loop
      vertex -40.4508 -29.3893 0
      vertex -45.6773 -20.3368 1
      vertex -45.6773 -20.3368 0
    endloop
  endfacet
  facet normal -0.866025 -0.5 0
    outer loop
      vertex -40.4508 -29.3893 0
      vertex -40.4508 -29.3893 1
      vertex -45.6773 -20.3368 1
    endloop
  endfacet
  facet normal -0.743145 -0.66913 0
    outer loop
      vertex -33.4565 -37.1572 0
      vertex -40.4508 -29.3893 1
      vertex -40.4508 -29.3893 0
    endloop
  endfacet
  facet normal -0.743145 -0.66913 0
    outer loop
      vertex -33.4565 -37.1572 0
      vertex -33.4565 -37.1572 1
      vertex -40.4508 -29.3893 1
    endloop
  endfacet
  facet normal -0.587786 -0.809016 0
    outer loop
      vertex -25 -43.3013 0
      vertex -33.4565 -37.1572 1
      vertex -33.4565 -37.1572 0
    endloop
  endfacet
  facet normal -0.587786 -0.809016 0
    outer loop
      vertex -25 -43.3013 0
      vertex -25 -43.3013 1
      vertex -33.4565 -37.1572 1
    endloop
  endfacet
  facet normal -0.406735 -0.913546 0
    outer loop
      vertex -15.4508 -47.5528 0
      vertex -25 -43.3013 1
      vertex -25 -43.3013 0
    endloop
  endfacet
  facet normal -0.406735 -0.913546 0
    outer loop
      vertex -15.4508 -47.5528 0
      vertex -15.4508 -47.5528 1
      vertex -25 -43.3013 1
    endloop
  endfacet
  facet normal -0.207913 -0.978147 0
    outer loop
      vertex -5.22641 -49.7261 0
      vertex -15.4508 -47.5528 1
      vertex -15.4508 -47.5528 0
    endloop
  endfacet
  facet normal -0.207913 -0.978147 0
    outer loop
      vertex -5.22641 -49.7261 0
      vertex -5.22641 -49.7261 1
      vertex -15.4508 -47.5528 1
    endloop
  endfacet
  facet normal 0 -1 0
    outer loop
      vertex 5.22641 -49.7261 0
      vertex -5.22641 -49.7261 1
      vertex -5.22641 -49.7261 0
    endloop
  endfacet
  facet normal 0 -1 0
    outer loop
      vertex 5.22641 -49.7261 0
      vertex 5.22641 -49.7261 1
      vertex -5.22641 -49.7261 1
    endloop
  endfacet
  facet normal 0.207913 -0.978147 0
    outer loop
      vertex 15.4508 -47.5528 0
      vertex 5.22641 -49.7261 1
      vertex 5.22641 -49.7261 0
    endloop
  endfacet
  facet normal 0.207913 -0.978147 0
    outer loop
      vertex 15.4508 -47.5528 0
      vertex 15.4508 -47.5528 1
      vertex 5.22641 -49.7261 1
    endloop
  endfacet
  facet normal 0.994138 0.108122 -0
    outer loop
      vertex 8.78958 1.93472 0
      vertex 8.78958 1.93472 1
      vertex 9 0 0
    endloop
  endfacet
  facet normal 0.994138 0.108122 0
    outer loop
      vertex 9 0 1
      vertex 9 0 0
      vertex 8.78958 1.93472 1
    endloop
  endfacet
  facet normal 0.947653 0.319303 -0
    outer loop
      vertex 8.39246 3.11334 0
      vertex 8.39246 3.11334 1
      vertex 8.78958 1.93472 0
    endloop
  endfacet
  facet normal 0.947653 0.319303 0
    outer loop
      vertex 8.78958 1.93472 1
      vertex 8.78958 1.93472 0
      vertex 8.39246 3.11334 1
    endloop
  endfacet
  facet normal 0.5 -0.866025 0
    outer loop
      vertex 19.6592 9.61823 0
      vertex 19.6592 9.61823 1
      vertex 8.39246 3.11334 0
    endloop
  endfacet
  facet normal 0.5 -0.866025 0
    outer loop
      vertex 8.39246 3.11334 1
      vertex 8.39246 3.11334 0
      vertex 19.6592 9.61823 1
    endloop
  endfacet
  facet normal -0.965926 0.258818 0
    outer loop
      vertex 18.2671 4.42281 0
      vertex 18.2671 4.42281 1
      vertex 19.6592 9.61823 0
    endloop
  endfacet
  facet normal -0.965926 0.258818 0
    outer loop
      vertex 19.6592 9.61823 1
      vertex 19.6592 9.61823 0
      vertex 18.2671 4.42281 1
    endloop
  endfacet
  facet normal -0.258819 -0.965926 0
    outer loop
      vertex 21.1649 3.64635 0
      vertex 21.1649 3.64635 1
      vertex 18.2671 4.42281 0
    endloop
  endfacet
  facet normal -0.258819 -0.965926 -0
    outer loop
      vertex 18.2671 4.42281 1
      vertex 18.2671 4.42281 0
      vertex 21.1649 3.64635 1
    endloop
  endfacet
  facet normal 0.965926 -0.258819 0
    outer loop
      vertex 23.8825 13.7886 0
      vertex 23.8825 13.7886 1
      vertex 21.1649 3.64635 0
    endloop
  endfacet
  facet normal 0.965926 -0.258819 0
    outer loop
      vertex 21.1649 3.64635 1
      vertex 21.1649 3.64635 0
      vertex 23.8825 13.7886 1
    endloop
  endfacet
  facet normal 0.258819 0.965926 -0
    outer loop
      vertex 13.7403 16.5062 0
      vertex 13.7403 16.5062 1
      vertex 23.8825 13.7886 0
    endloop
  endfacet
  facet normal 0.258819 0.965926 0
    outer loop
      vertex 23.8825 13.7886 1
      vertex 23.8825 13.7886 0
      vertex 13.7403 16.5062 1
    endloop
  endfacet
  facet normal -0.965926 0.258819 0
    outer loop
      vertex 12.9638 13.6084 0
      vertex 12.9638 13.6084 1
      vertex 13.7403 16.5062 0
    endloop
  endfacet
  facet normal -0.965926 0.258819 0
    outer loop
      vertex 13.7403 16.5062 1
      vertex 13.7403 16.5062 0
      vertex 12.9638 13.6084 1
    endloop
  endfacet
  facet normal -0.258819 -0.965926 0
    outer loop
      vertex 18.1592 12.2163 0
      vertex 18.1592 12.2163 1
      vertex 12.9638 13.6084 0
    endloop
  endfacet
  facet normal -0.258819 -0.965926 -0
    outer loop
      vertex 12.9638 13.6084 1
      vertex 12.9638 13.6084 0
      vertex 18.1592 12.2163 1
    endloop
  endfacet
  facet normal -0.5 0.866025 0
    outer loop
      vertex 6.90636 5.71944 0
      vertex 6.90636 5.71944 1
      vertex 18.1592 12.2163 0
    endloop
  endfacet
  facet normal -0.5 0.866025 0
    outer loop
      vertex 18.1592 12.2163 1
      vertex 18.1592 12.2163 0
      vertex 6.90636 5.71944 1
    endloop
  endfacet
  facet normal 0.72599 0.687705 -0
    outer loop
      vertex 5.82646 6.85945 0
      vertex 5.82646 6.85945 1
      vertex 6.90636 5.71944 0
    endloop
  endfacet
  facet normal 0.72599 0.687705 0
    outer loop
      vertex 6.90636 5.71944 1
      vertex 6.90636 5.71944 0
      vertex 5.82646 6.85945 1
    endloop
  endfacet
  facet normal 0.56119 0.827687 -0
    outer loop
      vertex 4.48531 7.76878 0
      vertex 4.48531 7.76878 1
      vertex 5.82646 6.85945 0
    endloop
  endfacet
  facet normal 0.56119 0.827687 0
    outer loop
      vertex 5.82646 6.85945 1
      vertex 5.82646 6.85945 0
      vertex 4.48531 7.76878 1
    endloop
  endfacet
  facet normal 0.866026 -0.5 0
    outer loop
      vertex 15 25.9808 0
      vertex 15 25.9808 1
      vertex 4.48531 7.76878 0
    endloop
  endfacet
  facet normal 0.866026 -0.5 0
    outer loop
      vertex 4.48531 7.76878 1
      vertex 4.48531 7.76878 0
      vertex 15 25.9808 1
    endloop
  endfacet
  facet normal -0.537298 -0.843392 0
    outer loop
      vertex 17.2073 24.5746 0
      vertex 17.2073 24.5746 1
      vertex 15 25.9808 0
    endloop
  endfacet
  facet normal -0.537298 -0.843392 -0
    outer loop
      vertex 15 25.9808 1
      vertex 15 25.9808 0
      vertex 17.2073 24.5746 1
    endloop
  endfacet
  facet normal -0.608764 -0.793351 0
    outer loop
      vertex 19.2836 22.9813 0
      vertex 19.2836 22.9813 1
      vertex 17.2073 24.5746 0
    endloop
  endfacet
  facet normal -0.608764 -0.793351 -0
    outer loop
      vertex 17.2073 24.5746 1
      vertex 17.2073 24.5746 0
      vertex 19.2836 22.9813 1
    endloop
  endfacet
  facet normal -0.675589 -0.737279 0
    outer loop
      vertex 21.2132 21.2132 0
      vertex 21.2132 21.2132 1
      vertex 19.2836 22.9813 0
    endloop
  endfacet
  facet normal -0.675589 -0.737279 -0
    outer loop
      vertex 19.2836 22.9813 1
      vertex 19.2836 22.9813 0
      vertex 21.2132 21.2132 1
    endloop
  endfacet
  facet normal -0.737279 -0.675589 0
    outer loop
      vertex 22.9813 19.2836 0
      vertex 22.9813 19.2836 1
      vertex 21.2132 21.2132 0
    endloop
  endfacet
  facet normal -0.737279 -0.675589 -0
    outer loop
      vertex 21.2132 21.2132 1
      vertex 21.2132 21.2132 0
      vertex 22.9813 19.2836 1
    endloop
  endfacet
  facet normal -0.793351 -0.608764 0
    outer loop
      vertex 24.5746 17.2073 0
      vertex 24.5746 17.2073 1
      vertex 22.9813 19.2836 0
    endloop
  endfacet
  facet normal -0.793351 -0.608764 -0
    outer loop
      vertex 22.9813 19.2836 1
      vertex 22.9813 19.2836 0
      vertex 24.5746 17.2073 1
    endloop
  endfacet
  facet normal -0.843392 -0.537298 0
    outer loop
      vertex 25.9808 15 0
      vertex 25.9808 15 1
      vertex 24.5746 17.2073 0
    endloop
  endfacet
  facet normal -0.843392 -0.537298 -0
    outer loop
      vertex 24.5746 17.2073 1
      vertex 24.5746 17.2073 0
      vertex 25.9808 15 1
    endloop
  endfacet
  facet normal -0.887011 -0.461748 0
    outer loop
      vertex 27.1892 12.6785 0
      vertex 27.1892 12.6785 1
      vertex 25.9808 15 0
    endloop
  endfacet
  facet normal -0.887011 -0.461748 -0
    outer loop
      vertex 25.9808 15 1
      vertex 25.9808 15 0
      vertex 27.1892 12.6785 1
    endloop
  endfacet
  facet normal -0.923881 -0.382681 0
    outer loop
      vertex 28.1908 10.2606 0
      vertex 28.1908 10.2606 1
      vertex 27.1892 12.6785 0
    endloop
  endfacet
  facet normal -0.923881 -0.382681 -0
    outer loop
      vertex 27.1892 12.6785 1
      vertex 27.1892 12.6785 0
      vertex 28.1908 10.2606 1
    endloop
  endfacet
  facet normal -0.953716 -0.300708 0
    outer loop
      vertex 28.9778 7.76456 0
      vertex 28.9778 7.76456 1
      vertex 28.1908 10.2606 0
    endloop
  endfacet
  facet normal -0.953716 -0.300708 -0
    outer loop
      vertex 28.1908 10.2606 1
      vertex 28.1908 10.2606 0
      vertex 28.9778 7.76456 1
    endloop
  endfacet
  facet normal -0.976296 -0.216438 0
    outer loop
      vertex 29.5442 5.20944 0
      vertex 29.5442 5.20944 1
      vertex 28.9778 7.76456 0
    endloop
  endfacet
  facet normal -0.976296 -0.216438 -0
    outer loop
      vertex 28.9778 7.76456 1
      vertex 28.9778 7.76456 0
      vertex 29.5442 5.20944 1
    endloop
  endfacet
  facet normal -0.991445 -0.130528 0
    outer loop
      vertex 29.8858 2.61467 0
      vertex 29.8858 2.61467 1
      vertex 29.5442 5.20944 0
    endloop
  endfacet
  facet normal -0.991445 -0.130528 -0
    outer loop
      vertex 29.5442 5.20944 1
      vertex 29.5442 5.20944 0
      vertex 29.8858 2.61467 1
    endloop
  endfacet
  facet normal -0.999048 -0.0436222 0
    outer loop
      vertex 30 0 0
      vertex 30 0 1
      vertex 29.8858 2.61467 0
    endloop
  endfacet
  facet normal -0.999048 -0.0436222 -0
    outer loop
      vertex 29.8858 2.61467 1
      vertex 29.8858 2.61467 0
      vertex 30 0 1
    endloop
  endfacet
  facet normal 0 1 0
    outer loop
      vertex 9 0 0
      vertex 9 0 1
      vertex 30 0 0
    endloop
  endfacet
  facet normal 0 1 0
    outer loop
      vertex 30 0 1
      vertex 30 0 0
      vertex 9 0 1
    endloop
  endfacet
  facet normal 0.994522 -0.104527 0
    outer loop
      vertex -29.3444 6.23734 0
      vertex -29.3444 6.23734 1
      vertex -30 0 0
    endloop
  endfacet
  facet normal 0.994522 -0.104527 0
    outer loop
      vertex -30 0 1
      vertex -30 0 0
      vertex -29.3444 6.23734 1
    endloop
  endfacet
  facet normal 0.951056 -0.309018 0
    outer loop
      vertex -27.4063 12.2021 0
      vertex -27.4063 12.2021 1
      vertex -29.3444 6.23734 0
    endloop
  endfacet
  facet normal 0.951056 -0.309018 0
    outer loop
      vertex -29.3444 6.23734 1
      vertex -29.3444 6.23734 0
      vertex -27.4063 12.2021 1
    endloop
  endfacet
  facet normal 0.866025 -0.500001 0
    outer loop
      vertex -24.2705 17.6335 0
      vertex -24.2705 17.6335 1
      vertex -27.4063 12.2021 0
    endloop
  endfacet
  facet normal 0.866025 -0.500001 0
    outer loop
      vertex -27.4063 12.2021 1
      vertex -27.4063 12.2021 0
      vertex -24.2705 17.6335 1
    endloop
  endfacet
  facet normal 0.743145 -0.66913 0
    outer loop
      vertex -20.0739 22.2943 0
      vertex -20.0739 22.2943 1
      vertex -24.2705 17.6335 0
    endloop
  endfacet
  facet normal 0.743145 -0.66913 0
    outer loop
      vertex -24.2705 17.6335 1
      vertex -24.2705 17.6335 0
      vertex -20.0739 22.2943 1
    endloop
  endfacet
  facet normal 0.587786 -0.809016 0
    outer loop
      vertex -15 25.9808 0
      vertex -15 25.9808 1
      vertex -20.0739 22.2943 0
    endloop
  endfacet
  facet normal 0.587786 -0.809016 0
    outer loop
      vertex -20.0739 22.2943 1
      vertex -20.0739 22.2943 0
      vertex -15 25.9808 1
    endloop
  endfacet
  facet normal -0.866026 -0.5 0
    outer loop
      vertex -4.47653 7.75359 0
      vertex -4.47653 7.75359 1
      vertex -15 25.9808 0
    endloop
  endfacet
  facet normal -0.866026 -0.5 -0
    outer loop
      vertex -15 25.9808 1
      vertex -15 25.9808 0
      vertex -4.47653 7.75359 1
    endloop
  endfacet
  facet normal -0.468416 0.883508 0
    outer loop
      vertex -5.05067 7.44919 0
      vertex -5.05067 7.44919 1
      vertex -4.47653 7.75359 0
    endloop
  endfacet
  facet normal -0.468416 0.883508 0
    outer loop
      vertex -4.47653 7.75359 1
      vertex -4.47653 7.75359 0
      vertex -5.05067 7.44919 1
    endloop
  endfacet
  facet normal -0.647385 0.762163 0
    outer loop
      vertex -6.53395 6.18929 0
      vertex -6.53395 6.18929 1
      vertex -5.05067 7.44919 0
    endloop
  endfacet
  facet normal -0.647385 0.762163 0
    outer loop
      vertex -5.05067 7.44919 1
      vertex -5.05067 7.44919 0
      vertex -6.53395 6.18929 1
    endloop
  endfacet
  facet normal -0.796097 0.605169 0
    outer loop
      vertex -6.89577 5.71332 0
      vertex -6.89577 5.71332 1
      vertex -6.53395 6.18929 0
    endloop
  endfacet
  facet normal -0.796097 0.605169 0
    outer loop
      vertex -6.53395 6.18929 1
      vertex -6.53395 6.18929 0
      vertex -6.89577 5.71332 1
    endloop
  endfacet
  facet normal 0.5 0.866025 -0
    outer loop
      vertex -10.9413 8.04903 0
      vertex -10.9413 8.04903 1
      vertex -6.89577 5.71332 0
    endloop
  endfacet
  facet normal 0.5 0.866025 0
    outer loop
      vertex -6.89577 5.71332 1
      vertex -6.89577 5.71332 0
      vertex -10.9413 8.04903 1
    endloop
  endfacet
  facet normal 0.866026 -0.499999 0
    outer loop
      vertex -9.06633 11.2966 0
      vertex -9.06633 11.2966 1
      vertex -10.9413 8.04903 0
    endloop
  endfacet
  facet normal 0.866026 -0.499999 0
    outer loop
      vertex -10.9413 8.04903 1
      vertex -10.9413 8.04903 0
      vertex -9.06633 11.2966 1
    endloop
  endfacet
  facet normal 0.499999 0.866026 -0
    outer loop
      vertex -11.6644 12.7966 0
      vertex -11.6644 12.7966 1
      vertex -9.06633 11.2966 0
    endloop
  endfacet
  facet normal 0.499999 0.866026 0
    outer loop
      vertex -9.06633 11.2966 1
      vertex -9.06633 11.2966 0
      vertex -11.6644 12.7966 1
    endloop
  endfacet
  facet normal -0.866026 0.499999 0
    outer loop
      vertex -13.5394 9.54903 0
      vertex -13.5394 9.54903 1
      vertex -11.6644 12.7966 0
    endloop
  endfacet
  facet normal -0.866026 0.499999 0
    outer loop
      vertex -11.6644 12.7966 1
      vertex -11.6644 12.7966 0
      vertex -13.5394 9.54903 1
    endloop
  endfacet
  facet normal 0.500001 0.866025 -0
    outer loop
      vertex -18.1592 12.2163 0
      vertex -18.1592 12.2163 1
      vertex -13.5394 9.54903 0
    endloop
  endfacet
  facet normal 0.500001 0.866025 0
    outer loop
      vertex -13.5394 9.54903 1
      vertex -13.5394 9.54903 0
      vertex -18.1592 12.2163 1
    endloop
  endfacet
  facet normal 0.25882 -0.965926 0
    outer loop
      vertex -14.4127 13.2202 0
      vertex -14.4127 13.2202 1
      vertex -18.1592 12.2163 0
    endloop
  endfacet
  facet normal 0.25882 -0.965926 0
    outer loop
      vertex -18.1592 12.2163 1
      vertex -18.1592 12.2163 0
      vertex -14.4127 13.2202 1
    endloop
  endfacet
  facet normal 0.965927 0.258814 -0
    outer loop
      vertex -15.1892 16.118 0
      vertex -15.1892 16.118 1
      vertex -14.4127 13.2202 0
    endloop
  endfacet
  facet normal 0.965927 0.258814 0
    outer loop
      vertex -14.4127 13.2202 1
      vertex -14.4127 13.2202 0
      vertex -15.1892 16.118 1
    endloop
  endfacet
  facet normal -0.258819 0.965926 0
    outer loop
      vertex -23.8825 13.7886 0
      vertex -23.8825 13.7886 1
      vertex -15.1892 16.118 0
    endloop
  endfacet
  facet normal -0.258819 0.965926 0
    outer loop
      vertex -15.1892 16.118 1
      vertex -15.1892 16.118 0
      vertex -23.8825 13.7886 1
    endloop
  endfacet
  facet normal -0.965926 -0.25882 0
    outer loop
      vertex -21.5531 5.09525 0
      vertex -21.5531 5.09525 1
      vertex -23.8825 13.7886 0
    endloop
  endfacet
  facet normal -0.965926 -0.25882 -0
    outer loop
      vertex -23.8825 13.7886 1
      vertex -23.8825 13.7886 0
      vertex -21.5531 5.09525 1
    endloop
  endfacet
  facet normal 0.258819 -0.965926 0
    outer loop
      vertex -18.6554 5.8717 0
      vertex -18.6554 5.8717 1
      vertex -21.5531 5.09525 0
    endloop
  endfacet
  facet normal 0.258819 -0.965926 0
    outer loop
      vertex -21.5531 5.09525 1
      vertex -21.5531 5.09525 0
      vertex -18.6554 5.8717 1
    endloop
  endfacet
  facet normal 0.965926 0.258819 -0
    outer loop
      vertex -19.6592 9.61823 0
      vertex -19.6592 9.61823 1
      vertex -18.6554 5.8717 0
    endloop
  endfacet
  facet normal 0.965926 0.258819 0
    outer loop
      vertex -18.6554 5.8717 1
      vertex -18.6554 5.8717 0
      vertex -19.6592 9.61823 1
    endloop
  endfacet
  facet normal -0.500001 -0.866025 0
    outer loop
      vertex -15.0394 6.95096 0
      vertex -15.0394 6.95096 1
      vertex -19.6592 9.61823 0
    endloop
  endfacet
  facet normal -0.500001 -0.866025 -0
    outer loop
      vertex -19.6592 9.61823 1
      vertex -19.6592 9.61823 0
      vertex -15.0394 6.95096 1
    endloop
  endfacet
  facet normal -0.866026 0.499999 0
    outer loop
      vertex -16.9144 3.70335 0
      vertex -16.9144 3.70335 1
      vertex -15.0394 6.95096 0
    endloop
  endfacet
  facet normal -0.866026 0.499999 0
    outer loop
      vertex -15.0394 6.95096 1
      vertex -15.0394 6.95096 0
      vertex -16.9144 3.70335 1
    endloop
  endfacet
  facet normal -0.499999 -0.866026 0
    outer loop
      vertex -14.3163 2.20335 0
      vertex -14.3163 2.20335 1
      vertex -16.9144 3.70335 0
    endloop
  endfacet
  facet normal -0.499999 -0.866026 -0
    outer loop
      vertex -16.9144 3.70335 1
      vertex -16.9144 3.70335 0
      vertex -14.3163 2.20335 1
    endloop
  endfacet
  facet normal 0.866026 -0.499999 0
    outer loop
      vertex -12.4413 5.45096 0
      vertex -12.4413 5.45096 1
      vertex -14.3163 2.20335 0
    endloop
  endfacet
  facet normal 0.866026 -0.499999 0
    outer loop
      vertex -14.3163 2.20335 1
      vertex -14.3163 2.20335 0
      vertex -12.4413 5.45096 1
    endloop
  endfacet
  facet normal -0.499999 -0.866026 0
    outer loop
      vertex -8.41261 3.12498 0
      vertex -8.41261 3.12498 1
      vertex -12.4413 5.45096 0
    endloop
  endfacet
  facet normal -0.499999 -0.866026 -0
    outer loop
      vertex -12.4413 5.45096 1
      vertex -12.4413 5.45096 0
      vertex -8.41261 3.12498 1
    endloop
  endfacet
  facet normal -0.907573 0.419893 0
    outer loop
      vertex -8.52887 2.8737 0
      vertex -8.52887 2.8737 1
      vertex -8.41261 3.12498 0
    endloop
  endfacet
  facet normal -0.907573 0.419893 0
    outer loop
      vertex -8.41261 3.12498 1
      vertex -8.41261 3.12498 0
      vertex -8.52887 2.8737 1
    endloop
  endfacet
  facet normal -0.97662 0.214972 0
    outer loop
      vertex -8.94724 0.973068 0
      vertex -8.94724 0.973068 1
      vertex -8.52887 2.8737 0
    endloop
  endfacet
  facet normal -0.97662 0.214972 0
    outer loop
      vertex -8.52887 2.8737 1
      vertex -8.52887 2.8737 0
      vertex -8.94724 0.973068 1
    endloop
  endfacet
  facet normal -1 0 0
    outer loop
      vertex -8.94724 0 0
      vertex -8.94724 0 1
      vertex -8.94724 0.973068 0
    endloop
  endfacet
  facet normal -1 -0 -0
    outer loop
      vertex -8.94724 0.973068 1
      vertex -8.94724 0.973068 0
      vertex -8.94724 0 1
    endloop
  endfacet
  facet normal 0 1 0
    outer loop
      vertex -30 0 0
      vertex -30 0 1
      vertex -8.94724 0 0
    endloop
  endfacet
  facet normal 0 1 0
    outer loop
      vertex -8.94724 0 1
      vertex -8.94724 0 0
      vertex -30 0 1
    endloop
  endfacet
  facet normal 0.54695 0.837166 -0
    outer loop
      vertex -4.06367 -4.41434 0
      vertex -4.06367 -4.41434 1
      vertex -2.41017 -5.49463 0
    endloop
  endfacet
  facet normal 0.54695 0.837166 0
    outer loop
      vertex -2.41017 -5.49463 1
      vertex -2.41017 -5.49463 0
      vertex -4.06367 -4.41434 1
    endloop
  endfacet
  facet normal 0.789137 0.614218 -0
    outer loop
      vertex -5.27684 -2.85568 0
      vertex -5.27684 -2.85568 1
      vertex -4.06367 -4.41434 0
    endloop
  endfacet
  facet normal 0.789137 0.614218 0
    outer loop
      vertex -4.06367 -4.41434 1
      vertex -4.06367 -4.41434 0
      vertex -5.27684 -2.85568 1
    endloop
  endfacet
  facet normal 0.945817 0.3247 -0
    outer loop
      vertex -5.91817 -0.987564 0
      vertex -5.91817 -0.987564 1
      vertex -5.27684 -2.85568 0
    endloop
  endfacet
  facet normal 0.945817 0.3247 0
    outer loop
      vertex -5.27684 -2.85568 1
      vertex -5.27684 -2.85568 0
      vertex -5.91817 -0.987564 1
    endloop
  endfacet
  facet normal 1 0 -0
    outer loop
      vertex -5.91817 0.987564 0
      vertex -5.91817 0.987564 1
      vertex -5.91817 -0.987564 0
    endloop
  endfacet
  facet normal 1 -0 0
    outer loop
      vertex -5.91817 -0.987564 1
      vertex -5.91817 -0.987564 0
      vertex -5.91817 0.987564 1
    endloop
  endfacet
  facet normal 0.945817 -0.3247 0
    outer loop
      vertex -5.27684 2.85568 0
      vertex -5.27684 2.85568 1
      vertex -5.91817 0.987564 0
    endloop
  endfacet
  facet normal 0.945817 -0.3247 0
    outer loop
      vertex -5.91817 0.987564 1
      vertex -5.91817 0.987564 0
      vertex -5.27684 2.85568 1
    endloop
  endfacet
  facet normal 0.789137 -0.614218 0
    outer loop
      vertex -4.06367 4.41434 0
      vertex -4.06367 4.41434 1
      vertex -5.27684 2.85568 0
    endloop
  endfacet
  facet normal 0.789137 -0.614218 0
    outer loop
      vertex -5.27684 2.85568 1
      vertex -5.27684 2.85568 0
      vertex -4.06367 4.41434 1
    endloop
  endfacet
  facet normal 0.54695 -0.837166 0
    outer loop
      vertex -2.41017 5.49463 0
      vertex -2.41017 5.49463 1
      vertex -4.06367 4.41434 0
    endloop
  endfacet
  facet normal 0.54695 -0.837166 0
    outer loop
      vertex -4.06367 4.41434 1
      vertex -4.06367 4.41434 0
      vertex -2.41017 5.49463 1
    endloop
  endfacet
  facet normal 0.245483 -0.969401 0
    outer loop
      vertex -0.495468 5.97949 0
      vertex -0.495468 5.97949 1
      vertex -2.41017 5.49463 0
    endloop
  endfacet
  facet normal 0.245483 -0.969401 0
    outer loop
      vertex -2.41017 5.49463 1
      vertex -2.41017 5.49463 0
      vertex -0.495468 5.97949 1
    endloop
  endfacet
  facet normal -0.0825781 -0.996585 0
    outer loop
      vertex 1.4729 5.81639 0
      vertex 1.4729 5.81639 1
      vertex -0.495468 5.97949 0
    endloop
  endfacet
  facet normal -0.0825781 -0.996585 -0
    outer loop
      vertex -0.495468 5.97949 1
      vertex -0.495468 5.97949 0
      vertex 1.4729 5.81639 1
    endloop
  endfacet
  facet normal -0.401692 -0.915775 0
    outer loop
      vertex 3.28168 5.02299 0
      vertex 3.28168 5.02299 1
      vertex 1.4729 5.81639 0
    endloop
  endfacet
  facet normal -0.401692 -0.915775 -0
    outer loop
      vertex 1.4729 5.81639 1
      vertex 1.4729 5.81639 0
      vertex 3.28168 5.02299 1
    endloop
  endfacet
  facet normal -0.677281 -0.735724 0
    outer loop
      vertex 4.73483 3.68527 0
      vertex 4.73483 3.68527 1
      vertex 3.28168 5.02299 0
    endloop
  endfacet
  facet normal -0.677281 -0.735724 -0
    outer loop
      vertex 3.28168 5.02299 1
      vertex 3.28168 5.02299 0
      vertex 4.73483 3.68527 1
    endloop
  endfacet
  facet normal -0.879473 -0.475949 0
    outer loop
      vertex 5.6749 1.9482 0
      vertex 5.6749 1.9482 1
      vertex 4.73483 3.68527 0
    endloop
  endfacet
  facet normal -0.879473 -0.475949 -0
    outer loop
      vertex 4.73483 3.68527 1
      vertex 4.73483 3.68527 0
      vertex 5.6749 1.9482 1
    endloop
  endfacet
  facet normal -0.986361 -0.164598 0
    outer loop
      vertex 6 0 0
      vertex 6 0 1
      vertex 5.6749 1.9482 0
    endloop
  endfacet
  facet normal -0.986361 -0.164598 -0
    outer loop
      vertex 5.6749 1.9482 1
      vertex 5.6749 1.9482 0
      vertex 6 0 1
    endloop
  endfacet
  facet normal -0.986361 0.164598 0
    outer loop
      vertex 5.6749 -1.9482 0
      vertex 5.6749 -1.9482 1
      vertex 6 0 0
    endloop
  endfacet
  facet normal -0.986361 0.164598 0
    outer loop
      vertex 6 0 1
      vertex 6 0 0
      vertex 5.6749 -1.9482 1
    endloop
  endfacet
  facet normal -0.879473 0.475949 0
    outer loop
      vertex 4.73483 -3.68527 0
      vertex 4.73483 -3.68527 1
      vertex 5.6749 -1.9482 0
    endloop
  endfacet
  facet normal -0.879473 0.475949 0
    outer loop
      vertex 5.6749 -1.9482 1
      vertex 5.6749 -1.9482 0
      vertex 4.73483 -3.68527 1
    endloop
  endfacet
  facet normal -0.677281 0.735724 0
    outer loop
      vertex 3.28168 -5.02299 0
      vertex 3.28168 -5.02299 1
      vertex 4.73483 -3.68527 0
    endloop
  endfacet
  facet normal -0.677281 0.735724 0
    outer loop
      vertex 4.73483 -3.68527 1
      vertex 4.73483 -3.68527 0
      vertex 3.28168 -5.02299 1
    endloop
  endfacet
  facet normal -0.401692 0.915775 0
    outer loop
      vertex 1.4729 -5.81639 0
      vertex 1.4729 -5.81639 1
      vertex 3.28168 -5.02299 0
    endloop
  endfacet
  facet normal -0.401692 0.915775 0
    outer loop
      vertex 3.28168 -5.02299 1
      vertex 3.28168 -5.02299 0
      vertex 1.4729 -5.81639 1
    endloop
  endfacet
  facet normal -0.0825781 0.996585 0
    outer loop
      vertex -0.495468 -5.97949 0
      vertex -0.495468 -5.97949 1
      vertex 1.4729 -5.81639 0
    endloop
  endfacet
  facet normal -0.0825781 0.996585 0
    outer loop
      vertex 1.4729 -5.81639 1
      vertex 1.4729 -5.81639 0
      vertex -0.495468 -5.97949 1
    endloop
  endfacet
  facet normal 0.245483 0.969401 -0
    outer loop
      vertex -2.41017 -5.49463 0
      vertex -2.41017 -5.49463 1
      vertex -0.495468 -5.97949 0
    endloop
  endfacet
  facet normal 0.245483 0.969401 0
    outer loop
      vertex -0.495468 -5.97949 1
      vertex -0.495468 -5.97949 0
      vertex -2.41017 -5.49463 1
    endloop
  endfacet
  facet normal 0.207911 0.978148 -0
    outer loop
      vertex -9.27049 -28.5317 0
      vertex -9.27049 -28.5317 1
      vertex -3.13585 -29.8356 0
    endloop
  endfacet
  facet normal 0.207911 0.978148 0
    outer loop
      vertex -3.13585 -29.8356 1
      vertex -3.13585 -29.8356 0
      vertex -9.27049 -28.5317 1
    endloop
  endfacet
  facet normal 0.406735 0.913546 -0
    outer loop
      vertex -15 -25.9808 0
      vertex -15 -25.9808 1
      vertex -9.27049 -28.5317 0
    endloop
  endfacet
  facet normal 0.406735 0.913546 0
    outer loop
      vertex -9.27049 -28.5317 1
      vertex -9.27049 -28.5317 0
      vertex -15 -25.9808 1
    endloop
  endfacet
  facet normal 0.866026 -0.5 0
    outer loop
      vertex -4.47653 -7.75359 0
      vertex -4.47653 -7.75359 1
      vertex -15 -25.9808 0
    endloop
  endfacet
  facet normal 0.866026 -0.5 0
    outer loop
      vertex -15 -25.9808 1
      vertex -15 -25.9808 0
      vertex -4.47653 -7.75359 1
    endloop
  endfacet
  facet normal -0.468406 -0.883513 0
    outer loop
      vertex -3.33124 -8.36078 0
      vertex -3.33124 -8.36078 1
      vertex -4.47653 -7.75359 0
    endloop
  endfacet
  facet normal -0.468406 -0.883513 -0
    outer loop
      vertex -4.47653 -7.75359 1
      vertex -4.47653 -7.75359 0
      vertex -3.33124 -8.36078 1
    endloop
  endfacet
  facet normal -0.267525 -0.963551 0
    outer loop
      vertex -1.49998 -8.86922 0
      vertex -1.49998 -8.86922 1
      vertex -3.33124 -8.36078 0
    endloop
  endfacet
  facet normal -0.267525 -0.963551 -0
    outer loop
      vertex -3.33124 -8.36078 1
      vertex -3.33124 -8.36078 0
      vertex -1.49998 -8.86922 1
    endloop
  endfacet
  facet normal -1 0 0
    outer loop
      vertex -1.49998 -18 0
      vertex -1.49998 -18 1
      vertex -1.49998 -8.86922 0
    endloop
  endfacet
  facet normal -1 -0 -0
    outer loop
      vertex -1.49998 -8.86922 1
      vertex -1.49998 -8.86922 0
      vertex -1.49998 -18 1
    endloop
  endfacet
  facet normal 0 1 0
    outer loop
      vertex -7.5 -18 0
      vertex -7.5 -18 1
      vertex -1.49998 -18 0
    endloop
  endfacet
  facet normal 0 1 0
    outer loop
      vertex -1.49998 -18 1
      vertex -1.49998 -18 0
      vertex -7.5 -18 1
    endloop
  endfacet
  facet normal -1 0 0
    outer loop
      vertex -7.5 -21 0
      vertex -7.5 -21 1
      vertex -7.5 -18 0
    endloop
  endfacet
  facet normal -1 -0 -0
    outer loop
      vertex -7.5 -18 1
      vertex -7.5 -18 0
      vertex -7.5 -21 1
    endloop
  endfacet
  facet normal 0 -1 0
    outer loop
      vertex -1.49998 -21 0
      vertex -1.49998 -21 1
      vertex -7.5 -21 0
    endloop
  endfacet
  facet normal 0 -1 0
    outer loop
      vertex -7.5 -21 1
      vertex -7.5 -21 0
      vertex -1.49998 -21 1
    endloop
  endfacet
  facet normal -1 0 0
    outer loop
      vertex -1.49998 -27 0
      vertex -1.49998 -27 1
      vertex -1.49998 -21 0
    endloop
  endfacet
  facet normal -1 -0 -0
    outer loop
      vertex -1.49998 -21 1
      vertex -1.49998 -21 0
      vertex -1.49998 -27 1
    endloop
  endfacet
  facet normal 0 -1 0
    outer loop
      vertex 1.5 -27 0
      vertex 1.5 -27 1
      vertex -1.49998 -27 0
    endloop
  endfacet
  facet normal 0 -1 0
    outer loop
      vertex -1.49998 -27 1
      vertex -1.49998 -27 0
      vertex 1.5 -27 1
    endloop
  endfacet
  facet normal 1 0 -0
    outer loop
      vertex 1.5 -21 0
      vertex 1.5 -21 1
      vertex 1.5 -27 0
    endloop
  endfacet
  facet normal 1 -0 0
    outer loop
      vertex 1.5 -27 1
      vertex 1.5 -27 0
      vertex 1.5 -21 1
    endloop
  endfacet
  facet normal 0 -1 0
    outer loop
      vertex 7.5 -21 0
      vertex 7.5 -21 1
      vertex 1.5 -21 0
    endloop
  endfacet
  facet normal 0 -1 0
    outer loop
      vertex 1.5 -21 1
      vertex 1.5 -21 0
      vertex 7.5 -21 1
    endloop
  endfacet
  facet normal 1 0 -0
    outer loop
      vertex 7.5 -18 0
      vertex 7.5 -18 1
      vertex 7.5 -21 0
    endloop
  endfacet
  facet normal 1 -0 0
    outer loop
      vertex 7.5 -21 1
      vertex 7.5 -21 0
      vertex 7.5 -18 1
    endloop
  endfacet
  facet normal 0 1 0
    outer loop
      vertex 1.5 -18 0
      vertex 1.5 -18 1
      vertex 7.5 -18 0
    endloop
  endfacet
  facet normal 0 1 0
    outer loop
      vertex 7.5 -18 1
      vertex 7.5 -18 0
      vertex 1.5 -18 1
    endloop
  endfacet
  facet normal 1 0 -0
    outer loop
      vertex 1.5 -8.82076 0
      vertex 1.5 -8.82076 1
      vertex 1.5 -18 0
    endloop
  endfacet
  facet normal 1 -0 0
    outer loop
      vertex 1.5 -18 1
      vertex 1.5 -18 0
      vertex 1.5 -8.82076 1
    endloop
  endfacet
  facet normal 0.161784 -0.986826 0
    outer loop
      vertex 2.40775 -8.67194 0
      vertex 2.40775 -8.67194 1
      vertex 1.5 -8.82076 0
    endloop
  endfacet
  facet normal 0.161784 -0.986826 0
    outer loop
      vertex 1.5 -8.82076 1
      vertex 1.5 -8.82076 0
      vertex 2.40775 -8.67194 1
    endloop
  endfacet
  facet normal 0.370136 -0.928978 0
    outer loop
      vertex 4.21567 -7.9516 0
      vertex 4.21567 -7.9516 1
      vertex 2.40775 -8.67194 0
    endloop
  endfacet
  facet normal 0.370136 -0.928978 0
    outer loop
      vertex 2.40775 -8.67194 1
      vertex 2.40775 -8.67194 0
      vertex 4.21567 -7.9516 1
    endloop
  endfacet
  facet normal 0.56118 -0.827694 0
    outer loop
      vertex 4.48531 -7.76878 0
      vertex 4.48531 -7.76878 1
      vertex 4.21567 -7.9516 0
    endloop
  endfacet
  facet normal 0.56118 -0.827694 0
    outer loop
      vertex 4.21567 -7.9516 1
      vertex 4.21567 -7.9516 0
      vertex 4.48531 -7.76878 1
    endloop
  endfacet
  facet normal -0.866025 -0.500001 0
    outer loop
      vertex 15 -25.9807 0
      vertex 15 -25.9807 1
      vertex 4.48531 -7.76878 0
    endloop
  endfacet
  facet normal -0.866025 -0.500001 -0
    outer loop
      vertex 4.48531 -7.76878 1
      vertex 4.48531 -7.76878 0
      vertex 15 -25.9807 1
    endloop
  endfacet
  facet normal -0.406737 0.913545 0
    outer loop
      vertex 9.27051 -28.5317 0
      vertex 9.27051 -28.5317 1
      vertex 15 -25.9807 0
    endloop
  endfacet
  facet normal -0.406737 0.913545 0
    outer loop
      vertex 15 -25.9807 1
      vertex 15 -25.9807 0
      vertex 9.27051 -28.5317 1
    endloop
  endfacet
  facet normal -0.207912 0.978147 0
    outer loop
      vertex 3.13583 -29.8356 0
      vertex 3.13583 -29.8356 1
      vertex 9.27051 -28.5317 0
    endloop
  endfacet
  facet normal -0.207912 0.978147 0
    outer loop
      vertex 9.27051 -28.5317 1
      vertex 9.27051 -28.5317 0
      vertex 3.13583 -29.8356 1
    endloop
  endfacet
  facet normal 2.43297e-06 1 -0
    outer loop
      vertex -3.13585 -29.8356 0
      vertex -3.13585 -29.8356 1
      vertex 3.13583 -29.8356 0
    endloop
  endfacet
  facet normal 2.43297e-06 1 0
    outer loop
      vertex 3.13583 -29.8356 1
      vertex 3.13583 -29.8356 0
      vertex -3.13585 -29.8356 1
    endloop
  endfacet
endsolid OpenSCAD_Model
